/* XPM */
static char *result[] = {
/* columns rows colors chars-per-pixel */
"48 48 4 1 ",
"  c #120C20",
". c #563E46",
"X c #A5A5A5",
"o c white",
/* pixels */
"................................................",
"................................................",
"................................................",
"................................................",
".. X ...... X .... X ...... X .... X ...... X ..",
". Xoo .... Xoo .. Xoo .... Xoo .. Xoo .... Xoo .",
".  o  ....  o  ..  o  ....  o  ..  o  ....  o  .",
"..   ......   ....   ......   ....   ......   ..",
"................................................",
"................................................",
"................................................",
"................................................",
".. X ...... X .... X ...... X .... X ...... X ..",
". Xoo .... Xoo .. Xoo .... Xoo .. Xoo .... Xoo .",
".  o  ....  o  ..  o  ....  o  ..  o  ....  o  .",
"..   ......   ....   ......   ....   ......   ..",
"................................................",
"................................................",
"................................................",
"................................................",
".. X ...... X .... X ...... X .... X ...... X ..",
". Xoo .... Xoo .. Xoo .... Xoo .. Xoo .... Xoo .",
".  o  ....  o  ..  o  ....  o  ..  o  ....  o  .",
"..   ......   ....   ......   ....   ......   ..",
"................................................",
"................................................",
"................................................",
"................................................",
".. X ...... X .... X ...... X .... X ...... X ..",
". Xoo .... Xoo .. Xoo .... Xoo .. Xoo .... Xoo .",
".  o  ....  o  ..  o  ....  o  ..  o  ....  o  .",
"..   ......   ....   ......   ....   ......   ..",
"................................................",
"................................................",
"................................................",
"................................................",
".. X ...... X .... X ...... X .... X ...... X ..",
". Xoo .... Xoo .. Xoo .... Xoo .. Xoo .... Xoo .",
".  o  ....  o  ..  o  ....  o  ..  o  ....  o  .",
"..   ......   ....   ......   ....   ......   ..",
"................................................",
"................................................",
"................................................",
"................................................",
".. X ...... X .... X ...... X .... X ...... X ..",
". Xoo .... Xoo .. Xoo .... Xoo .. Xoo .... Xoo .",
".  o  ....  o  ..  o  ....  o  ..  o  ....  o  .",
"..   ......   ....   ......   ....   ......   .."
};
