/* XPM */
static char *result[] = {
/* columns rows colors chars-per-pixel */
"48 48 2 1 ",
"  c #120C20",
". c #563E46",
/* pixels */
"................................................",
"................................................",
"................................................",
"................................................",
"..   ......   ....   ......   ....   ......   ..",
".     ....     ..     ....     ..     ....     .",
".     ....     ..     ....     ..     ....     .",
"..   ......   ....   ......   ....   ......   ..",
"................................................",
"................................................",
"................................................",
"................................................",
"..   ......   ....   ......   ....   ......   ..",
".     ....     ..     ....     ..     ....     .",
".     ....     ..     ....     ..     ....     .",
"..   ......   ....   ......   ....   ......   ..",
"................................................",
"................................................",
"................................................",
"................................................",
"..   ......   ....   ......   ....   ......   ..",
".     ....     ..     ....     ..     ....     .",
".     ....     ..     ....     ..     ....     .",
"..   ......   ....   ......   ....   ......   ..",
"................................................",
"................................................",
"................................................",
"................................................",
"..   ......   ....   ......   ....   ......   ..",
".     ....     ..     ....     ..     ....     .",
".     ....     ..     ....     ..     ....     .",
"..   ......   ....   ......   ....   ......   ..",
"................................................",
"................................................",
"................................................",
"................................................",
"..   ......   ....   ......   ....   ......   ..",
".     ....     ..     ....     ..     ....     .",
".     ....     ..     ....     ..     ....     .",
"..   ......   ....   ......   ....   ......   ..",
"................................................",
"................................................",
"................................................",
"................................................",
"..   ......   ....   ......   ....   ......   ..",
".     ....     ..     ....     ..     ....     .",
".     ....     ..     ....     ..     ....     .",
"..   ......   ....   ......   ....   ......   .."
};
