/* XPM */
static char *result[] = {
/* columns rows colors chars-per-pixel */
"48 48 5 1 ",
"  c #120C20",
". c #563E46",
"X c #797979",
"o c #A5A5A5",
"O c white",
/* pixels */
"................................................",
"...O........O......O........O......O........O...",
"...O........O......O........O......O........O...",
"..OoX...X..OoX....OoX...X..OoX....OoX...X..OoX..",
"X.ooo.X..X.ooo.XX.ooo.X..X.ooo.XX.ooo.X..X.ooo.X",
". ooX .... ooX .. ooX .... ooX .. ooX .... ooX .",
".  X  ....  X  ..  X  ....  X  ..  X  ....  X  .",
"..   ......   ....   ......   ....   ......   ..",
"................................................",
"...O........O......O........O......O........O...",
"...O........O......O........O......O........O...",
"..OoX..X...OoX....OoX..X...OoX....OoX..X...OoX..",
"X.ooo.X..X.ooo.XX.ooo.X..X.ooo.XX.ooo.X..X.ooo.X",
". ooX .... ooX .. ooX .... ooX .. ooX .... ooX .",
".  X  ....  X  ..  X  ....  X  ..  X  ....  X  .",
"..   ......   ....   ......   ....   ......   ..",
"................................................",
"...O........O......O........O......O........O...",
"...O........O......O........O......O........O...",
"..OoX...X..OoX....OoX...X..OoX....OoX...X..OoX..",
"X.ooo.X..X.ooo.XX.ooo.X..X.ooo.XX.ooo.X..X.ooo.X",
". ooX .... ooX .. ooX .... ooX .. ooX .... ooX .",
".  X  ....  X  ..  X  ....  X  ..  X  ....  X  .",
"..   ......   ....   ......   ....   ......   ..",
"................................................",
"...O........O......O........O......O........O...",
"...O........O......O........O......O........O...",
"..OoX..X...OoX....OoX..X...OoX....OoX..X...OoX..",
"X.ooo.X..X.ooo.XX.ooo.X..X.ooo.XX.ooo.X..X.ooo.X",
". ooX .... ooX .. ooX .... ooX .. ooX .... ooX .",
".  X  ....  X  ..  X  ....  X  ..  X  ....  X  .",
"..   ......   ....   ......   ....   ......   ..",
"................................................",
"...O........O......O........O......O........O...",
"...O........O......O........O......O........O...",
"..OoX...X..OoX....OoX...X..OoX....OoX...X..OoX..",
"X.ooo.X..X.ooo.XX.ooo.X..X.ooo.XX.ooo.X..X.ooo.X",
". ooX .... ooX .. ooX .... ooX .. ooX .... ooX .",
".  X  ....  X  ..  X  ....  X  ..  X  ....  X  .",
"..   ......   ....   ......   ....   ......   ..",
"................................................",
"...O........O......O........O......O........O...",
"...O........O......O........O......O........O...",
"..OoX..X...OoX....OoX..X...OoX....OoX..X...OoX..",
"X.ooo.X..X.ooo.XX.ooo.X..X.ooo.XX.ooo.X..X.ooo.X",
". ooX .... ooX .. ooX .... ooX .. ooX .... ooX .",
".  X  ....  X  ..  X  ....  X  ..  X  ....  X  .",
"..   ......   ....   ......   ....   ......   .."
};
