/* XPM */
static char *result[] = {
/* columns rows colors chars-per-pixel */
"48 48 3 1 ",
"  c #120C20",
". c #563E46",
"X c #A5A5A5",
/* pixels */
"................................................",
"................................................",
"................................................",
"................................................",
"..   ......   ....   ......   ....   ......   ..",
".     ....     ..     ....     ..     ....     .",
".  X  ....  X  ..  X  ....  X  ..  X  ....  X  .",
"..   ......   ....   ......   ....   ......   ..",
"................................................",
"................................................",
"................................................",
"................................................",
"..   ......   ....   ......   ....   ......   ..",
".     ....     ..     ....     ..     ....     .",
".  X  ....  X  ..  X  ....  X  ..  X  ....  X  .",
"..   ......   ....   ......   ....   ......   ..",
"................................................",
"................................................",
"................................................",
"................................................",
"..   ......   ....   ......   ....   ......   ..",
".     ....     ..     ....     ..     ....     .",
".  X  ....  X  ..  X  ....  X  ..  X  ....  X  .",
"..   ......   ....   ......   ....   ......   ..",
"................................................",
"................................................",
"................................................",
"................................................",
"..   ......   ....   ......   ....   ......   ..",
".     ....     ..     ....     ..     ....     .",
".  X  ....  X  ..  X  ....  X  ..  X  ....  X  .",
"..   ......   ....   ......   ....   ......   ..",
"................................................",
"................................................",
"................................................",
"................................................",
"..   ......   ....   ......   ....   ......   ..",
".     ....     ..     ....     ..     ....     .",
".  X  ....  X  ..  X  ....  X  ..  X  ....  X  .",
"..   ......   ....   ......   ....   ......   ..",
"................................................",
"................................................",
"................................................",
"................................................",
"..   ......   ....   ......   ....   ......   ..",
".     ....     ..     ....     ..     ....     .",
".  X  ....  X  ..  X  ....  X  ..  X  ....  X  .",
"..   ......   ....   ......   ....   ......   .."
};
