/* XPM */
static char *result[] = {
/* columns rows colors chars-per-pixel */
"48 48 5 1 ",
"  c #120C20",
". c #563E46",
"X c #797979",
"o c #A5A5A5",
"O c white",
/* pixels */
"................................................",
"................................................",
"...O........O......O........O......O........O...",
"...O...X....O......O...X....O......O...X....O...",
"..OoX......OoX....OoX......OoX....OoX......OoX..",
". ooX .... ooX .. ooX .... ooX .. ooX .... ooX .",
".  X  ....  X  ..  X  ....  X  ..  X  ....  X  .",
"..   ......   ....   ......   ....   ......   ..",
"................................................",
"................................................",
"...O........O......O........O......O........O...",
"...O....X...O......O....X...O......O....X...O...",
"..OoX......OoX....OoX......OoX....OoX......OoX..",
". ooX .... ooX .. ooX .... ooX .. ooX .... ooX .",
".  X  ....  X  ..  X  ....  X  ..  X  ....  X  .",
"..   ......   ....   ......   ....   ......   ..",
"................................................",
"................................................",
"...O........O......O........O......O........O...",
"...O...X....O......O...X....O......O...X....O...",
"..OoX......OoX....OoX......OoX....OoX......OoX..",
". ooX .... ooX .. ooX .... ooX .. ooX .... ooX .",
".  X  ....  X  ..  X  ....  X  ..  X  ....  X  .",
"..   ......   ....   ......   ....   ......   ..",
"................................................",
"................................................",
"...O........O......O........O......O........O...",
"...O....X...O......O....X...O......O....X...O...",
"..OoX......OoX....OoX......OoX....OoX......OoX..",
". ooX .... ooX .. ooX .... ooX .. ooX .... ooX .",
".  X  ....  X  ..  X  ....  X  ..  X  ....  X  .",
"..   ......   ....   ......   ....   ......   ..",
"................................................",
"................................................",
"...O........O......O........O......O........O...",
"...O...X....O......O...X....O......O...X....O...",
"..OoX......OoX....OoX......OoX....OoX......OoX..",
". ooX .... ooX .. ooX .... ooX .. ooX .... ooX .",
".  X  ....  X  ..  X  ....  X  ..  X  ....  X  .",
"..   ......   ....   ......   ....   ......   ..",
"................................................",
"................................................",
"...O........O......O........O......O........O...",
"...O....X...O......O....X...O......O....X...O...",
"..OoX......OoX....OoX......OoX....OoX......OoX..",
". ooX .... ooX .. ooX .... ooX .. ooX .... ooX .",
".  X  ....  X  ..  X  ....  X  ..  X  ....  X  .",
"..   ......   ....   ......   ....   ......   .."
};
