/* XPM */
static char *result[] = {
/* columns rows colors chars-per-pixel */
"48 48 68 1 ",
"  c #521813",
". c #462329",
"X c #49262C",
"o c #4B282F",
"O c #56313A",
"+ c #59333D",
"@ c #5F3E3D",
"# c #722723",
"$ c #762924",
"% c #782A24",
"& c #613F3C",
"* c #6A3C38",
"= c #563E46",
"- c #5D3B44",
"; c #613C44",
": c #37495F",
"> c #3A485D",
", c #2D4D67",
"< c #2E4E68",
"1 c #324C64",
"2 c #304E69",
"3 c #34526B",
"4 c #3A556F",
"5 c #5F404A",
"6 c #7F4F49",
"7 c #50697F",
"8 c #8D352F",
"9 c #8D3530",
"0 c #814E49",
"q c #944F48",
"w c #84504A",
"e c #905750",
"r c #975954",
"t c #9D5C56",
"y c #A04B47",
"u c #B15D55",
"i c #C55148",
"p c #C85248",
"a c #4D6781",
"s c #516A84",
"d c #546E89",
"f c #56718B",
"g c #5B748C",
"h c #5B7592",
"j c #5C7892",
"k c #537799",
"l c #5C7B9B",
"z c #5C7FA1",
"x c #65819C",
"c c #69849E",
"v c #5C81A5",
"b c #7692AE",
"n c #7793B0",
"m c #7B97B4",
"M c #7C98B5",
"N c #8E8E8E",
"B c #849BB4",
"V c #889FB9",
"C c #919EB1",
"Z c #8CA4BD",
"A c #97A8BB",
"S c #98A9BC",
"D c #ABA9A9",
"F c #B1B1B1",
"G c #97ACC0",
"H c #9BAEC3",
"J c #9DB2C7",
"K c #9EB3C8",
/* pixels */
"mmMmMmmJ<jmMZJ,MMMZJ,mmMMmb3KZmmM3KZMmj,JMMMmmMm",
"mmmMmmmJ<fmnZS,mmMZK,ZZZGZZ,JZmmM3JZMMj,KMmmmMmm",
"MmMMmMmH,<2<<3,MMMZJ,JKKKKK,JZmmn<,,,,,,JmMmMmMM",
"MMMmMmmJ,fmmZJ,ZZZZJ,,<<,<<,JGZGZ3JZmbg,KmMmmMmM",
"MmmmmmMK,fmmZK,KJKJJ<bmMmnn3JKKKK4JZMMd,KMMMmmMm",
"MMmmMmmK,gZZZH,,<<,<,bMmmmn,333<33KZZZ7,KMmmMmmm",
",,,,<<,,,fJJKJ,nbnZJ,bmmmmm3GGmmb4KKJK7<<,,,,,,,",
",,,,<MmG,,,,,,,mMMZJ<JJJKKK,JGMMM24<<2,<JmM,,,,,",
",,,,<mmJ<axccx,ZZZZK,vvvvvv<KGVGZ4KZMbs<JmM<,,<<",
",,<,1mmJ<hmmmn,KKKKK2vvvvvv<KKJHK3KZMnf,KmM1,,,1",
",1<,<mMJ<gmmmm,vvvvv,vvvvvv<vvzvv3JZZZd,KMm<,2<1",
"111,<mMn<BJKKJ,vvvvv,vvvvvv<vvvvv3KJJJc,mMm11111",
";----<mm<kvvvv,vvvvv# #### #vzzvv,vvvvk,mm<-----",
"-----<,<<zvvvv### ### ##$# ##O $##vvvvv,<<,-----",
"-;---<,<,zvvvv### 998$8999%999 ###vvvvv,1,<--5-5",
"-----<,1,,,,,,999%998$9999$999%999,,,,,<1,,-----",
"5www==,,2JJKKCNNF$998%8989%888%888JAJJJ,,,=6ww5-",
"6www66=5:vvvvgNFF$999%8999%888%898vvvvv,=600www-",
"0www66t5>vvvvh888$998$8898%888%889vvvvv,00www0r=",
"wwww00t+>vvzzl889$999%9888%888%898vvvvv,wwww0wt@",
"wwww0tt5>vvzvv888$988%8FFF%889$8F8vvvvv,0wwwwte5",
"&ttttt&=>,,,,,888%888%8FFF%888$9F9,,,,,,&ttttt&5",
"=&&&@@==>JJJKJ889$888%8FFF%889%9F9KJJKJ,-=@@@@5+",
"===5===5:vvvzv888%988$8988$888%9F8vvvvz,==5=====",
"===ww===:vvvvv889%889%8888%889%8F9vvvvv,==0w====",
"=6wwwt==1vvlvv888%899$8898%888%889vzvvv,==0w00t=",
"6wwwwt==1lvxvv889%988$8898%888%899vxvvv,=0wwwwt-",
"wwwwwt==2,,122888%988%8888%888%999,2,,,,=0wwwwt-",
"wwwwtt5=1HJSJKNNF$998$8888%889%888JSJSS,=00w0tr-",
"&tttt&==,zvlvvNDF%888%9988%889%888vvvlv,=&tttt&-",
"=&&&&===1lvgvv889%888%8888%888%888vvvjl,==5&+&==",
"========,xv7vvpyp%ppp$pppp%iii%iiivlvdv,==5-====",
"@=------------;-;-;;;;-----;;;;;----------------",
"5@-------------;qqqqqq;--;qqqqqq;--------------;",
"---------+-5---qqqqqqqu--qqqqqqqu---------------",
"--+-;-----;----qqqqqqqu--qqqqqqqu---------------",
"--------;------qqqqqqqu--qqqqqqqu---------------",
"---------------qqqqqqqu--qqqqqqqu-5---;---------",
"------5-------5qqqqqqqu--qqqqqqqu---------------",
"------+--5---;-qqqqqqqu--qqqqqqqu-------------;-",
"---------------qqqqqqqu--qqqqqqqu---------------",
"--O------------qqqqqquu--qqqqqquu------O--------",
"--------+------*uuuuuu*--*uuuuuu*;------;-------",
"-+--+--@--------******+---******----------------",
"............---+--+--+--+-+=--@----.XX.XX.X.X.X.",
"................................................",
".....................XoooXXXX...................",
";----+------------------------------------------"
};
