/* XPM */
static char *result[] = {
/* columns rows colors chars-per-pixel */
"48 48 56 1 ",
"  c #462329",
". c #49262C",
"X c #4B282F",
"o c #56313A",
"O c #59333D",
"+ c #5F3E3D",
"@ c #613F3C",
"# c #6A3C38",
"$ c #563E46",
"% c #5D3B44",
"& c #613C44",
"* c #2D4D67",
"= c #2E4E68",
"- c #324C64",
"; c #304E69",
": c #34526B",
"> c #3A556E",
", c #5F404A",
"< c #7F4F49",
"1 c #50697F",
"2 c #814E49",
"3 c #944F48",
"4 c #84504A",
"5 c #905750",
"6 c #975954",
"7 c #9D5C56",
"8 c #B15D55",
"9 c #4D6781",
"0 c #516A84",
"q c #546E89",
"w c #5A6D88",
"e c #56718B",
"r c #5B748C",
"t c #5B7592",
"y c #5C7892",
"u c #54789A",
"i c #5C7B9B",
"p c #5C7FA1",
"a c #65819C",
"s c #69849E",
"d c #5C81A5",
"f c #7692AE",
"g c #7793B0",
"h c #7B97B4",
"j c #7C98B5",
"k c #849BB4",
"l c #889FB9",
"z c #919EB1",
"x c #8CA4BD",
"c c #97A8BB",
"v c #98A9BC",
"b c #B1B1B1",
"n c #97ACC0",
"m c #9BAEC3",
"M c #9DB2C7",
"N c #9EB3C8",
/* pixels */
"hhjhjhhM*yjjxm*jjjxM*hhjjhf:Nxhhh:Nxjhy*Njjjhhhh",
"hhhjhhhM*ehgxv*hhjxN*xxxxnx*Mxhhj:Mxjhy*Njhhhjjh",
"jhjjhjhm**:;::*hjjxM*MNNNNN*Mjhjh******;Nhjhjhjj",
"jjjhjhhM*ehjxM*xxxxM**==**=*Mnnnx:Mxhfe*Njhhhjhj",
"jhhhhhjN*ehgxM*NNNMM=fhjhgg:NNNNN>Mxkjq*Nhjjhhjj",
"jjhhjhhN*rxxxm**==*=*fhhhhg=>:=;::Nxxx9*Nhhhjhjj",
"****==***eMMNM*gfgxM*fhhhhh:nnjjf>NNNN1******=**",
"****=jhn*******hhjxM=MMNNNN=Mnjjj;>*****Mhh*****",
"****=hhM=9assa*xxxnN>dddddd=Nnlnx>Nxjf0*Mhj*****",
"**=*-hhM=thhhh*NNNNN:dddddp=NNMMN:Nxjge*Mjj-*-*-",
"*-=*=hjM*thhhg*dppdd=pddddd=ddppd:Nxxxe*Njh***;-",
"---*=jjg*kmNNN*ddddp=pddddd=dddpd:NMMMs*jjj-;--;",
"&%%%%=hh*udddd*ddpdp%%%%%%%%dppdd=ddddu*jh*%%%%%",
"%%%%%=*=*pdddd%%$$$,%%%%%%%%$$$$%%ddddd****%%%%,",
"%%&%%**=*ddddd%%%%$%%%%%%%%%%%%%%%ddddi*-**%%%%,",
"%%%%%**-******%%%%%%%%%%%%%%%%%%%%******;*;%%%%&",
"$444$$--=NNNNz%%%%%%%%%%%%%%33%%%%NcmNN=--$<44&$",
"444442$$;ddppi%%%%%63%%%%3%%33%%%%ddddd*$<22444%",
"4424447$-ppppi%%%%5333%%%%%%%%%%%%ddddd*2444447%",
"4444447$-ppppi%%%%3333%%%%%%%%%%%%ddddd*2444446%",
"4444277$,ppppp%%%%%333%%%%33%%%%%%ddddd*2444475%",
"@77777@$-**=;;%%%%%%%%%%%%33%%%%%%*==***&77777+$",
"$@@@+@$$-NNMNN%%%%%%%%%%%%%%%%%&%&NMNNN*$$@+++,+",
"$$$$$$$$-dddpp%%%333%%%%%%%%33&&%$dpddp=$$,$$$$$",
"$$$44$$$-ppppp%%333333%%%%33338%%%dpddd*$$24$$$$",
"$44447$$-ppppp%%3333338%%333338%%%dpddd*$$24427$",
"444447$$-ppppp%%3333338%%333338%%%dpddd*$444447%",
"444447$$--;-:;%%3b33388%%63338b%%&;;****$244426%",
"444477$$-mMnmN%%&8bb88#&%#88bb#&%%NmNvm*$224276%",
"@7777@$$-ppppp%%&#####&&%%##&&&&%%dpdii*$&7776@%",
",++++$$$;pptpp%%%%&&%%%%%%&%%%&%%%dpdyp;$$@@@@$$",
"$$$$$$,%;ppwpp%%%%&&%%%%%%%%%%%&%%didwd;$$$$$$$$",
"$%%%%%%%%%%%%%,%&&&&&&%%%%%&&&&&%%%%%%%%%%%%%%%%",
"%%%%%%%%%%%%%%%&333333&%%%333333&%%%%%%%%%%%%%%%",
"%%%%%%%%%O%&%%%33333338%%33333338%%%%&%%%%%%%%%%",
"%%O%&%%%%%%%%%%33333338%%33333338%%%%%%O%%%%%%%%",
"%%%%%%%%%&%%%%%33333338%%33333338%%%%%%%%%%%%%%%",
"%%%%%%%%%%%%%%%33333338%%33333338%%%%%%%%&%%%%%%",
"%%%%%%%%%,%%%%&33333338%%33333338%%%%%%%%%%%%%%%",
"%%%%%%O%%%%%%%%33333338%%33333338%%%%%%%%%$%%%&%",
"%%%%%%%%%%%%%%%33333338%$33333338%%%%%%%%%%%%%%%",
"&%O%%%%%%%%%%%%33333388%%33333388%%%%%%%&%%%%%%%",
"%%%%%%%%O%%%%%%#888888#%%#888888#%%%%%%%%%%%%%%%",
"%o%%O%%O%%%%%%%%######O$%%######%%%%%%O&%%%%%%%%",
"            %O%O%%O%%O%+O%O$%O%OO%%  . ...      ",
"                                                ",
"                     ..XXXXX..                  ",
"&%%%+%%%%%%%%%%$%%%%%%%%%%%%%%%%%%%%%%%%%%%%%%%%"
};
