/* XPM */
static char *result[] = {
/* columns rows colors chars-per-pixel */
"48 48 70 1 ",
"  c #521813",
". c #462329",
"X c #49262C",
"o c #4B282F",
"O c #56313A",
"+ c #59333D",
"@ c #5F3E3D",
"# c #722723",
"$ c #762924",
"% c #782A24",
"& c #613F3C",
"* c #6A3C38",
"= c #563E46",
"- c #5D3B44",
"; c #613C44",
": c #37495F",
"> c #3A485D",
", c #2D4D67",
"< c #2E4E68",
"1 c #324C64",
"2 c #304E69",
"3 c #34526B",
"4 c #3A556F",
"5 c #5F404A",
"6 c #7F4F49",
"7 c #50697F",
"8 c #8D352F",
"9 c #8D3530",
"0 c #814E49",
"q c #944F48",
"w c #84504A",
"e c #905750",
"r c #975954",
"t c #9D5C56",
"y c #A04B47",
"u c #B15D55",
"i c #C55148",
"p c #C85248",
"a c #4D6781",
"s c #516A84",
"d c #5A6C87",
"f c #546E89",
"g c #56718B",
"h c #5B748C",
"j c #5B7592",
"k c #5C7892",
"l c #537799",
"z c #54789A",
"x c #5C7B9B",
"c c #5C7FA1",
"v c #65819C",
"b c #69849E",
"n c #5C81A5",
"m c #7692AE",
"M c #7793B0",
"N c #7B97B4",
"B c #7C98B5",
"V c #8E8E8E",
"C c #849BB4",
"Z c #889FB9",
"A c #919EB1",
"S c #8CA4BD",
"D c #97A8BB",
"F c #98A9BC",
"G c #ABA9A9",
"H c #B1B1B1",
"J c #97ACC0",
"K c #9BAEC3",
"L c #9DB2C7",
"P c #9EB3C8",
/* pixels */
"NNBNBNNL<kNBSL,BBBSL,NNBBNm3PSNNN3LSBNk,LBNBNNBN",
"NNNBNNNL<gNMSF,NNBSP,SSSJSS,LSNNB3LSBNk,PBNNNBNN",
"BNBBNBNK,<2<<3,BBBSL,LPPPPP,LSNNN<,,<<,<PNBNBNNB",
"BBBNBNNL,gNNSL,SSSSL,,<<,<<,LJSJS3LSNmg<PNNBBBNB",
"BNNNNNBP,gNNSP,PLPLL<mNBNMM3LPPPP4LSCNf,PNBBNNBN",
"BBNNBNNP,hSSSK,,<<,<,mBNNNM,333<33PSSS7,PNBNBNNN",
",,,,<<,,,gLLPL,MmMSL,mNNNNN3JJNNm4LLLP7<<,,,,,,,",
",,,,<BNJ,,,,,,,NBBSL<LLLPPP,LJBBB<4<<<<<LNB,<,,,",
",,,,<NNL<avbbv,SSSSP,nnnnnn<PJZJS4PSBms<LBB,,,,,",
",,<,1NNL<jNNNM,PPPPP2nnnnnn<PPLKP3LSBNf,PNB1,2,1",
",1<,<NBL<hNNNN,nnnnn,nnnnnn<nncnn3LSSSf,PBN,,222",
"111,<NBM<CLPPL,nnnnn,nnnnnn<nnnnn3LLLLb,NBB11112",
";----<NN<lnnnn,nnnnn# #### #nccnn<nnnnl,NN,-----",
"-----<,<<cnnnn### ### ##$# ##O $##nnnnn,,,,-----",
"-;---<,<,cnnnn### 998$8999%999 ###nnnnn,1,2--5-5",
"-----<,1,,,,,,999%998$9999$999%988,,,,,,2,2-----",
"5www=5,,2LPPPAVVH%888%8888%888%889PDKPK,,,=6ww;-",
"6www66+5:nnnnhVHH%888%8899%888%899nnnnn,56w6www-",
"w6ww66t5>nnnnh888%8H8%8898%8H8%899nnnnn,6wwwwwt-",
"wwwww6r=>nncnx888%898%8888%888$899nnnnn,0wwww0t-",
"wwwwwtt=>cncnn888%888%8889%889%8H9ncnnn,wwwwwte;",
"&ttttr&5>,,,<<888%888$8898%888%8H9,,,,,,@ttttt&-",
"=&&&&&==>LLLLL888%888$8888$889$9H9PPPPP,==&&&&==",
"===5===5:nnnnn888%888%8889%888%9H9ncnnc,========",
"===ww===:nnnnn889$998%8888%889%8H8ncnnc,==ww====",
"=6wwwt==1xnxnn889$898%8898%888$988ncnnn,==wwwwr-",
"6wwwwt==1nnnnn889$98H%8898%8H9$888ncnnn,=wwwwwt-",
"wwwwwt==11,22,889%988$8888%889$988222,,,=0wwwwr-",
"ww00tt5=,LLFFPVVH%999%8999%989%988PKLFK,=0000tr-",
"&tttt&==,znknnVGH%999%9999%989%989ncnxc,=-tttr&-",
"5&&&&===1vnhnn889$998$9999$988%899ncnkc,==&&&&==",
"========,vndnnpyp%ppp$pppp$iii%iiinxndn,========",
"@@=----------5--;;;;;;-----;;;;;----------------",
"5=--;----------;qqqqqq;--;qqqqqq;--------------;",
"---------+-;---qqqqqqqu--qqqqqqqu---------------",
"--+-5----------qqqqqqqu--qqqqqqqu---------------",
"-------------;-qqqqqqqu--qqqqqqqu----;----------",
"---------5-----qqqqqqqu--qqqqqqqu---5-----------",
"---------------qqqqqqqu;-qqqqqqqu------------;--",
"----;-+--;----;qqqqqqqu--qqqqqqqu---------------",
"-------5-------qqqqqqqu-=qqqqqqqu---------------",
"5-+------------qqqqqquu--qqqqqquu---------------",
"---------------*uuuuuu*=-*uuuuuu*-------;-------",
"-O@-+-++---+----******+---******------O---------",
"............---+--+--+--@-+---+---+XXXXXX.X..XX.",
"................................................",
".....................XoooXXXX...................",
"---;--------------------------------------------"
};
