/* XPM */
static char *result[] = {
/* columns rows colors chars-per-pixel */
"48 48 58 1 ",
"  c #462329",
". c #49262C",
"X c #4B282F",
"o c #56313A",
"O c #59333D",
"+ c #5F3E3D",
"@ c #613F3C",
"# c #6A3C38",
"$ c #563E46",
"% c #5D3B44",
"& c #613C44",
"* c #3A485D",
"= c #2D4D67",
"- c #2E4E68",
"; c #324C64",
": c #304E69",
"> c #34526B",
", c #3A556E",
"< c #5F404A",
"1 c #7F4F49",
"2 c #50697F",
"3 c #814E49",
"4 c #944F48",
"5 c #84504A",
"6 c #905750",
"7 c #975954",
"8 c #9D5C56",
"9 c #B15D55",
"0 c #4D6781",
"q c #516A84",
"w c #546E89",
"e c #5A6D88",
"r c #56718B",
"t c #5B748C",
"y c #5B7592",
"u c #5C7892",
"i c #537799",
"p c #54789A",
"a c #5C7B9B",
"s c #5C7FA1",
"d c #65819C",
"f c #69849E",
"g c #5C81A5",
"h c #7692AE",
"j c #7793B0",
"k c #7B97B4",
"l c #7C98B5",
"z c #849BB4",
"x c #889FB9",
"c c #919EB1",
"v c #8CA4BD",
"b c #97A8BB",
"n c #98A9BC",
"m c #B1B1B1",
"M c #97ACC0",
"N c #9BAEC3",
"B c #9DB2C7",
"V c #9EB3C8",
/* pixels */
"kklklkkB=ullvN=lllvB=kkllkh>Vvkkl>Bvkku=Vkklkklk",
"kkklkkkB=rkjvn=kklvV=vvvvMv=Bvkkl>Bvzly=Vkkkklkk",
"lkllklkN==>:>>=kllvB=BVVVVV=Blklk=======Vllkllkl",
"lllklkkB=rklvB=vvvvB==--==-=BMMMv>Bvkhr=Vklkklkl",
"lkkkkklV=rkjvB=VVVBB-hklkjj>VVVVV,Bvzlr=Vlllkklk",
"llkklkkV=tvvvN==--=-=hkkkkj-,>-:>>Vvvv0=Vklllllk",
"====--===rBBVB=jhjvB=hkkkkk>MMllj,VVVV2=========",
"====-lkM=======kklvB-BBVVVV-BMlll=,=====Bkl=====",
"====-kkB-0dffd=vvvMV,gggggg-VMxMv,Vvlhq=Vkl-===-",
"==-=;kkB-ykkkk=VVVVV>gggggs-VVBBV>Vvljr=Vkl;==-;",
"=;-=-klB=ykkkj=gssgg-sggggg-ggssg>Bvvvr=Vkk-==-;",
";;;=-llj=zNVVV=ggggs-sggggg-gggsg>VBBBd=klk;;;;;",
"&%%%%-kk=pgggg=ggsgs%%%%%%%%gssgg-ggggi=lk-%%%%%",
"%%%%%-=-=sgggg%%$$$<%%%%%%%%$$$$%%ggggg=--=%%%%%",
"%%&%%==-=ggggg%%%%$%%%%%%%%%%%%%%%ggggg=;==%<%%<",
"%%%%%==;======%%%%%%%%%%%%%%%%%%%%=====-;-=%%%%%",
"<555$$==:VVVVc%%%%%%%%%%%%%%44%%%%VnBVB=;;$155%%",
"355553$$:sssss%%%%%74%%%%4%%44%%%%ggggg=$153555%",
"3355538<;ssssy%%%%6444%%%%%%%%%%%%ggggg=3555558%",
"5535558$*sssss%%%%4444%%%%%%%%%%%%ggggg=3555558&",
"5355588$*sssss$%%%%444%%%%44%%%%%%ggggg=3555586%",
"@88888&%;;:::>%%%%%%%%%%%%44%%%%%%======@88888&&",
"O@@@@@$$;VVVVV%%%%%%%%%%%%%%%%%&%%VBBVB=$$@@@@$$",
"<$<<$$$&;sssss%%%444%%%%%%%%44&&%%ggggg=$$$$$$$$",
"<$<11<$$;assss%%444444%%%%44449%%%ggggg=$$15<<$$",
"$15558<$;sssss%%4444449%%444449%%%ggggg=$<35157<",
"111518$$;sssss%%4444449%%444449%%%gaggg=$155158%",
"115517$$;;:;>:%%44mm499%%7444mm%%%=;====$155537%",
"555588<<;NBMNV%%&999m9#&%#99m9#&%%BNBbn=$133387%",
"@8868@$$;sssss%%&#####&&%%##&&&&%%gsgig=$+8888@%",
"<@@@@$$$:ssyss%%%%&&%%%%%%%%%%&&+%gggug=<$@@O@$$",
"$$$$$$$$:ssess%%%%&&%%%%%%%%&%%%%$gdgwg=O$$<$$$$",
"$+$$%%%%%%%%%%<%&&&%&&%%%%%&&&&&%%%%%%%&%%%%%%%%",
"+<%%%%%%%%%%%%%&444444&%%&444444&%%%%%%%%%%%%%%%",
"&%%%%%%%%O%&%%%44444449%%44444449%%%%%%%%%%%%%%%",
"%%O%&%%%%%%%%%%44444449%%44444449%%%%%%O%%%%%%%%",
"%%%%%%%%%&%%%%%44444449%%44444449%%%%%%%%%%%%%%%",
"%%%%%%%%%%%%%%%44444449%%44444449%%%%%%%%%%%%%%%",
"%%%%%%%%%<%%%%&44444449%%44444449%%%%%%%%%%%&%%%",
"%%%%%%O%%%%%%%%44444449%%44444449%%%%%%%%%%%%%%%",
"%%%%%%%%%%%%%%%44444449%$44444449%%%%&%%%%%%%%%%",
"%%O%%%%%%%%%%%%44444499%%44444499%%%%%%O%%%%%%%%",
"%&%%%%%%O%%%%%%#999999#%%#999999#%%%%%%%%%%%%%%%",
"%o%%O%%O%%%%%%O%######O$%%######%%%%%%O%%%%%%%%%",
"            %%%O%%O%%O%+O%O$%O%O%%% .. .. .     ",
"                                                ",
"                     ..XXXXX..                  ",
"&%%%%+%%%%%%%$%%%%%%%%%%%%%%%%%%%%%%%%%%%%%%%%%%"
};
