/* XPM */
static char *result[] = {
/* columns rows colors chars-per-pixel */
"48 48 72 1 ",
"  c black",
". c #521813",
"X c #462329",
"o c #49262C",
"O c #4B282F",
"+ c #56313A",
"@ c #59333D",
"# c #5F3E3D",
"$ c #722723",
"% c #762924",
"& c #782A24",
"* c #613F3C",
"= c #6A3C38",
"- c #563E46",
"; c #5D3B44",
": c #613C44",
"> c #37495F",
", c #3A485D",
"< c #2D4D67",
"1 c #2E4E68",
"2 c #324C64",
"3 c #304E69",
"4 c #34526B",
"5 c #3A556F",
"6 c #5F404A",
"7 c #5C5C5C",
"8 c #7F4F49",
"9 c #50697F",
"0 c #8D352F",
"q c #8D3530",
"w c #814E49",
"e c #944F48",
"r c #84504A",
"t c #905750",
"y c #975954",
"u c #9D5C56",
"i c #A04B47",
"p c #B15D55",
"a c #C55148",
"s c #C85248",
"d c #4D6781",
"f c #516A84",
"g c #5A6C87",
"h c #546E89",
"j c #56718B",
"k c #5B748C",
"l c #5B7592",
"z c #5C7892",
"x c #537799",
"c c #5C7B9B",
"v c #5C7FA1",
"b c #65819C",
"n c #69849E",
"m c #5C81A5",
"M c #7692AE",
"N c #7793B0",
"B c #7B97B4",
"V c #7C98B5",
"C c #8E8E8E",
"Z c #849BB4",
"A c #889FB9",
"S c #919EB1",
"D c #8CA4BD",
"F c #97A8BB",
"G c #98A9BC",
"H c #ABA9A9",
"J c #B1B1B1",
"K c #97ACC0",
"L c #9BAEC3",
"P c #9DB2C7",
"I c #9EB3C8",
"U c white",
/* pixels */
"BBVBVBBP1zBVDP<VVVDP<BBVVBM4IDBBB4PDVNz<PVBVBBBB",
"BBBVBBBP1jBNDG<BBVDI<DDDKDD<PDBBV4PDZVz<IVBBBVBV",
"VBVVBVBL<13114<VVVDP<PIIIII<PDBBV<<<1111IBVBVBVV",
"VVVBVBBP<jBBDP<DDDDP<<11<11<PKDKD4PDBMj<IVBBVVBV",
"VBBBBBVI<jBBDI<IPIPP1MBVBNN4PIIII5PDVBh<IBVBBBVB",
"VVBBVBBI<kDDDL<<11<1<MVBBBN<444144IDDD9<IVVBVBBV",
"<<<<11<<<jPPIP<NMNDP<MBBBBB4KKBBM5IIPI91<<<<<<<<",
"<<<<1VBK<<<<<<<BVVDP1PPPIII<PKVVV35111<<PBV<<<<<",
"<<<<1BBP1dbnnb<DDDDI<mmmmmm1IKAKD5IDVMf1PBV1<<11",
"<<1<2BBP1lBBBN<IIIII<mmmmmm1IIPLI4PDVNj<PBV2<<<2",
"<21<1BVP1kBBBB<mmmmm<mmmmmm1mmvmm4PDDDh1IVB<<213",
"222<1BVN1ZPIIP<mmmmm<mmmmmm1mmmmm4PPPPn1VVV212>3",
":;;;;1BB1xmmmm<mmmmm$.%$%$.$mvvmm<mmmmx<BB1;;;;;",
";;;;;1<11vmmmm$$$.$$$.$$$$.$$+.%%$mmmmm<11<;;;;;",
";:;;;1<1<vmmmm$$$.qq0%0qqq&qqq.$$$mmmmm<<1<;6;;6",
";;;;;1<2<<<<<<qq0&qq0%qqqq%qqq&q00<<<<<1212;;;;;",
"-rrr--<<2PPPPSCCJ&000&0  q&q00&0q0IFPPP<<2-8rr6;",
"rrrr88-->mmmmkCJJ&00q  UU %000&0q0mmmmm<-8wwrrr;",
"rrrrrru6>mmmml000&00q J 7U 0q0%00qmmmmm<wrrrrry;",
"rrr8rrt-,mmvmc00q&q0q7J JJU 00&0q0mmmmm<wrrrrru;",
"rrrr8uu6,mmmmm000&0007JJJJJJ0q%0J0mmmmm<wrrrrut;",
"*uuuut*6,<<<11000%00 7JJ  JJ 0&qJq<<<<<<*uuuuu#;",
"-***+*6@,PPPPP000&000 JJJ JJJq&qJ0IPPIP<--***#6-",
"-----666>mmmmm0q0&q00 7JJJJJ 0&qJ0mmmmv<-----;--",
"---rr--->mmmmm00q&000&7JJJ  0q&0Jqmvmmm<--8r66--",
"-rrrru--2cmcmmq00&0q0& 7  &00q&q00mmmmm<--8r8ry-",
"rrrrru--2mmmmm0qq&q00&00q0&q00&000mcmmm<-rrr8ru6",
"rrrrru--22<22<0q0&000&0000%000&000<<<<<<-wrrrry;",
"rrr8uu--2PPGPICCJ&qqq&0qqq&000&q00IPPFP<-8rrruy;",
"*uutu*--2vmccmCHJ&00q%qq00&q0q&000mmmcc1-#uuuu#;",
"6****---<cmjmm0q0&000%q00q&q0q&000mcmcc<--**##;-",
"-6---66#2cmgmmsis&sss&ssss&aaa%asamcmgm<--------",
"-6-#;;;;;;;;;:;;::::::;;;;;:::::;;;;;;;;;;;;;;;;",
"-##66;;;;;;;;;;:eeeeee:;;:eeeeee:;;;;;;;;;;;;;;:",
";;-;;;;;;@;:;;;eeeeeeep;;eeeeeeep;;;6;;;;;6;;;@;",
";;@;:;;;;;;;;;;eeeeeeep;;eeeeeeep;;;;;;@;;;;;;;;",
";;;;;;;;;6;;;6;eeeeeeep;;eeeeeeep;;;6;:;;;;;;;:;",
";;;;;;;;;;;;;;;eeeeeeep;;eeeeeeep;;;;;;;;;;;;;;;",
";;;;;;;;:;;;;;;eeeeeeep;;eeeeeeep;;;;;;;;;;;;;6;",
";;;;;;@;;;;;;;:eeeeeeep;;eeeeeeep;;;;;;;;;;;;;;;",
";;;;;;;;;;;;;;;eeeeeeep;;eeeeeeep;;;;;;;:;;;;;;;",
";;@;;;6;;;;;;;;eeeeeepp;;eeeeeepp;:;;;;@;;;;;;;;",
";;;;;;;;;;;;;;;=pppppp=;;=pppppp=;;;;;;;;;;;;;;;",
";@#;@;@@;;;@;;;;======;-;;======;;;;;;;;;;;;;;;;",
"XXXXXXXXXXXX;;;@;@;@;@-#@;@;;;@;;;@XXOXXOXoXXXXX",
"XXXXXXXXXXXXXXXXXXXXXXXXXXXXXXXXXXXXXXXXXXXXXXXX",
"XXXXXXXXXXXXXXXXXXXXXOOOOOOoOXXXXXXXXXXXXXXXXXXX",
":;;;;;;;;;;;;;;;;;;;;;;;;;;;;;;;;;;;;;;;;;;;;;;:"
};
