/* XPM */
static char *result[] = {
/* columns rows colors chars-per-pixel */
"48 48 64 1 ",
"  c #511713",
". c #511813",
"X c #521C19",
"o c #462329",
"O c #49262C",
"+ c #4B282F",
"@ c #56313A",
"# c #59333D",
"$ c #5F3E3D",
"% c #722723",
"& c #732823",
"* c #69302F",
"= c #613F3C",
"- c #6A3C38",
"; c #563E46",
": c #5D3B44",
"> c #613C44",
", c #37495F",
"< c #3A485D",
"1 c #2D4D67",
"2 c #2E4E68",
"3 c #324C64",
"4 c #304E69",
"5 c #34526B",
"6 c #3A556E",
"7 c #5F404A",
"8 c #7F4F49",
"9 c #50697F",
"0 c #814E49",
"q c #944F48",
"w c #84504A",
"e c #905750",
"r c #975954",
"t c #9D5C56",
"y c #B15D55",
"u c #4D6781",
"i c #516A84",
"p c #546E89",
"a c #5A6D88",
"s c #56718B",
"d c #5B748C",
"f c #5B7592",
"g c #5C7892",
"h c #537799",
"j c #5C7B9B",
"k c #5C7FA1",
"l c #65819C",
"z c #69849E",
"x c #5C81A5",
"c c #748FAB",
"v c #7692AE",
"b c #7793B0",
"n c #7B97B4",
"m c #7C98B5",
"M c #849BB4",
"N c #889FB9",
"B c #919EB1",
"V c #8CA4BD",
"C c #97A8BB",
"Z c #98A9BC",
"A c #97ACC0",
"S c #9BAEC3",
"D c #9DB2C7",
"F c #9EB3C8",
/* pixels */
"nnmnmnnD1gnmAA1nnnAD1bnbmmb5FNnmm5DVmng1Fnnnnnmn",
"nnnmnnnD1snbNA1nnnND1VAVAVm2FAnmm5DVMmg1Fnnnnmnn",
"mnmmnmnS1252451bnbAD1FFFFFF1FVmmm1111111Fmmnmnnm",
"mmmnmnnD1smmAA1AVAND11222222FVVVV5SVnvs1Fnmmnmmm",
"mnnnnnmF1pbbAF1FFFFF1cnnnbn5FFFFF6FVMmp1Fmmmbmmn",
"mmnnmnnF1hANAA1111111bnnmnn2652255FVVV91Fnmmmmnn",
"111122111pDDAA1cbbVF1cnnnmn2FVmmv6FFFF9111112111",
"11112mnA1111111nnnVF1DFFFFF2FAmmm4611111Dnm11111",
"11112nnD2ulzzl2AAVAF6kxxkkx2FVVVV6FVmvi1Fnm11111",
"11213nnD2fnnmb1FFFFF5xxxxkx2FFFFF5FVmbs1Fmm31413",
"13212nmD2dnnmb1xkxxx2kxxxxx2xxxxx5DVVVp1Fnn11444",
"33312mmb2MDFFD1xkxkk2kxxxxx2xxxxx5FDDDz1nmn33334",
">::::2nn2hxxxx1xxkkk::::::::xkxxx1xxxxh1mn1:::::",
":::::2111kxxxx::<:::::::::::;;;;::xxxxx1111:::::",
"::>::1221kxxxx::::::::::::::::::::xxxxx1311:7::7",
":::::113111111:::::::::::7::::::::111111414:::::",
";www;;131DFFFB:>::::::::::::qq::::FCDFD11,;8ww::",
"0wwwww;;3xxxkg:::::rq::::r::qq::::xxxxx1;8wwwww:",
"wwwwwwt;3kxkxf::::qqqq::::::::::::xxxxx18wwwwwt:",
"wwwwwwt;<kxkkj::::qqqq::::::::::::xxxxx18wwwwwt:",
"0wwwwtt;<kxkxk:::::qqq::::qq::::::xxxxx10wwwwte:",
"=ttttt=:<44422::::::::::::qq::::::111111=ttttt=:",
"#$====;;,FFDFF::::::::::::::::::;:DDDDD1;;====:;",
"7;77;;;:3xxxkk:::qqq::::::::qq::7:xxxxj1;;;;;;;;",
"7;78w7;;<kkkkx::qqqqqq>>::qqqqy:::xxxxx1778w77@7",
";8wwwt;;3kkkxx::qqqqqqy>:qqqqqy:7:xxxxx177ww88e7",
"888w8t;73kkkxx>:qqqqqqy>:qqqqqy:$:xxxxx1;8ww88t7",
"88w8we;;344344:>qqqq X .X   qyy:7$151111;8www8r:",
"wwwwtt773SFSDF..  X    .        ..ZZZCC1;8880tr:",
"=ttet=;;3kkjkk.X              X ..xxxhx1;$tett=:",
"7====;;;3kkfkk X   .% %%%% % X  ..xxxlx1;;==$=7;",
";;;;;;;;3kkakk&*&.&&%X%%%%X%%% %&&xxxix1;;77;;;;",
";;:$::::::>:::::>>>>>>:::::>>>>>::::::::::::::::",
"$7::7::::::::::>qqqqqq>:::qqqqqq>:::::::::::::::",
":::::::::#:::::qqqqqqqy::qqqqqqqy::::>:::7::::#:",
"::#::::::::::::qqqqqqqy::qqqqqqqy::::::#::::::::",
"::::::::>:::::>qqqqqqqy::qqqqqqqy:::::::::::::>:",
":::::::::::::::qqqqqqqy::qqqqqqqy::::7::>:::::::",
":::::::::::::::qqqqqqqy::qqqqqqqy:::::::::::::7:",
"::::::#:::::::7qqqqqqqy::qqqqqqqy::::::::::#::::",
"::::7::::::::::qqqqqqqy::qqqqqqqy:::::::::::::::",
"::@::::::::::::qqqqqqyy::qqqqqqyy::::::#::::::::",
":::::::::::::::-yyyyyy-::-yyyyyy-:::::::>::::#:7",
":@::$#:#:#::::::------:;::------::::::#:::::::::",
"oooooooooooo:::#:#:#::#:#$;#::#:#::ooOOOOOoOooOo",
"oooooooooooooooooooooooooooooooooooooooooooooooo",
"oooooooooooooooooooooOO++++++ooooooooooooooooooo",
">::::::#::::::::::::::::::::::::::::::::::::::::"
};
