/* XPM */
static char *result[] = {
/* columns rows colors chars-per-pixel */
"48 48 63 1 ",
"  c #511713",
". c #511813",
"X c #521C19",
"o c #462329",
"O c #49262C",
"+ c #4B282F",
"@ c #532524",
"# c #59333D",
"$ c #5F3E3D",
"% c #613F3C",
"& c #6A3C38",
"* c #563E46",
"= c #5D3B44",
"- c #613C44",
"; c #37495F",
": c #3A485D",
"> c #2D4D67",
", c #2E4E68",
"< c #324C64",
"1 c #304E69",
"2 c #34526B",
"3 c #3A556E",
"4 c #5F404A",
"5 c #7F4F49",
"6 c #50697F",
"7 c #814E49",
"8 c #944F48",
"9 c #84504A",
"0 c #905750",
"q c #975954",
"w c #9D5C56",
"e c #B15D55",
"r c #4D6781",
"t c #516A84",
"y c #5A6C87",
"u c #546E89",
"i c #5A6D88",
"p c #56718B",
"a c #5B748C",
"s c #5B7592",
"d c #5C7892",
"f c #537799",
"g c #54789A",
"h c #5C7B9B",
"j c #5C7FA1",
"k c #65819C",
"l c #69849E",
"z c #5C81A5",
"x c #748FAB",
"c c #7692AE",
"v c #7793B0",
"b c #7B97B4",
"n c #7C98B5",
"m c #849BB4",
"M c #889FB9",
"N c #919EB1",
"B c #8CA4BD",
"V c #97A8BB",
"C c #98A9BC",
"Z c #97ACC0",
"A c #9BAEC3",
"S c #9DB2C7",
"D c #9EB3C8",
/* pixels */
"bbnbnbbS>gbbBA>bnnBD>bbbbbx,DBvbb2DBnbd>Dnnnnnnn",
"bbbnbbbS,pbbBC>bbnBD>BBBZZB>DZbbb2SBnbd>Dnbbnnvn",
"nbnnbnbA,,,,12>bbnBD>SDDSDD>DMbnn>>>>>>1Dbnbnnbn",
"nnnbnbbS,pnbBS>BBBBD>>>1>>,>DMZZB2SBbcp>Dbbnnnbn",
"nbbbbbnD>uvvZD>DDDDS>cbbbvv2DDDDD3DBnbp>Dbnnbbbb",
"nnbbnbbD>sZBMZ>>>>>>>cbbbbb,222,22DBBBr>Dbbbbbbb",
">>>>,,>>>pSDDZ>xcbBS>cbbbbb,ZZnnc3DDDD6>>>>>1>>>",
">>>>,nbZ>>>>>>>bbnBS>SDDDDD>SZnnn13>1>>>Sbb>1>>>",
">>>>,bbS,rkllk,ZMZZD3zzzzzz,DZMBB3DBnct>Snn>>>>>",
">>,><bbS,sbbnv>DDDDD1zzzzzj,DDDDD2DBbbp>Dnn<><>1",
"><,>,bnS,abbnv>zjjzz,jzzzzz>zzjzz2SBBBp>Dnb>>111",
"<<<>,nnv,mSDDS>zzjzz,jzzzzz,zzzzz2DDSAl>nnb<1<<1",
"-====,bb,fzzzz>zzjjj========zjzzz1zzzzg>bb>=====",
"=====,>,>jzzzz==:===========****==zzzzz>>>>=====",
"==-==>>,>jzzzz========-===========zzzzh><><=4==4",
"=====>><>>>>>>========-===========>>>>>>1>>=====",
"4999**>>1SDDDN==============88====DCSDS>><*799==",
"797977**;zzzzs=====q8====q==88====zzzzz>*577999=",
"999977w4:zzzzs====8888============zzzzz>799999w=",
"999999w*:zzjjh=-==8888============zzzzz>799999w=",
"99997ww*:zzhzj=====888====88======zzzzz>99999w0=",
"%wwwww%*:>>>>>============88======>>>>>>%wwwww%=",
"*%%%%%**;DDDDD===============-====DSDDS>**%%%%=*",
"***4****;zzzjz===888========88====zzzzj>********",
"***99***;jzzzz==888888--==8888e===zzzzz>**59****",
"*5999w**<jzhzz-=888888e-=88888e===zzzzz>**7999q=",
"79999w**<jjjjz==888888e-=88888e==-zhzzz>*79999w=",
"99999w4*<<1<11==88888ee-=q888ee===><>>>>*79999w=",
"9997ww**<ASASD---eeeee&--&eeee--==SSSVS>*9997wq=",
"%wwww%**<jjhjz.X    ....        ..zjzdz>*-wwwq%=",
"4%%%%***<jzsjj X    .... .      ..zzzgg>4*%%$%**",
"********<jjijj @..   .. . X     ..zhzyz>********",
"$*-=======-=====------=====-----================",
"*=====-========-888888-===888888-===============",
"=========#=====8888888e==8888888e===============",
"==#============8888888e==8888888e===============",
"========-======8888888e==8888888e=====-=-=======",
"===============8888888e==8888888e===============",
"=====-=======4-8888888e-=8888888e===============",
"======#========8888888e==8888888e==========#====",
"===============8888888e==8888888e===============",
"==#============888888ee**888888ee===============",
"=======-=======&eeeeee&==&eeeeee&======--=======",
"=##==$*#=#======&&&&&&#*==&&&&&&======#=========",
"oooooooooooo===#==#=#===##=$==#=#==ooOOOOOoooooo",
"oooooooooooooooooooooooooooooooooooooooooooooooo",
"oooooooooooooooooooooOO++++OoOoooooooooooooooooo",
"========#=====================-================="
};
