/* XPM */
static char *result[] = {
/* columns rows colors chars-per-pixel */
"48 48 56 1 ",
"  c #462329",
". c #49262C",
"X c #4B282F",
"o c #59333D",
"O c #5F3E3D",
"+ c #613F3C",
"@ c #6A3C38",
"# c #563E46",
"$ c #5D3B44",
"% c #613C44",
"& c #37495F",
"* c #2D4D67",
"= c #2E4E68",
"- c #324C64",
"; c #304E69",
": c #34526B",
"> c #3A556E",
", c #5F404A",
"< c #7F4F49",
"1 c #50697F",
"2 c #814E49",
"3 c #944F48",
"4 c #84504A",
"5 c #905750",
"6 c #975954",
"7 c #9D5C56",
"8 c #B15D55",
"9 c #4D6781",
"0 c #516A84",
"q c #5A6D88",
"w c #56718B",
"e c #5B748C",
"r c #5B7592",
"t c #5C7892",
"y c #537799",
"u c #54789A",
"i c #5C7B9B",
"p c #5C7FA1",
"a c #65819C",
"s c #69849E",
"d c #5C81A5",
"f c #7692AE",
"g c #7793B0",
"h c #7B97B4",
"j c #7C98B5",
"k c #849BB4",
"l c #889FB9",
"z c #919EB1",
"x c #8CA4BD",
"c c #97A8BB",
"v c #98A9BC",
"b c #B1B1B1",
"n c #97ACC0",
"m c #9BAEC3",
"M c #9DB2C7",
"N c #9EB3C8",
/* pixels */
"hhjhjhhM*tjjxm*jjjxM*hhjjhf:Nxhhh:Mxjht*Njhjhhhh",
"hhhjhhhM*whgxv*hhjxN*xxxxnx*Mxhhj:Mxjjt*Njhhhjhj",
"jhjjhjhm**:;::*hjjxM*MNNNNN*Mjhjj******-Njjhjhjj",
"jjjhjhhM*whjxM*xxxxM**==**=*Mnnnx:Mxhfw*Nhjhjhhh",
"jhhhhhjN*whgxM*NNNMM=fhjhgg:NNNNN>Mxjhw*Njjjhjhh",
"jjhhjhhN*exxxm**==*=*fhhhhg=>:=;::Nxxx1*Nhjjjhhh",
"****==***wMMNM*gfgxM*fhhhhh:nnjjg>NNNN1*********",
"****=jhn*******hhjxM=MMNNNN=Mnjjj*>*-***Mhh*****",
"****=hhM=9assa*xxxnN>dddddd=Nnlnx>Nxjf0*Mhh=****",
"**=*-hhM=rhhhh*NNNNN:dddddp=NNMMN:Nxjgw*Nhj-**=-",
"*-=*=hjM*rhhhg*dppdd=pddddd=ddppd:Mxxxw*Njh=*=*-",
"---*=jjg*kmNNN*ddddp=pddddd=dddpd:MMMMs*jjh---&*",
"%$$$$=hh*udddd*ddpdp$$$$$$$$dppdd*ddddy*hh*#$$$,",
"$$$$$=*=*pdddd$$###,$$$$$$$$####$$ddddd*==*$$$$$",
"$$%$$**=*ddddd$$$$#$$$$$$$$$$$$$$$ddddd*-=-$$$$,",
"$$$$$**-******$$$$$$$$$$$$$$$$$$$$******;=-$$$$$",
"#444##--:NNNNz$$$$$$$$$$$$$$33$$$$NvMNm*;-#244%,",
"444444##;ppppp$$$$$63$$$$3$$33$$$$ddddd*#<42424$",
"4444447#-ppppr$$$$5333$$$$$$$$$$$$ddddd*2444447$",
"4444447#-ppppp$$$$3333$$$$$$$$$$%$ddddd*2444447$",
"4244277#,ppppp#$$$$333$$$$33$$$$$$ddddd*2444475$",
"+77777%#**===:$$$$$$$$$$$$33$$$$$$******+77777+$",
"#+++++##;NNMNN$$$$$$$$$$$$$$$$$%$$NMNNN*##%+OO##",
"########-ppppp$$$333$$$$$$$$33%%$#dpddp*##,#####",
"###44###-ipppp$$333333$$$$33338$$%dpddd*##<4,###",
"#44447##-ppppp$$bb33338$$33333bb$$ddddd*##24446$",
"444447##-ppppp$$b333338$$333338b$$dpddd*#244447#",
"444447##--;-:;$$3333388$$633388$$$*-****#244447$",
"444477##-mMnmN$$%88888@$$@8888@%$$NmMcM=#244276#",
"O7777+##-ppppp$$%@@@@@%%$$@@%%%%$$dpdii*#+7777+$",
",O++O###;pprpp$$$$%%$$$$$$$$$$%$$$dddti=##O+o+##",
"######,$;ppqpp$$$$%%$$%$$$$%$$$%$$didqd*#######$",
"#$%$$$$$$$$$$%$$%%%%%%$$$$$%%%%%$$$$$$$$$$$$$$$$",
"$#$$$$$$$$$$$$$%333333%$$$333333%$$$$$$$$$$$$$$$",
"$$$$$$$$$o$$$$$33333338$$33333338$$$$$$$$$$$$$$$",
"$$o$$$$$$$$%$$$33333338$$33333338$$$%$$o$$$$$$$$",
"$$$$$$$$%$$$$$$33333338$$33333338$$$$$$$$$$$$$$$",
"$$$$$$$$$$$$$$$33333338$$33333338$$$$$$$$$$$$$$$",
"$$$$$$$$$,$$$$$33333338$$33333338$$$$$$$$$$$$$$$",
"$$$$$$o%$$$$$$%33333338$$33333338$$$$$$$$$$$$$$%",
"$$$$$$$$$$$$$$$33333338$$33333338$$$$$$$$$$$$$$$",
"$$o$$#$$$$$$$$$33433388$#33333388$$$$$$o$$$$$$$$",
"$$$$$$$$$$$$$$$@888888@$$@888888@$$$$$$$$$$$$$$$",
"$oo$$$Oo$o$$$$$$@@@@@@o$$$@@@@@@$$$$$$o$$$$$$$$$",
"            $$o$$$o$o$$$o$o$$o$O$$$  .... .     ",
"                                                ",
"                    ...XX.....                  ",
"%$$$$$$$$o$$$$$$$$$$$$$$$$$$$$$$$$$$$$$$$%$$$$$$"
};
