/* XPM */
static char *result[] = {
/* columns rows colors chars-per-pixel */
"48 48 74 1 ",
"  c black",
". c #521813",
"X c #462329",
"o c #49262C",
"O c #4B282F",
"+ c #56313A",
"@ c #59333D",
"# c #5F3E3D",
"$ c #722723",
"% c #752924",
"& c #782A25",
"* c #613F3C",
"= c #6A3C38",
"- c #563E46",
"; c #5D3B44",
": c #613C44",
"> c #37495F",
", c #3A485D",
"< c #2D4D67",
"1 c #2E4E68",
"2 c #324C64",
"3 c #304E69",
"4 c #34526B",
"5 c #3A556E",
"6 c #5F404A",
"7 c #5C5C5C",
"8 c #7F4F49",
"9 c #50697F",
"0 c #8D352F",
"q c #8D3530",
"w c #814E49",
"e c #944F48",
"r c #84504A",
"t c #905750",
"y c #975954",
"u c #9D5C56",
"i c #A04B47",
"p c #B15D55",
"a c #C55148",
"s c #C85248",
"d c #4D6781",
"f c #516A84",
"g c #5A6C87",
"h c #546E89",
"j c #56718B",
"k c #5B748C",
"l c #5B7592",
"z c #5C7892",
"x c #537799",
"c c #54789A",
"v c #5C7B9B",
"b c #5C7FA1",
"n c #65819C",
"m c #69849E",
"M c #5C81A5",
"N c #748FAB",
"B c #7692AE",
"V c #7793B0",
"C c #7B97B4",
"Z c #7C98B5",
"A c #8E8E8E",
"S c #849BB4",
"D c #889FB9",
"F c #919EB1",
"G c #8CA4BD",
"H c #97A8BB",
"J c #98A9BC",
"K c #ABA9A9",
"L c #B1B1B1",
"P c #97ACC0",
"I c #9BAEC3",
"U c #9DB2C7",
"Y c #9EB3C8",
"T c white",
/* pixels */
"CCZCZCCU<zCCGI<ZZZGY<CCVZZN1UDVCC4YGCCz<YZZZCCCC",
"CCCZCCCU<jCCDP<CCZGY<GPGPPP<UPCCZ4UGZCz<YCCCCZCZ",
"ZCZZCZCI<<4<44<ZZZGU<YYYPYY<YZCZV<<<<<<<YZZCZCZZ",
"ZZZCZCCU<jCCGU<GGGGY<<<<<<1<YPGPP4IGCVj<YZZCZZCZ",
"ZCCCCCZY<hCCPU<YYYUU<BCCCVV4YYYYY5YGSCj<YZZZCCZC",
"ZZCCZCCY<xGGPP<<<<<<<BCCCCV1541444YGGGd<UCZCCCCC",
"<<<<11<<<hUUPP<VBCGU<VCCCCC4YGZCB5YYYY9<<<<<<<<<",
"<<<<1ZCP<<<<<<<VCZGU<IYYYYY1YPZZZ<5<<<<<UZZ<<<<<",
"<<<<1CCU1dnnmn<PPPPY1MMMbbM1YPDGG5YGZBf<YCZ<<<<<",
"<<1<2CCY1lZZZV<YPUUY1MMMMbM1YYYYY4YGCCj<YZZ3<<<2",
"<21<1CZU<kCCCV<MbbMM1MMMMMM1MMbMM4UGGGj<YZC<<3<2",
"222<1CZV<SIYUU<MMMMM<MMMMMM1MMMMM4YUUIm<CZC22224",
":;;;;1CC<cMMMM<MMbbb$.$$$$.$MbbbM<MMMMx<CC<;;;;;",
";;;;;1<1<bMMMM$%$X$$$.$$$$.$@$.$$$MMMMM<<<<;;;;;",
";:;;;1<1<MMMMM%%$.qqq&qqqq&qqq.$%$MMMMM<2<2;;;;6",
";;;;;1<2<<1<<<qqq$qqq&qqqq&qqq&qqq<<<<<<3<<;6;;;",
"-rrr--<<2UUUYFAAL%qq0%     q00&0q0UHUUU<<2-8rr;;",
"rrrr88#-2MMMMkALL%qqq 7LLTT 00&0q0MMMMM<-8rwrrr;",
"rrrrrru6,MMMMl00q%q0 7L   7T 0%00qMMMMM<wrrrrru:",
"rrrrr8u-,MMbMv00q%q0 7L   7T 0&0qqMMMMM<rrwrrru;",
"rrrrruu-,MMvMM000%q 7LLLLLLLT %0L0MMMMM<wrrrrut;",
"#uuuuu#-,<<<<<000%0 7LLLLLLLT &qLq<<<<<<*uuuuu*;",
"-***#*#->UUUUU00q%q 7LLL  LLT &0L0YUUYU<--****-;",
"---6---62MMMMM0q0%q 7LLL  LLL &qL0MMMMb<--------",
"--68w66->MMMMM00q&q 7LLL  LLL %0LqMbMMM<--wr----",
"-8rrwu--2MMvMMq00&q 7LLLLLLLL &qqqMMMMM<--wrrwy-",
"wrrr8y--2vMMMM0qq&q 7LLLLLLLL &0qqMvMMM<-rrrrru;",
"wwrrry+6><<22<0q0&qq         0&qqq<2<<<<-wrrrru;",
"rr88uu662UUIJUAAL&qqq&0qqq&00q&000UUUHU<-wrrwuy;",
"*uutu*662MMzMMAKL&qqq%qq00&q0q&000MbMvv<-*uuuu*;",
"-***----2vMkMM000&qq0%q00q%q0q&000MMMzv<--*:@*--",
"--------2vMgMMsis&sss&ssss&aaa%aaaMvMhM<---6----",
"##6#;;;;;;;;;:;;::::::;;:;;::::::;;;;;;;;;;;;;;;",
"6-;-;;;;;;;;;;;:eeeeee:;;;eeeeee:;;;;;;;;;;;:;;;",
";;;;;:;;;;;;;;;eeeeeeep;;eeeeeeep;;;;;;;;;;;;;;;",
";;@;;;;;;;;;;;;eeeeeeep;;eeeeeeep;;;;;;;;;;;;;;;",
";;;;;;;;;;;;;;;eeeeeeep;;eeeeeeep;;;6;;;;;;;;;;;",
";;;;:;;;6;;;;;;eeeeeeep;;eeeeeeep;;;;;;;;;;;;;;;",
";;;;;;6;;;;;;::eeeeeeep;;eeeeeeep;;;;;;;;;;;;;;;",
";;;;;;@;;;;;;;;eeeeeeep;;eeeeeeep;;;;;;;;;;;;;;:",
"6;;;;;;;;;;;;;;eeeeeeep;;eeeeeeep;;;;;;;:;;;;;;;",
";;@;:6;;;;;;;;;eeeeeepp;;eeeeeepp;;;;;;+;;;;;;;;",
";;;;;;;;;;;;;;;=pppppp=;;=pppppp=:;;;;;;;;;;;;;;",
"#+;;@;@@;;;;;;;;======-@;;======;;;;;;;;;;;;;;;;",
"XXXXXXXXXXXX;;@;;;@;@;;#@;@;;;@;;;;XoooXoXoXoXoX",
"XXXXXXXXXXXXXXXXXXXXXXXXXXXXXXXXXXXXXXXXXXXXXXXX",
"XXXXXXXXXXXXXXXXXXXXXoOOOOooooXXXXXXXXXXXXXXXXXX",
";;;;;;;;;@;;;;;;;;;;;;;;;;;-;;:;;;;;;;;;;;;;;;;;"
};
