/* XPM */
static char *result[] = {
/* columns rows colors chars-per-pixel */
"48 48 72 1 ",
"  c black",
". c #521813",
"X c #462329",
"o c #49262C",
"O c #4B282F",
"+ c #56313A",
"@ c #59333D",
"# c #5F3E3D",
"$ c #722723",
"% c #762924",
"& c #782A24",
"* c #613F3C",
"= c #6A3C38",
"- c #563E46",
"; c #5D3B44",
": c #613C44",
"> c #37495F",
", c #3A485D",
"< c #2D4D67",
"1 c #2E4E68",
"2 c #324C64",
"3 c #304E69",
"4 c #34526B",
"5 c #3A556F",
"6 c #5F404A",
"7 c #5B5B5B",
"8 c #7F4F49",
"9 c #50697F",
"0 c #8D352F",
"q c #8D3530",
"w c #814E49",
"e c #944F48",
"r c #84504A",
"t c #905750",
"y c #975954",
"u c #9D5C56",
"i c #A04B47",
"p c #B15D55",
"a c #C55148",
"s c #C85248",
"d c #4D6781",
"f c #516A84",
"g c #5A6C87",
"h c #546E89",
"j c #56718B",
"k c #5B748C",
"l c #5B7592",
"z c #5C7892",
"x c #537799",
"c c #5C7B9B",
"v c #5C7FA1",
"b c #65819C",
"n c #69849E",
"m c #5C81A5",
"M c #7692AE",
"N c #7793B0",
"B c #7B97B4",
"V c #7C98B5",
"C c #8E8E8E",
"Z c #849BB4",
"A c #889FB9",
"S c #919EB1",
"D c #8CA4BD",
"F c #97A8BB",
"G c #98A9BC",
"H c #ABA9A9",
"J c #B1B1B1",
"K c #97ACC0",
"L c #9BAEC3",
"P c #9DB2C7",
"I c #9EB3C8",
"U c white",
/* pixels */
"BBVBVBBP1zBVDP<VVVDP<BBVVBM4IDBBB4PDVBz<IVVVBBBB",
"BBBVBBBP1jBNDG<BBVDI<DDDKDD<PDBBV4PDVVz<IVVVVVBB",
"VBVVBVBL<13114<VVVDP<PIIIII<PDBBB<<<<<<<IBVBVBVV",
"VVVBVBBP<jBBDP<DDDDP<<11<11<PKDKD4PDBMj<IVBBBBBV",
"VBBBBBVI<jBBDI<IPIPP1MBVBNN4PIIII5PDZVh<IBVVBBVV",
"VVBBVBBI<kDDDL<<11<1<MVBBBN<444144IDDDd<IBVBVVVV",
"<<<<11<<<jPPIP<NMNDP<MBBBBB4KKBBM5IIII9<<<<<<<<<",
"<<<<1VBK<<<<<<<BVVDP1PPPIII<PKVVV35<<<<<LBV<<<<<",
"<<<<1BBP1dbnnb<DDDDI<mmmmmm1IKAKD5IDVMf<IBV1<<<<",
"<<1<2BBP1lBBBN<IIIII<mmmmmm1IIPLI4IDVNj<IBV2<3<2",
"<21<1BVP1kBBBB<mmmmm<mmmmmm1mmvmm4PDDDj<IBB<<332",
"222<1BVN1ZPIIP<mmmmm<mmmmmm1mmmmm4IPPPn<VVB22223",
":;;;;1BB1xmmmm<mmmmm$.$$%$.$mvvmm<mmmmx<BB<-;;;;",
";;;;;1<11vmmmm$$$.$$$.$%$$.$$+.%$$mmmmm<11<;;;;;",
";:;;;1<1<vmmmm$$$.qq0%0qqq&qqq.$$%mmmmm<2<2;;6;6",
";;;;;1<2<<<<<<qq0&qq0%qqqq%qqq&qqq<<<<<<3<3;;;;;",
"-rrr--22<PIIISCCJ&000&0q0q&q00&000IFLIL<<<-8rr:;",
"rrrrrr--2mmmmkCJJ&00q&0qqq%000&0q0mmmmm<68r8rrr;",
"rrrrrru-,mmmml000&000%  q0&0q0%00qmmmmm<8rrrrru;",
"rrrrrru-,vmvmz000&00q  UU &000&0qqmmmmm<wrrrrwu;",
"rrrrruu-,mmvmm000&q00J JJJ%00q&0Jqmmmmm<wrrrrut:",
"*uuuuu*-,2<<<<000&0007JJ JJ000&0Jq<<<<<<*uuuuu*;",
"-*****-->PIPPP00q%000 JJJJ 00q%qJqIPIII<--****--",
"--------2mmmmm0q0&q00&7JJJ&000&qJqmvmmv<--------",
"---rr--->mmmmm00q&000&07 0&000&0Jqmvmmm<--8r6---",
"-wrrru--2vmcmmq00&0q0&00q0&00q&q00mvmmm<--wrrry;",
"rrrrru-->vmmmm0qq&q00&00q0&000&00qmmmmm<-wrrrru-",
"rrrrru--2<<22<0q0&000&0q00&000&0q0<2<<<<-wrrrry;",
"rrrruu--2PPLPICCJ&qqq&qq00&00q&000PLIGL<-wrrwuy;",
"*uuuu*-62vmzmmCHJ&00q&qq00&00q&000mvmzv<-*uuuu*;",
"-****---<cmkcm000&00q&qq00&00q&0qqmvmcv<--**@#--",
"--------<cmgmmsis&sas&aasa&aaa&aaamcvgm<-------;",
";;;;;;;;;;;;;;;;::::::;;;;;:::::;;;;;;;;;;;;;;;;",
";;;:;;;;;;;;;:;:eeeeee:;;:eeeeee:;;;;;;;;;;;;;;:",
";;;;;;;;;@;;;;;eeeeeeep;;eeeeeeep;;;;;;;;;;;;;;;",
";;@;;;;;;;:;;;;eeeeeeep;;eeeeeeep;;;;;;;;;;;;;;;",
";;;;;;;;:;;;;:;teeeeeep;;eeeeeeep:;;;;;;;;;;;;;;",
";;;;;;;;;;;;;;:eeeeeeep;;eeeeeeep;;;6;;;;;;;;;;;",
";;;;;;;;;;;;;;;eeeeeeep;;eeeeeeep;;;;;;;;;;;;;;;",
";;;;:;;;;;;;;:;eeeeeeep;;eeeeeeep;;;;;;;;;;;;;:;",
";;;;;;;;;;;;;;;eeeeeeep;;eeeeeeep;;;;;;;;;;;;;;;",
";;@;;;;;;;;;;;;eeeeeepp-;eeeeeepp;;;;;;;;;;;;;;;",
";;;;:;;;;;;;;;;=pppppp=;;=pppppp=;;;;;;;:;;;;;;;",
";@@;;;@+;;;;;;;;======@;;;======;;;;;;+;;;;;;;;;",
"XXXXXXXXXXXX;;;@;;@;;@;#@;@-;;@;;;;XXooooooXXooX",
"XXXXXXXXXXXXXXXXXXXXXXXXXXXXXXXXXXXXXXXXXXXXXXXX",
"XXXXXXXXXXXXXXXXXXXXXoOOOOOoooXXXXXXXXXXXXXXXXXX",
":;;;;;;;;;;;;;;;;;;;;;;;;;;;;;;;;;;;;;;;;;;;;;;;"
};
