/* XPM */
static char *result[] = {
/* columns rows colors chars-per-pixel */
"48 48 68 1 ",
"  c #521813",
". c #462329",
"X c #49262C",
"o c #4B282F",
"O c #56313A",
"+ c #59333D",
"@ c #5F3E3D",
"# c #722723",
"$ c #762924",
"% c #782A24",
"& c #613F3C",
"* c #6A3C38",
"= c #563E46",
"- c #5D3B44",
"; c #613C44",
": c #37495F",
"> c #3A485D",
", c #2D4D67",
"< c #2E4E68",
"1 c #324C64",
"2 c #304E69",
"3 c #34526B",
"4 c #3A556F",
"5 c #5F404A",
"6 c #7F4F49",
"7 c #50697F",
"8 c #8D352F",
"9 c #8D3530",
"0 c #814E49",
"q c #944F48",
"w c #84504A",
"e c #905750",
"r c #975954",
"t c #9D5C56",
"y c #A04B47",
"u c #B15D55",
"i c #C55148",
"p c #C85248",
"a c #4D6781",
"s c #516A84",
"d c #546E89",
"f c #5A6D88",
"g c #56718B",
"h c #5B748C",
"j c #5B7592",
"k c #5C7892",
"l c #537799",
"z c #5C7B9B",
"x c #5C7FA1",
"c c #65819C",
"v c #69849E",
"b c #5C81A5",
"n c #7692AE",
"m c #7793B0",
"M c #7B97B4",
"N c #7C98B5",
"B c #8E8E8E",
"V c #849BB4",
"C c #889FB9",
"Z c #8CA4BD",
"A c #97A8BB",
"S c #98A9BC",
"D c #ABA9A9",
"F c #B0B0B0",
"G c #97ACC0",
"H c #9BAEC3",
"J c #9DB2C7",
"K c #9EB3C8",
/* pixels */
"MMNMNMMJ<kMNZJ,NNNZJ,MMNNMn3KZMMM3JZNMk,KNMNMMMM",
"MMMNMMMJ<gMmZS,MMNZK,ZZZGZZ,JZMMN3JZVMk,KNMNMNMM",
"NMNNMNMH,<2<<3,NNNZJ,JKKKKK,JZMMN,,,,,,,KMNMNNNN",
"NNNMNMMJ,gMMZJ,ZZZZJ,,<<,<<,JGZGZ3JZmng,KMMMMNMN",
"NMMMMMNK,gMMZK,KJKJJ<nMNMmm3JKKKK4JZNMg,KMNNMMNN",
"NNMMNMMK,hZZZH,,<<,<,nNMMMm,333<33KZZZ7,KMNMNNNN",
",,,,<<,,,gJJKJ,mnmZJ,nMMMMM3GGMMm4KKKK7,<,,,,,,,",
",,,,<NMG,,,,,,,MNNZJ<JJJKKK,JGNNN24,,,,,JMM,,,,,",
",,,,<MMJ<acvvc,ZZZZK,bbbbbb<KGCGZ4KZNns,KNN,,,,,",
",,<,1MMJ<jMMMm,KKKKK2bbbbbb<KKJHK3KZNMg,JNN1,1,1",
",1<,<MNJ<hMMMM,bbbbb,bbbbbb<bbxbb3JZZZd,KNM,,,22",
"111,<MNm<VJKKJ,bbbbb,bbbbbb<bbbbb3JJJJv,NNM12112",
";----<MM<lbbbb,bbbbb# ##$# #bxxbb<bbbbl,MM,----5",
"-----<,<<xbbbb### ### #### ##O $##bbbbb,,,,-----",
"-;---<,<,xbbbb### 998$8999%999 ###bbbbx,2,2----5",
"-----<,1,,,,,,999%998$9999$999%998,,,,,,1,1--5--",
"=www==,,1JJJJZBBF%888%8888%888%898JAJJJ,,1=6ww--",
"0www66=5:bbbzhBFF%888$8899%888%898bbbbb,=6w0www-",
"wwww60t5>bbbbj888%88F%8898%F88%889bbbbb,0wwwwwt-",
"wwwww0e=>bbbbz888%888F8898F888%899bbbbb,0wwwwwt-",
"www00tt5>bbbbb888%888%8888%888%8F8bbbbb,0wwwwte-",
"&ttttr&5>,,,,<888%888$8F98%888%8F9,,,,,,&ttttt&-",
"=&&&@@=@>JJJJJ888%888%88F8$889$9F9KJJKJ,==&&&&-=",
"===5===5:bbbbb898%888%8889%888%9F8bbbbx,========",
"===ww===:bbbbb889%898F8888%F88%8F9bbbbb,==6w5===",
"=6wwwt==1zbzbb988%89F%8898%8F8%988bxbbb,==0wwwr=",
"0wwwwt==:bbbbb889%988%8898%988$889bzbbb,=0wwwwt-",
"0wwwwt==:,,2,,888%888%8888%888%99922,,,,=0wwwwr-",
"www0tt5=1JJHHKBBF%999%8999$989%988KHJAH,=0ww0tr-",
"&tttt&==,zbkbbBDF%999%9988%988%899bxbzx,=&tttt&-",
"5&&&&===1zbhbb999%998$9889%989%899bxbkx,==@&@@==",
"========1bbsbbpyp%ppp$pppp$iii$iiibzbfb,=======-",
"@=--------------;;;;;;-----;;;;;-------5--------",
"5@--------;----;qqqqqq;---qqqqqq;-----------;---",
"-----;---+-----qqqqqqqu--qqqqqqqu---------------",
"--+--------5---qqqqqqqu--qqqqqqqu;-----+--------",
"--------;------qqqqqqqu--qqqqqqqu---------------",
"------------;--qqqqqqqu--qqqqqqqu---------------",
"------5--------qqqqqqqu--qqqqqqqu--5--5---------",
"------+--5---;5qqqqqqqu--qqqqqqqu--------------;",
"---------------qqqqqqqu--qqqqqqqu-------;-------",
"-5+------------qqqqqquu-5qqqqqquu---------------",
"--------+------*uuuuuu*--*uuuuuu*---------------",
"-++---@+--------******+-@-******------O---------",
"............--+-+-@=-+-+=+-+-+-+--OX.XXXXX..XXX.",
"................................................",
"....................XoooooooXX..................",
"---------+--------------------;-----------------"
};
