/* XPM */
static char *result[] = {
/* columns rows colors chars-per-pixel */
"48 48 69 1 ",
"  c #511713",
". c #511813",
"X c #462329",
"o c #49262C",
"O c #4B282F",
"+ c #56313A",
"@ c #59333D",
"# c #5F3E3D",
"$ c #722723",
"% c #742924",
"& c #782A24",
"* c #613F3C",
"= c #6A3C38",
"- c #7A3837",
"; c #563E46",
": c #5D3B44",
"> c #613C44",
", c #37495F",
"< c #3A485D",
"1 c #2D4D67",
"2 c #2E4E68",
"3 c #324C64",
"4 c #34526B",
"5 c #3A556E",
"6 c #5F404A",
"7 c #7F4F49",
"8 c #50697F",
"9 c #8D352F",
"0 c #8D3530",
"q c #814E49",
"w c #944F48",
"e c #84504A",
"r c #905750",
"t c #975954",
"y c #9D5C56",
"u c #B15D55",
"i c #4D6781",
"p c #516A84",
"a c #546E89",
"s c #5A6D88",
"d c #56718B",
"f c #5B748C",
"g c #5B7592",
"h c #5C7892",
"j c #537799",
"k c #54789A",
"l c #5C7B9B",
"z c #5C7FA1",
"x c #65819C",
"c c #69849E",
"v c #5C81A5",
"b c #748FAB",
"n c #7692AE",
"m c #7793B0",
"M c #7B97B4",
"N c #7C98B5",
"B c #8D8D8D",
"V c #849BB4",
"C c #889FB9",
"Z c #919EB1",
"A c #8CA4BD",
"S c #97A8BB",
"D c #98A9BC",
"F c #ADACAC",
"G c #B1B1B1",
"H c #97ACC0",
"J c #9BAEC3",
"K c #9DB2C7",
"L c #9EB3C8",
/* pixels */
"MMNMNMMK1fMMAK1MMNAL1mMNNNb4LAmmM4LAMMh1LNMNMMMM",
"MMMNMMMK2dMmAD2MMNAL2AAAHHA1LHMNM4KANMh1LNMMMNMN",
"NMNNMNMJ2242242MMMAL1KLLJLL1LCMNM2112112LMNMNMMN",
"NNNMNMMK2dMMAK2AAAAL11221111LCHHA4KAMnd2LMMMNNMN",
"NMMMMMNL1dMMAK2KLLLL2nMMMmm4LLLLL5LAVMa1LMNMMMNM",
"NNMMNMML1fAAAH2211211nMMMMM2444444LAAA81LMMMNMMM",
"111122111dJKKK2mnnAL1nMMMMM2HHMMn5LKLL8211112111",
"11112NMH2221212MNNAL2KKKLLL1KHNNM2522222KMM22211",
"11112MMK2ixxcx2AAHHL5vvvvvv2LHNHA5LANnp2LMN21122",
"11213MML2gMNMm2LLLLL2vvvvvv2LLLLL4LANna1LMN31123",
"13212MNK1fNMNM1vzzvv2zvvvvv2vvzvv4KAAAa2LMM21123",
"33312MNm1VJLLL1vzzvv2zvvvvv2vvvvv4LKKKc2MNM33332",
">::::2MM1kvvvv1vvzzz::>:>:::vzzvv2vvvvj1MM1:::::",
":::::2121zvvvv::<:::::::::::;;;;::vvvvv1111:::::",
":>:::1121vvvvv::::::::::::::::::::vvvvv1312:6::6",
":::::213112111::::::::::::::::::::1111113116::::",
"6eee;6333KLKLZ::::::::::::::ww::::LDKLK213;qee::",
"7eee7e;;3vvvvg:::::tw:::>t::ww::::vvvvv1;7qqeee:",
"qqeeeqy;<vvvvf::::wwww::::::::::::vvvvv1qeeeeey:",
"eeeeeqy;<vvzvl6:::wwww::::::::::::vvvvv1qeeeeey6",
"eqeeeyy;<zvzvl:::::tww:::>ww:::::;vvvvv1eeeeeyr:",
"*yyyyy*;<22222::::::    .   :::>::111112*yyyyy#:",
"@*****;;,KKKLL..        ..        KKKLK2;;***#;:",
"6;66;;;;,vvvvv..        ..        vvvvz1;;;;;:;;",
"6;67e6;;,zvvvv......$.$$%$ $ .. ..vzvvz1;;ee;;;;",
";7eeey;;3zvlvv$$&.$$%.$$$$ %$$ %$$vzvvv2;;qeeqt:",
"777e7y;63zvzvv$$$.099&9900&000 $$&vzvvv2;eeeeey:",
"777eer;;332331009&999&9900%000&000112211;qeeeey:",
"eeeeyy663JLJKLBBG&900&9000&000&099KJLSJ1;7eeeyt:",
"*yyry*;;2zvhlvBFG&999&0090$000&099zzvll2;>yytt*:",
"6****;;;3zvfvv909&999&0990&000&000vzvhz2;;****;;",
";;;;;;;;3lvpvv9-9&099&0900$000&0G0vlvsv1;;;;;;;;",
";6#;:::::::::6::>>>>>>:::::>>>>>>:::::::::::::::",
"#6:;:::::::::::>wwwwww>:::wwwwww>:::::::::::::::",
":::::::::@:::::wwwwwwwu::wwwwwwwu:::::::::::::::",
"::+:>::::::>:::wwwwwwwu::wwwwwwwu:::::::::::::::",
":::::::::::::>:wwwwwwwu::wwwwwwwu:::::::::::::::",
"::>:::::6::::::wwwwwwwu::wwwwwwwu:::::::::::::>:",
":::::::::::::::wwwwwwwu::wwwwwwwu:::::::::::::::",
"::::::@::::::>:wwwwwwwu::wwwwwwwu:::::::::::::::",
"6::::::::::::::wwwwwwwu::wwwwwwwu:::::::::::::::",
"::@::::::::::::wwwwwwuu:6wwwwwwuu:::::::::::::::",
":::::::::::::::=uuuuuu=:;=uuuuuu=::::::>>:::::::",
":+@:::#@:@::::::======@:#:======::::::@:::::::::",
"XXXXXXXXXXXX::@:::@::#;@:@:@:@:@@::XXoooooXXXXXX",
"XXXXXXXXXXXXXXXXXXXXXXXXXXXXXXXXXXXXXXXXXXXXXXXX",
"XXXXXXXXXXXXXXXXXXXXXoOOOOOOooXXXXXXXXXXXXXXXXXX",
":::>:::::@::::::::::::::::::::::::::::::::::::::"
};
