/* XPM */
static char *result[] = {
/* columns rows colors chars-per-pixel */
"48 48 56 1 ",
"  c #462329",
". c #49262C",
"X c #4B282F",
"o c #56313A",
"O c #59333D",
"+ c #5F3E3D",
"@ c #613F3C",
"# c #6A3C38",
"$ c #563E46",
"% c #5D3B44",
"& c #613C44",
"* c #37495F",
"= c #2D4D67",
"- c #2E4E68",
"; c #324C64",
": c #304E69",
"> c #34526B",
", c #3A556E",
"< c #5F404A",
"1 c #7F4F49",
"2 c #814E49",
"3 c #944F48",
"4 c #84504A",
"5 c #905750",
"6 c #975954",
"7 c #9D5C56",
"8 c #B15D55",
"9 c #4D6781",
"0 c #516A84",
"q c #5A6C87",
"w c #5A6D88",
"e c #56718B",
"r c #5B748C",
"t c #5B7592",
"y c #5C7892",
"u c #537799",
"i c #54789A",
"p c #5C7B9B",
"a c #5C7FA1",
"s c #65819C",
"d c #69849E",
"f c #5C81A5",
"g c #7692AE",
"h c #7793B0",
"j c #7B97B4",
"k c #7C98B5",
"l c #849BB4",
"z c #889FB9",
"x c #919EB1",
"c c #8CA4BD",
"v c #98A9BC",
"b c #B1B1B1",
"n c #97ACC0",
"m c #9BAEC3",
"M c #9DB2C7",
"N c #9EB3C8",
/* pixels */
"jjkjkjjM=ykkcm=kkkcM=jjkkjg>Ncjjj>Mckjy=Njjkjjkj",
"jjjkjjjM=ejhcv=jjkcN=ccccnc=Mcjjj>Mcljy=Njjjjkjj",
"kjkkjkjm==>:>>=jkkcM=MNNNNN=Mkjkk=======Nkkjkjkk",
"kkkjkjjM=ejkcM=ccccM==--==-=Mnnnc>Mcjge=Njkjjkjk",
"kjjjjjkN=ejhcM=NNNMM-gjkjhh>NNNNN,Mclje=Nkkkjjkj",
"kkjjkjjN=rcccm==--=-=gjjjjh-,>-:>>Nccc9-Njkkkjjk",
"====--===eMMNM=hghcM=gjjjjj>nnkkh,NNNN9=========",
"====-kjn=======jjkcM-MMNNNN-Mnkkk=,=====Mjk=====",
"====-jjM-9sdds=cccnN,ffffff-Nnznc,Nckg0=Mjk=====",
"==-=;jjM-tjjjj=NNNNN>fffffa-NNMMN>Mclhe=Mkk;===;",
"=;-=-jkM=tjjjh=faaff-afffff-ffaaf>Mccce=Nkk==:==",
";;;=-kkh=lmNNN=ffffa-afffff-fffaf>MMMmd=kkk;:;*:",
"&%%%%-jj=iffff=ffafa%%%%%%%%faaff=ffffu=kj=%%%%%",
"%%%%%-=-=affff%%$$$<%%%%%%%%$$$$%%fffff====%%%<%",
"%%&%%==-=fffff%%%%$%%%%%%%%%%%%%%%fffff=;==%%%%<",
"%%%%%==;======%%%%%%%%%%%%%%%%%%%%======:=;%%%%%",
"$444$$;;>NNNNx%%%%%%%%%%%%%%33%%%%NvMNM==;$144%<",
"444442$$:aaaaa%%%%%63%%%%3%%33%%%%fffff=$122444%",
"4444447$;aaaat%%%%5333%%%%%%%%%%%%fffff=2444447%",
"4444447$;aaaaa%%%%3333%%%%%%%%%%%%fffff=2444447%",
"4444277$<aaaaa$%%%%333%%%%33%%%%%%fffff=2444475&",
"@77777&$==--->%%%%%%%%%%%%33%%%%%%======@77777&%",
"$@@@@@$$:NNMNN%%%%%%%%%%%%%%%%%&%%NNNNN=$$@@@@$%",
"$$$$$$$$;aaaaa%%%333%%%%%%%%33&&%%faffa=$$$$$$$$",
"$$$44$$$;paaaa%%333333%%%%33338%%%fafff=$$44%$$$",
"$44447$$;aaaaa%%3333338%%333338%%%fafff=$$24446$",
"444447$$;aaaaa%%33b3338%%3333b8%%%fafff=$444447$",
"444447$$;;:;>:%%3333388%%633388%%%::====$244447%",
"444477$$;mMnmN%%&88888#%%#8888#&%%NmNvm=$144276%",
"+7777@$$;aaaaa%%&#####&&%%##&&&&%%fafya=$@7776@%",
"$+@@+$$$:aataa%%%%&&%%%%%%%%%%&%%%fafpa=$$@@O+%$",
"<$$$$$<%:aawaa%%%&&&%%%%%&%%%%%&%%fpaqf=$$$$$$$$",
"$$&%%%%%%%%%%&%%&&&&&&%%%%%&&&&&%%%%%%%%%%%%%%%%",
"%%%%%%%%%%%%%%%&333333&%%&333333&%%%%%%%%%%%%%%%",
"%%%%%%%%%O%%%%%33333338%%33333338%%%%%%%%%%%%%%%",
"%%O%%%%%%%%&%%%33333338%%33333338%%%%%%%%%%%%%%%",
"%%%%%%%%&%%%%%%33333338%%33333338%%%%%%%%%%%%%%%",
"%%%%%%%%%%%%%%%33333338%%33333338%%%%%%%%%%%%%%%",
"%%%%%%%%%<%%%%%33333338%%33333338%%%%%%%%%%%&%%%",
"%%%%%%O&%%%%%%&33333338%%33333338%%%%%%%%%%%%%%%",
"%%%%%$%%%%%%%%%33433338%%33333338%%%%%%%%%%%%%%%",
"%%O%%%%%%%%%%%%33333388%$33333388%%%%%%o%%%%%%%%",
"%%%%%%%%%%%%%%%#888888#%%#888888#&%%%%%%%%%%%o%%",
"%OO%%%+O%O%%%%%%######O%%%######%%%%%%%%%%%%%%%%",
"            %%O%%%%OO%%%O%O%%O%+%%%  . ...  . . ",
"                       .                        ",
"                     ..X......                  ",
"&%%%%%%%%O%%%%%%%%%%%%%%%%%%%%%%%%%%%%%%%&%%%%%%"
};
