/* XPM */
static char *result[] = {
/* columns rows colors chars-per-pixel */
"48 48 66 1 ",
"  c #511713",
". c #511813",
"X c #462329",
"o c #49262C",
"O c #4B282F",
"+ c #56313A",
"@ c #59333D",
"# c #5F3E3D",
"$ c #722723",
"% c #752924",
"& c #782A24",
"* c #613F3C",
"= c #6A3C38",
"- c #7A3837",
"; c #563E46",
": c #5D3B44",
"> c #613C44",
", c #37495F",
"< c #3A485D",
"1 c #2D4D67",
"2 c #2E4E68",
"3 c #324C64",
"4 c #304E69",
"5 c #34526B",
"6 c #3A556F",
"7 c #5F404A",
"8 c #7F4F49",
"9 c #50697F",
"0 c #8D352F",
"q c #8D3530",
"w c #814E49",
"e c #944F48",
"r c #84504A",
"t c #905750",
"y c #975954",
"u c #9D5C56",
"i c #B15D55",
"p c #4D6781",
"a c #516A84",
"s c #546E89",
"d c #56718B",
"f c #5B748C",
"g c #5B7592",
"h c #5C7892",
"j c #537799",
"k c #54789A",
"l c #5C7B9B",
"z c #5C7FA1",
"x c #65819C",
"c c #69849E",
"v c #5C81A5",
"b c #7692AE",
"n c #7793B0",
"m c #7B97B4",
"M c #7C98B5",
"N c #8E8E8E",
"B c #849BB4",
"V c #889FB9",
"C c #8CA4BD",
"Z c #97A8BB",
"A c #98A9BC",
"S c #B0B0B0",
"D c #97ACC0",
"F c #9BAEC3",
"G c #9DB2C7",
"H c #9EB3C8",
/* pixels */
"mmMmMmmG1hmMCF1mMMCH1mmMMmb5HCmmm5HCMmh1HMmMmmmm",
"mmmMmmmG1dmnCA1mmMCH1CCCDCC1HCmmm5GCMmh1HmmmmMmM",
"MmMMmMmF1444551mmMCH1HHHGHH1FCmmm1111111HmMmMMmM",
"MMMmMmmG1dMmCG1CCCCH11111141FDCDC5GCmbf1HMmmMMmM",
"MmmmmmMH1dmmCG1HHHHG1bmmmnn5HHHHH6HCBms1HmMMmmmm",
"MMmmMmmH1fCCCF1111111bmmmmm2652555HCCC91HmmmMmmm",
"111122111dGGHG1nbnCH1bmmmMm2DDMMn6HHHH9141112211",
"11112MmD1111111mmMCH1GHHHHH1GDMMM1611111Gmm12211",
"11112mmG2pxccx1CVDDH6vvvvvv2HDVDC6HCMba1HmM11111",
"11213mmG2gmmmm1HHHHH4vvvvvz2HHHDH5HCMnd1HMM31113",
"13212mMG1gmmmn1vzzvv4zvvvvv2vvzvv5GCCCs1HMm11413",
"33312MMn1BFHHH1vvzvv2zvvvvv1vvvvv5HHGGc1mMm343,1",
">::::2mm1kvvvv1vvzvz::::::::vzvvv1vvvvj1mm1::::7",
":::::2121zvvvv::;;;7::::::::;;;;::vvvvv1111:::::",
":>:::1121vvvvv::::;;>>::::::::::::vvvvv1314::::7",
":::::213111111::::::::::::::::::::111111431:::::",
"7rrr;;134GHGGC:::>>>        ee::7#GZFGF21178rr77",
"8rrrww;;,vvvxg..X       .       ..vvvvv27888rrr#",
"rwrrrru7<vvvvd..        .   ......vvvvv2wr8wrry7",
"wrrrwry;<vvzvl..    $ $$&& &......vvvvv2rrwwrry#",
"rwrrwuu7<zvzvl$&$ $$$ $$$$.$$$.$$$vvvvv1wr8rrut7",
"*uuuuu*;<11111$$$ qqq&qqqq&qqq.$%$111111*uutuu*#",
";***#*;;,HHGHH00q&qqq&qqq0%qqq&q00GGGGG177#;**;;",
";;;7;;;;,vvvzvNNS&qqq&qq0q%qqq&q00vvvvv17@7;;;;;",
";;;rr7;;,vvvvvNSS&000&0000&00q&00qvvvvv1;;8r77;;",
";8rrru;;3zvlvv000&0q0&00q0&000&q00vvvvv177wr8ry;",
"wrrrwu;;3zvxvv00q&000&00q0&q00&0S0vxvvv1@8rr88u7",
"wrrwru;;31154100q&q00&0000&000&0S015111178rrrwu:",
"rrwwuu7;3AHAFHqq0&qq0&0qqq%00q&0S0AAACC17888wuy:",
"*uuuu*;;3vvlvvqqq&00q%qq00&q0q&0S0vvvxv1;#yyuu*:",
"7****;;;3lvfvv0q0&000&q00q&q0q&0S0vvvxv1;;**#*;;",
";;;;;;;;4lvavv0-0&0q0&q0qq&00q&000vvv9v1;;77;;;;",
"#;:::::::::::>:::>>>>>:::::>>>>>>:::::::::::::::",
"7#:::::::::::::>eeeeee>:::eeeeee>:::::::::::::::",
":::::::::@:7:::eeeeeeei::eeeeeeei:::::::::::::@:",
"::@::::::::::::eeeeeeei::eeeeeeei:::::7@:7:::>::",
":::::::::>:::::eeeeeeei::eeeeeeei:::::::>:::7:::",
":::::::::::::::eeeeeeei::eeeeeeei:::::::::::::::",
"::::::::::::::>eeeeeeei::eeeeeeei::7::::::::::::",
"::::::@7:::::7:eeeeeeei::eeeeeeei::::::::7:@:::>",
":::::::::::::::eeeeeeei7:eeeeeeei:::::::::::::::",
"::@:7::::::::::eeeeeeii::eeeeeeii::::::@::::::::",
"::::::::@::::::=iiiiii=::=iiiiii=>:::::>:::::@::",
":+::@:#@::::::::======@:;:======::::::+:::::::::",
"XXXXXXXXXXXX::@:::@::@::@:@:@:#:@::oXoXooooooooX",
"XXXXXXXXXXXXXXXXXXXXXXXXXXXXXXXXXXXXXXXXXXXXXXXX",
"XXXXXXXXXXXXXXXXXXXXXoOOOooooooXXXXXXXXXXXXXXXXX",
":::>:::::@::::::::::::::::::::::::::::::::::::::"
};
