/* XPM */
static char *result[] = {
/* columns rows colors chars-per-pixel */
"48 48 70 1 ",
"  c #511713",
". c #511813",
"X c #462329",
"o c #49262C",
"O c #4B282F",
"+ c #56313A",
"@ c #59333D",
"# c #5F3E3D",
"$ c #722723",
"% c #762924",
"& c #782A24",
"* c #613F3C",
"= c #6A3C38",
"- c #563E46",
"; c #5D3B44",
": c #613C44",
"> c #37495F",
", c #3A485D",
"< c #2D4D67",
"1 c #2E4E68",
"2 c #324C64",
"3 c #304E69",
"4 c #34526B",
"5 c #3A556F",
"6 c #5F404A",
"7 c #7F4F49",
"8 c #50697F",
"9 c #8D352F",
"0 c #8D3530",
"q c #814E49",
"w c #944F48",
"e c #84504A",
"r c #905750",
"t c #975954",
"y c #9D5C56",
"u c #A04B47",
"i c #B15D55",
"p c #C55148",
"a c #C85248",
"s c #4D6781",
"d c #516A84",
"f c #5A6C87",
"g c #546E89",
"h c #56718B",
"j c #5B748C",
"k c #5B7592",
"l c #5C7892",
"z c #537799",
"x c #5C7B9B",
"c c #5C7FA1",
"v c #65819C",
"b c #69849E",
"n c #5C81A5",
"m c #748FAB",
"M c #7692AE",
"N c #7793B0",
"B c #7B97B4",
"V c #7C98B5",
"C c #8E8E8E",
"Z c #849BB4",
"A c #889FB9",
"S c #8CA4BD",
"D c #97A8BB",
"F c #98A9BC",
"G c #ABA9A9",
"H c #B1B1B1",
"J c #97ACC0",
"K c #9BAEC3",
"L c #9DB2C7",
"P c #9EB3C8",
/* pixels */
"BBVBVBBL<lBBSK<VVVSP<BBNVBm<PVVVV4LSBBl<PBBVBBBB",
"BBBVBBBL<hBBSJ<BBVSP<SSJJJJ<LJBBV4LSZVl<PBBBBVBV",
"VBVVBVBK<<4334<BBVSP<PPPJPP<PABVB<<<<<<<PVVBVBBV",
"VVVBVBBL<hBBSL<SSSSP<<<3<<1<PAJJS4LSBMh<PBVBVVVV",
"VBBBBBVP<gNBJP<PPPLP<MBBBNN4PPPPP5LSZBg<PVVVNVBB",
"VVBBVBBP<zSSJJ<<<<<<<MVBBBB1511144PSSSd<PBVVVVBB",
"<<<<11<<<gLLJJ<mMBSL<MBBBBB1LJVVM5PPPPd<<<<<1<<<",
"<<<<1VBJ<<<<<<<BBVSL<KPPPPP<PJVVV<5<<<<<LBV<<<<<",
"<<<<1BBL1svbbv<JAJJP1nnnccn1PJASS5PSVMd<PVV<<<<<",
"<<1<2BBL1kBBVN1PPLLP1nnnnnc1PPPPP4PSBBh<PBV2<<<2",
"<21<1BVL1jBBBN<nccnn1nnnnnn1nncnn4LSSSh<PBB<<322",
"222<1BVN1ZLPPL<nnnnn1nnnnnn1nnnnn4PLLKv<BVV23223",
":;;;;1BB1znnnn<nnnnn........ncccn<nnnnz<BB<;;;;;",
";;;;;1<11cnnnn .    ....... X  X..nnnnn<<<<;:;;;",
";:;;;1<1<cnnnn.. .  ......      ..nnnnn<2<3;;;#6",
";;;;;1<2<<<<<<...   $.$$$$ $    ..<<<<<<3<2;;;;-",
"6eee66<<2LLLLS$$$ $$%.%$$$.%%$.$$$PDLLK<<<-7ee:6",
"7eee77+62nnnnk$$$.000%9900&099.$$$nnnnn167q7eee;",
"eeee77y6,nnnnj090%009%9909%099&990nnnnn1qeqeeqy;",
"e7e777t-,nnnnlCCH$000%0999%099%900nnnnn1eeeeeey;",
"eeeeqyy-,nnxnvCHH%000%9000&099&909nnnnn<qeeeeyr;",
"*yyyyy*6,<<<<<090%000%0099&099&900<<<<<<*yyyyy#;",
"-*****-->LPLLL990%000%0099%090&9H0PLLPP<--***#6-",
"---6---6>nnnnn900&000%0000%999%9H0ncnnn<--------",
"---ee---2nnnnn999&000&9999&999&9H0ncnnn<--ee----",
"-7eeey--2xnxnn099&009%9909&999&9H9ncnnn2--qeeqt;",
"7eeeey-->nnvnn900&009&9900&999&9H9nnnnn<-eeeeey;",
"eeeeey--2<<42<999&099&9900&999&909<2<<<<-qeeeey;",
"eeeqyy6-<FPFLPCCH&900&9000&099&999PKPFF<-7eeqyt;",
"*yyyy*--<xnxnnCGH&990%0099&099&999ncnln<-:yyyy*;",
"6****---2xnlnn999&999&0999%090&900ncnxn<--#**@--",
"--------<vn8nnaua&aaa&aaaa%ppp%pppcxnfn<--------",
"#--;;;;;;;;;;:;;::::::;;;;;:::::;;;;;;;;;;;;;:;;",
"6#;;;;;;;;;;;;;:wwwwww:;;:wwwwww:;;;;;;;;;;;;;;;",
";;;;;:;;;;;;;;;wwwwwwwi;;wwwwwwwi;;;;;;;;;;;;;;;",
";;@;;;;;;;;;;;;wwwwwwwi;;wwwwwwwi;;;;;;;;;;;;;;;",
";;;;;;;;;6;;;;;wwwwwwwi;;wwwwwwwi;;;;:;;;;;;;;;;",
";;;;;;;;;;;;;;;wwwwwwwi;;wwwwwwwi;;;;;;;;;;;;;;;",
";;;;;;;;;;;;;::wwwwwwwi;;wwwwwwwi;;;;;;;;;;;;;;;",
";;;;;;@:;;;;;;;wwwwwwwi;;wwwwwwwi;;;;;;;;;;;;;;:",
";;;;;;;;;;;;;;;wwwwwwwi;;wwwwwwwi;;;;;;;;;;;;;;;",
";;+;;;;;;;;;;;;wwwwwwii;;wwwwwwii;;;;;;+:;;;;;;;",
";;;;;;;;;;;;;;;=iiiiii=;;=iiiiii=;;;;;;;;;;;;;;;",
";+;;#;;@;;;;;;;;====*=@;;;======;;;;;;;;;;;;;;;;",
"XXXXXXXXXXXX;;@;;;;@;#;;@;@;;;@;;;;XXooooXoXoooX",
"XXXXXXXXXXXXXXXXXXXXXXXXXXXXXXXXXXXXXXXXXXXXXXXX",
"XXXXXXXXXXXXXXXXXXXXXXoOOOooooXXXXXXXXXXXXXXXXXX",
";;;:;;;;@;;;;;;;;;;;;;;;;;;;;;;;;;;;;;;;;;;;;;;;"
};
