/* XPM */
static char *result[] = {
/* columns rows colors chars-per-pixel */
"48 48 74 1 ",
"  c black",
". c #521813",
"X c #462329",
"o c #49262C",
"O c #4B282F",
"+ c #56313A",
"@ c #59333D",
"# c #5F3E3D",
"$ c #722723",
"% c #752924",
"& c #782A25",
"* c #613F3C",
"= c #6A3C38",
"- c #563E46",
"; c #5D3B44",
": c #613C44",
"> c #37495F",
", c #3A485D",
"< c #2D4D67",
"1 c #2E4E68",
"2 c #324C64",
"3 c #304E69",
"4 c #34526B",
"5 c #3A556F",
"6 c #5F404A",
"7 c #5C5C5C",
"8 c #7F4F49",
"9 c #50697F",
"0 c #8D352F",
"q c #8D3530",
"w c #814E49",
"e c #944F48",
"r c #84504A",
"t c #905750",
"y c #975954",
"u c #9D5C56",
"i c #A04B47",
"p c #B15D55",
"a c #C55148",
"s c #C85248",
"d c #4D6781",
"f c #516A84",
"g c #5A6C87",
"h c #546E89",
"j c #5A6D88",
"k c #56718B",
"l c #5B748C",
"z c #5B7592",
"x c #5C7892",
"c c #537799",
"v c #54789A",
"b c #5C7B9B",
"n c #5C7FA1",
"m c #65819C",
"M c #69849E",
"N c #5C81A5",
"B c #748FAB",
"V c #7692AE",
"C c #7793B0",
"Z c #7B97B4",
"A c #7C98B5",
"S c #8E8E8E",
"D c #849BB4",
"F c #889FB9",
"G c #8CA4BD",
"H c #97A8BB",
"J c #98A9BC",
"K c #ABA9A9",
"L c #B1B1B1",
"P c #97ACC0",
"I c #9BAEC3",
"U c #9DB2C7",
"Y c #9EB3C8",
"T c white",
/* pixels */
"ZZAZAZZU<xZAGI<ZZAGY<ZZAAZB4YFZZZ4YGAZx<YAAAZZZZ",
"ZZZAZZZU<kZCGJ<ZZAGY<GGGPPG<YPZZZ4UGAZx<YAAAZAZA",
"AZAAZAZI<<4144<ZZAGY<UYYIYY<YFZZZ<<<<<<<YZAZAAZA",
"AAAZAZZU<kZZGU<GGGGY<<<1<<<<YFPPG4UGAVk<YZZZAAZA",
"AZZZZZAY<kZZGY1YYYYU<VZZZCC4YYYYY5YGDZh<YZAAZZZZ",
"AAZZAZZY<lGGGP<<11<<<VZZZZZ<441144YGGG9<YZZZZZZZ",
"<<<<11<<<kUUYU1VVVGY<VZZZAZ1UPAAV5YYYY91<<<<11<<",
"<<<<1AZP<<<<<<1ZZAGY<UYYYYY<UPAAA<5<<<<1UZZ<11<<",
"<<<<1ZZU1dmMMm1GGGGY<NNNnNN1YPFGG5YGAVf1YZA<<<<<",
"<<1<2ZZU1zZZZC<YYYYY<NNNNNN1YYYYY4YGACh<YZA2<233",
"<21<1ZAU1lZZZZ<NNNNN<NNNNNN1NNnNN4YGGGh<YZZ<<3<3",
"222<1ZAC1DUYYU<NNNNN<NNNNNN1NNNNN4YUUUM<AAZ22223",
":;;;;1ZZ1cNNNN<NNNNN$.$$$$.$NnnNN<NNNNc<ZZ<;;;;;",
";;;;;1<11nNNNN$$$.%$$.$$$%.$+$.$$$NNNNN<<1<;6;;;",
";:;;;1<1<nNNNN$$$.qq0&qqqq&qqq.$$%NNNNN<2<<;;;;6",
";;;;;1<2<<<<<<qqq%0qq&qqqq&qqq&q00<<<<<<3<3;;;;;",
"6rrr--<<3UYYUGSSL%qqq%     q00&000UHUUU<<<-wrr:;",
"8rrr88-6>NNNNlSLL%qqq 7LLTT 00&000NNNNN<-8rwrrr;",
"wrrr88u6,NNNNl00q%qq 7L   7T 0&000NNNNN<wrwrrru;",
"rrrrwwu@,NNnNx00q%qq 7L   7T 0&000NNNNN1rrrrrwu:",
"rrrrwuu6,nNnNN00q&q 7LLLLLLLT &0L0NNNNN<wrrrrut;",
"*uuuuu*-,<<<<1000&q 7LLLLLLLT &qL0<<<<<<*uuuuu*:",
"-***##--,UYUUU000%0 7LLL  LLT %0L0YYYYY<--****--",
"--6----6>NNNNN0q0&q 7LLL  LLL &qL0NNNNb<--------",
"---wr--->NNNNN00q&q 7LLL  LLL &0LqNNNNN<--wr----",
"-8rrru--2bNbNNq0q&q 7LLLLLLLL &qqqNNNNN<--wrwwu-",
"8rrrru-->NNNNN00q&q 7LLLLLLLL &0qqNNNNN<-rrrrwu;",
"rrrrru--22<43<000&qq         0&0qq22<<<<-wrrrru;",
"rrrwuu6-2JYJJYSSL&qqq&0qq0&00q&000YJYJJ<-wwrwuy;",
"*uuuu*--2NNbNNSKL&qqq%qq00&00q&000NNNvN<-*uuuu*;",
"6****---2bNlNN000&q00&qq0q&q0q&000NNNxb<--*6@*--",
"--------2bNgNNsis&sss%ssaa&aaa&aaaNbNjN<--6;----",
"##;;;;;;;;;;;6;;;;::::;;;;;:::::;;;;;;;;;;;;;;;;",
"6-;;;6;;;;;;;;;:eeeeee:;;:eeeeee:;;;;;;;;;;;;;;:",
";;;;;;;;;@;:;;;eeeeeeep;;eeeeeeep;;;;;;;;;;;;;;;",
";;@;;;:;;;;;;;;eeeeeeep;;eeeeeeep;;;;;;;;;;;;;;;",
";;;;;;;;;6;;;;;eeeeeeep#;eeeeeeep;;;;;;;;;;;;;;;",
";;;;;;;;;;;;:;;eeeeeeep;;eeeeeeep;6;;;:;;;;;;;;;",
";;;;;;;;:;;;;;;eeeeeeep;;eeeeeeep;;;;;;;;;;;;;;;",
";;;-:;@;;;;;;;:eeeeeeep6;eeeeeeep;;;;;;;;;;;;;:;",
";;;;;;;;;;;;;;;eeeeeeep;;eeeeeeep;;;;;;;;;;;;;;;",
";;+;;;;;;;;;;;;eeeeeepp;;eeeeeepp;;;;;;+;;;;;;;;",
";;;;;;;:;-:;;;;=pppppp=;;=pppppp=:;;;;;;:;;;;;;;",
";+;#;;@@;@;;;;;;======;;;;======;;;;;;;;;;;;;;;;",
"XXXXXXXXXXXX;;;@;@;@@;@;@;@;;;@;;;;XXooooXoXXooX",
"XXXXXXXXXXXXXXXXXXXXXXXXXXXXXXXXXXXXXXXXXXXXXXXX",
"XXXoXXXXXXXXXXXXXXXoooOOOOooooXXXXXXXXXXXXXXXXXX",
":;;;;;;;;;;;;;;;;;;;;;;;;;;-;;;;;;;;;;;;;;;;;;;;"
};
