/* XPM */
static char *result[] = {
/* columns rows colors chars-per-pixel */
"48 48 33 1 ",
"  c #6A3C38",
". c #6A3D38",
"X c #6C3D38",
"o c #6C3D39",
"O c #003650",
"+ c #5D3C43",
"@ c #5E3B44",
"# c #5D3C45",
"$ c #5F3C45",
"% c #074C68",
"& c #0E4B68",
"* c #104A67",
"= c #934F48",
"- c #944F48",
"; c #944F49",
": c #945049",
"> c #B05C55",
", c #B15C55",
"< c #B15D55",
"1 c #B15D56",
"2 c #29698F",
"3 c #4380A5",
"4 c #4481A6",
"5 c #4481A7",
"6 c #4681A7",
"7 c #4582A8",
"8 c #6E98B7",
"9 c #6F99B7",
"0 c #7098B7",
"q c #7199B8",
"w c #749CBA",
"e c #96B4CA",
"r c #98B4CA",
/* pixels */
"#-;;;=@#@-;;==@##-;;;=@#@-;;==@##-;;;=@#@-;;==@#",
";;-=;-<+;;=---<#;;-=;-<+;;=---<#;;-=;-<+;;=---<#",
"-;;=-;,#=;;;==<#-;;=-;,#=;;;==<#-;;=-;,#=;;;==<#",
"===;;->+=-;;==1#===;;->+=-;;==1#===;;->+=-;;==1#",
";-==;;,@=;-;;=1$;-==;;,@=;-;;=1$;-==;;,@=;-;;=1$",
"=;;;;<>@--;-=<>$=;;;;<>@--;-=<>$=;;;;<>@--;-=<>$",
"o<<<><o#.<<<,< +o<<<><o#.<<<,< +o<<<><o#.<<<,< +",
"@XXo.o@$#X o o@#@XXo.o@$#X o o@#@XXo.o@$#X o o@#",
"+=---;#$@=::=;@@+=---;#$@=::=;@@+=---;#$@=::=;@@",
"-;===eeeeeee=;1@-;===eeeeeee=;1@-;===eeeeeer=;1@",
"eeee;8888888=eeeeeee;8888888=eeeeeee;8888888=eee",
"8880;8888888-8888888;8888888-q88888w;8888888-988",
"8888=8888888-8888888=8888888-8888888=8888888-888",
"7777&7777777&7777777&7777777&7777777&7777777&377",
"7777&7777777&7777777&7777777&7777777&7777777&677",
"7774&5777777&7777775*7777777&7777777&7777777&777",
"*&*&&&&&&&&&&&&&*&*&&&&&**&*&&&&**&&&&&&&&&&&&&&",
"OOOOOOO%OOOOOOOO%OOOOOOO%OOOOOOO%OOOOOOO%OOOOOOO",
"7777777%77777777%7777777%7777777%7777777%7777777",
"7222227%72222227%7222227%7222227%7222227%7222227",
"OOOO%OOOOOOO%OOOOOOO%OOOOOOO%OOOOOO%OOOOOOO%OOOO",
"7777%7777777%7777777%7777777%777777%7777777%7777",
"7227%7222227%7222227%7222227%722227%7222227%7227",
"2222%2222222%2222222%%222222%222222%2222222%2222",
"OOOOOOO%OOOOOOOO%OOOOOOO%OOOOOOO%OOOOOOO%OOOOOOO",
"7777777%77777777%7777777%7777777%7777777%7777777",
"7222227%72222227%7222227%7222227%7222227%7222227",
"2222222%22222222%22%2222%2222222%2222222%2222222",
"OOOO%OOOOOOO%OOOOOOO%OOOOOOO%OOOOOO%OOOOOOO%OOOO",
"7777%7777777%7777777%7777777%777777%7777777%7777",
"7227%7222227%7222227%7222227%722227%7222227%7227",
"2222%2222222%2222222%2222222%222222%2222222%2222",
"OOOOOOO%OOOOOOOO%OOOOOOO%OOOOOOO%OOOOOOO%OOOOOOO",
"7777777%77777777%7777777%7777777%7777777%7777777",
"7222227%72222227%7222227%7222227%7222227%7222227",
"OOOO%OOOOOOO%OOOOOOO%OOOOOOO%OOOOOO%OOOOOOO%OOOO",
"7777%7777777%7777777%7777777%777777%7777777%7777",
"7227%7222227%7222227%7222227%722227%7222227%7227",
"2222%2222222%2222222%%222222%222222%2222222%2222",
"OOOOOOO%OOOOOOOO%OOOOOOO%OOOOOOO%OOOOOOO%OOOOOOO",
"7777777%77777777%7777777%7777777%7777777%7777777",
"7222227%72222227%7222227%7222227%7222227%7222227",
"2222222%22222222%22%2222%2222222%2222222%2222222",
"OOOO%OOOOOOO%OOOOOOO%OOOOOOO%OOOOOO%OOOOOOO%OOOO",
"7777%7777777%7777777%7777777%777777%7777777%7777",
"7227%7222227%7222227%7222227%722227%7222227%7227",
"2222%2222222%2222222%2222222%222222%2222222%2222",
"%%%%%%%%%%%%%%%%%%%%%%%%%%%%%%%%%%%%%%%%%%%%%%%%"
};
