/* XPM */
static char *result[] = {
/* columns rows colors chars-per-pixel */
"48 48 82 1 ",
"  c #6A3C38",
". c #6A3D38",
"X c #6C3D38",
"o c #6C3D39",
"O c #003650",
"+ c #003852",
"@ c #5D3C43",
"# c #5E3B44",
"$ c #5D3C45",
"% c #5F3C45",
"& c #074C68",
"* c #0E4B68",
"= c #0A4D69",
"- c #0C4C68",
"; c #0E4D69",
": c #0E4F6B",
"> c #104A67",
", c #104C69",
"< c #104E6A",
"1 c #124F6B",
"2 c #144E6B",
"3 c #17526E",
"4 c #205675",
"5 c #33627E",
"6 c #934F48",
"7 c #944F48",
"8 c #944F49",
"9 c #945049",
"0 c #B05C55",
"q c #B15C55",
"w c #B15D55",
"e c #B15D56",
"r c #B5715D",
"t c #B6705D",
"y c #B5715E",
"u c #C78979",
"i c #C98979",
"p c #29698F",
"a c #346582",
"s c #356683",
"d c #356784",
"f c #356785",
"g c #386885",
"h c #386886",
"j c #396986",
"k c #396987",
"l c #3A6A88",
"z c #3B6B89",
"x c #4582A8",
"c c #6691B1",
"v c #6992B1",
"b c #6A93B1",
"n c #6A93B2",
"m c #6B94B2",
"M c #6A94B3",
"N c #6B94B4",
"B c #6B95B4",
"V c #6B95B5",
"C c #6C95B4",
"Z c #6D96B4",
"A c #6D96B5",
"S c #6D97B6",
"D c #6D97B7",
"F c #6E97B6",
"G c #6E97B7",
"H c #6E98B7",
"J c #6E98B8",
"K c #6F99B8",
"L c #6F99B9",
"P c #7098B7",
"I c #7198B8",
"U c #7299B9",
"Y c #709AB9",
"T c #739ABA",
"R c #749BBA",
"E c #729CBB",
"W c #759CBB",
"Q c #769DBA",
"! c #769DBC",
"~ c #96B3C9",
"^ c #96B4C9",
"/ c #98B4CA",
/* pixels */
"#87866$##trttt$#/JJHkDvJnk/JJTQJHHkDvJnk/JJTQJHH",
"878869w#yrtrrru%/JJJ4&3&&4/JJE!HHH4&3&&4/JJE!HHH",
"868888q#rrrrttu#/JJJkbFJCk/JJUUJJDkbFJCk/JJUUJJD",
"888866w$rrrttru@/JJJkPFJJk/JJKIJHDkPFJJk/JJKIJHD",
"776768q$ttrrttu$/JJJkKKJJk/JJJJJHHkKKJJk/JJJJJHH",
"668780w%rrtrruu$/JJSjmHJDk/JJURHHSjmHJDk/JJURHHS",
"XwewwqX%ouiuuu.#-;&&kmKJGk&<&&&&&&kmKJGk&<&&&&&&",
"%   oX#$$oooX $@/JJ2fCAVck<~DVTKH2fCAVck<~DVTKH2",
"$78888$$$78868#$/JJ*4&1=&41/JLWJH*4&1=&41/JLWJH*",
"866788/////777w$/JJkFZABMSz/JJYJJkFZABMSz/JJYJJk",
"/////6JJJJJ6/////JJkJKFJHGz/JJJJHkJKFJHGz/JJJJHk",
"LJJJL8JJJJJ6JJJJJJJkJPJJGDz/JKYHHkJPJJGDz/JKYHHk",
"JJJJJ7JJJJJ6JJJJJJ-jKPJJJJz/JJJJHjKPJJJJz/JJJJHj",
"JJJJJs&&&&&5&&&&&&&lPFJJJCl^JLTHKlPFJJJCl^JLTHKl",
"JJJJJd&&&&&d&&&&&&:zJJJJJJk*****;kJJJJJJk**&&&;k",
"&&&&&d&&&&&a&&&&&&kJJJJJJDh,*****gGJJJJNk>*****j",
"&&&&&**&*&&&&&&***>,****>>******>>**************",
"OOOOOOO&OOOOOOOO&OOOOOOO&OOOOOO+*OOOOOOO&OOOOOOO",
"xxxxxxx&xxxxxxxx&xxxxxxx&xxxxxxx&xxxxxxx&xxxxxxx",
"xpppppx&xppppppx&xpppppx&xpppppx&xpppppx&xpppppx",
"OOOO&OOOOOOO&OOOOOOO&OOOOOOO&OOOOOO&OOOOOOO&OOOO",
"xxxx&xxxxxxx&xxxxxxx&xxxxxxx&xxxxxx&xxxxxxx&xxxx",
"xppx&xpppppx&xpppppx&xpppppx&xppppx&xpppppx&xppx",
"pppp&ppppppp&ppppppp&&pppppp&pppppp&ppppppp&pppp",
"OOOOOOO&OOOOOOOO&OOOOOOO&OOOOOOO&OOOOOOO&OOOOOOO",
"xxxxxxx&xxxxxxxx&xxxxxxx&xxxxxxx&xxxxxxx&xxxxxxx",
"xpppppx&xppppppx&xpppppx&xpppppx&xpppppx&xpppppx",
"ppppppp&pppppppp&pp&pppp&ppppppp&ppppppp&ppppppp",
"OOOO&OOOOOOO&OOOOOOO&OOOOOOO&OOOOOO&OOOOOOO&OOOO",
"xxxx&xxxxxxx&xxxxxxx&xxxxxxx&xxxxxx&xxxxxxx&xxxx",
"xppx&xpppppx&xpppppx&xpppppx&xppppx&xpppppx&xppx",
"pppp&ppppppp&ppppppp&ppppppp&pppppp&ppppppp&pppp",
"OOOOOOO&OOOOOOOO&OOOOOOO&OOOOOOO&OOOOOOO&OOOOOOO",
"xxxxxxx&xxxxxxxx&xxxxxxx&xxxxxxx&xxxxxxx&xxxxxxx",
"xpppppx&xppppppx&xpppppx&xpppppx&xpppppx&xpppppx",
"OOOO&OOOOOOO&OOOOOOO&OOOOOOO&OOOOOO&OOOOOOO&OOOO",
"xxxx&xxxxxxx&xxxxxxx&xxxxxxx&xxxxxx&xxxxxxx&xxxx",
"xppx&xpppppx&xpppppx&xpppppx&xppppx&xpppppx&xppx",
"pppp&ppppppp&ppppppp&&pppppp&pppppp&ppppppp&pppp",
"OOOOOOO&OOOOOOOO&OOOOOOO&OOOOOOO&OOOOOOO&OOOOOOO",
"xxxxxxx&xxxxxxxx&xxxxxxx&xxxxxxx&xxxxxxx&xxxxxxx",
"xpppppx&xppppppx&xpppppx&xpppppx&xpppppx&xpppppx",
"ppppppp&pppppppp&pp&pppp&ppppppp&ppppppp&ppppppp",
"OOOO&OOOOOOO&OOOOOOO&OOOOOOO&OOOOOO&OOOOOOO&OOOO",
"xxxx&xxxxxxx&xxxxxxx&xxxxxxx&xxxxxx&xxxxxxx&xxxx",
"xppx&xpppppx&xpppppx&xpppppx&xppppx&xpppppx&xppx",
"pppp&ppppppp&ppppppp&ppppppp&pppppp&ppppppp&pppp",
"&&&&&&&&&&&&&&&&&&&&&&&&&&&&&&&&&&&&&&&&&&&&&&&&"
};
