/* XPM */
static char *result[] = {
/* columns rows colors chars-per-pixel */
"48 48 90 1 ",
"  c #6A3C38",
". c #6A3D38",
"X c #6C3D38",
"o c #6C3D39",
"O c #003650",
"+ c #5D3C43",
"@ c #5E3B44",
"# c #5D3C45",
"$ c #5F3C45",
"% c #0E4B67",
"& c #074C68",
"* c #074E6A",
"= c #0A4B68",
"- c #0E4B68",
"; c #0A4D69",
": c #0C4E6A",
"> c #0E4F6B",
", c #0E4F6C",
"< c #104A67",
"1 c #104C69",
"2 c #124D6A",
"3 c #124D6B",
"4 c #144E6B",
"5 c #154F6C",
"6 c #12516D",
"7 c #12536F",
"8 c #15516D",
"9 c #14526E",
"0 c #17526E",
"q c #205675",
"w c #934F48",
"e c #944F48",
"r c #944F49",
"t c #945049",
"y c #B05C55",
"u c #B15C55",
"i c #B15D55",
"p c #B15D56",
"a c #B5715D",
"s c #B6705D",
"d c #B7715E",
"f c #C78979",
"g c #C88A7A",
"h c #29698F",
"j c #356783",
"k c #356784",
"l c #386683",
"z c #396785",
"x c #366885",
"c c #376986",
"v c #396986",
"b c #396987",
"n c #3A6A86",
"m c #3A6A87",
"M c #3B6B87",
"N c #3A6A88",
"B c #3B6B88",
"V c #4582A8",
"C c #618CAA",
"Z c #6891AF",
"A c #6992B0",
"S c #6992B1",
"D c #6993B2",
"F c #6C93B1",
"G c #6A94B2",
"H c #6B94B2",
"J c #6A94B3",
"K c #6B95B3",
"L c #6A94B4",
"P c #6B95B4",
"I c #6B95B5",
"U c #6C95B4",
"Y c #6C96B5",
"T c #6C96B6",
"R c #6D97B6",
"E c #6D97B7",
"W c #6E98B7",
"Q c #6F99B7",
"! c #6E98B8",
"~ c #6F99B8",
"^ c #6F99B9",
"/ c #7098B7",
"( c #7198B7",
") c #709AB8",
"_ c #709AB9",
"` c #739AB9",
"' c #729CBA",
"] c #93B3C8",
"[ c #94B4C9",
"{ c #96B4CA",
/* pixels */
"qTWW`)WW{&;0&&qTWW`)WW{&&;%qWWW{@sassa@#@rrwte#@",
"bE!!~)~!{~~R!IbE!!~)~!{RRWRbWWW{asasasf@rrwewri#",
"bT!WWQWW{~~R!!bT!WWQWW{RRWRlWWW{dsaasaf$rrrweei#",
"b!!W~)WW{~~~!!b!!W~)WW{RRWRk~WW{saaaasf#ewrrrwi#",
"b!!WWWWW{~~~!Eb!!WWWWW{RR~Pl~WW{saaadsf#wrrrwwi#",
"b!!W~JGD{~~~!Eb!!W~JGD{RW~Fl~WW{adsaaff#rwrewiy#",
"b&&&24444~~R!Eb&&&24444R~RRl&113 fggffo#oiupiio#",
"b&!!')^{1~~WE!b&!!')^{1DWWJb&WW{+.o . @##oooX #@",
"q&!WWW~{&&&&&&q&!WWW~{&&&&&q;WW{#wwrww###erwee#@",
"TbEWWW_{jRWR!ETbEWWW_{jRWPRKbWW{rrwww{{{{{wtrri#",
"Eb!!W(Q{bW~~~EEb!!W(Q{bW~~WWkWW{{{{{eWWWWWw{{{{{",
"!bWWWWW{v~WW~~!bWWWWW{v~WWWWk/WWWWWWwWWWWWwWWWWW",
"IbWWWWW[N~WWE~YbWWWWW[N~WWWWz:WWWWWWwWWWWWrWWWWW",
"Lb[[[[[]b~~W!~Yb[[[[[[b~~WWWc&&&&&&6x*&&&7NWWWWW",
"Cm&&&&&&mRRRRRYm&&&&&&BRRRWWk8&&&&&6k&&&&9kWWWWW",
"Cn&&&&&&MYUAHZSn&&&&&&mRRRWWPk&&&&&,c&&&&>x&&&&&",
"<-=&-&&&--------<&&-----<<-<45--<<---------&&&&&",
"OOOOOOO&OOOOOOOO&OOOOOOO&OOOOOOO&OOOOOOO&OOOOOOO",
"VVVVVVV&VVVVVVVV&VVVVVVV&VVVVVVV&VVVVVVV&VVVVVVV",
"VhhhhhV&VhhhhhhV&VhhhhhV&VhhhhhV&VhhhhhV&VhhhhhV",
"OOOO&OOOOOOO&OOOOOOO&OOOOOOO&OOOOOO&OOOOOOO&OOOO",
"VVVV&VVVVVVV&VVVVVVV&VVVVVVV&VVVVVV&VVVVVVV&VVVV",
"VhhV&VhhhhhV&VhhhhhV&VhhhhhV&VhhhhV&VhhhhhV&VhhV",
"hhhh&hhhhhhh&hhhhhhh&&hhhhhh&hhhhhh&hhhhhhh&hhhh",
"OOOOOOO&OOOOOOOO&OOOOOOO&OOOOOOO&OOOOOOO&OOOOOOO",
"VVVVVVV&VVVVVVVV&VVVVVVV&VVVVVVV&VVVVVVV&VVVVVVV",
"VhhhhhV&VhhhhhhV&VhhhhhV&VhhhhhV&VhhhhhV&VhhhhhV",
"hhhhhhh&hhhhhhhh&hh&hhhh&hhhhhhh&hhhhhhh&hhhhhhh",
"OOOO&OOOOOOO&OOOOOOO&OOOOOOO&OOOOOO&OOOOOOO&OOOO",
"VVVV&VVVVVVV&VVVVVVV&VVVVVVV&VVVVVV&VVVVVVV&VVVV",
"VhhV&VhhhhhV&VhhhhhV&VhhhhhV&VhhhhV&VhhhhhV&VhhV",
"hhhh&hhhhhhh&hhhhhhh&hhhhhhh&hhhhhh&hhhhhhh&hhhh",
"OOOOOOO&OOOOOOOO&OOOOOOO&OOOOOOO&OOOOOOO&OOOOOOO",
"VVVVVVV&VVVVVVVV&VVVVVVV&VVVVVVV&VVVVVVV&VVVVVVV",
"VhhhhhV&VhhhhhhV&VhhhhhV&VhhhhhV&VhhhhhV&VhhhhhV",
"OOOO&OOOOOOO&OOOOOOO&OOOOOOO&OOOOOO&OOOOOOO&OOOO",
"VVVV&VVVVVVV&VVVVVVV&VVVVVVV&VVVVVV&VVVVVVV&VVVV",
"VhhV&VhhhhhV&VhhhhhV&VhhhhhV&VhhhhV&VhhhhhV&VhhV",
"hhhh&hhhhhhh&hhhhhhh&&hhhhhh&hhhhhh&hhhhhhh&hhhh",
"OOOOOOO&OOOOOOOO&OOOOOOO&OOOOOOO&OOOOOOO&OOOOOOO",
"VVVVVVV&VVVVVVVV&VVVVVVV&VVVVVVV&VVVVVVV&VVVVVVV",
"VhhhhhV&VhhhhhhV&VhhhhhV&VhhhhhV&VhhhhhV&VhhhhhV",
"hhhhhhh&hhhhhhhh&hh&hhhh&hhhhhhh&hhhhhhh&hhhhhhh",
"OOOO&OOOOOOO&OOOOOOO&OOOOOOO&OOOOOO&OOOOOOO&OOOO",
"VVVV&VVVVVVV&VVVVVVV&VVVVVVV&VVVVVV&VVVVVVV&VVVV",
"VhhV&VhhhhhV&VhhhhhV&VhhhhhV&VhhhhV&VhhhhhV&VhhV",
"hhhh&hhhhhhh&hhhhhhh&hhhhhhh&hhhhhh&hhhhhhh&hhhh",
"&&&&&&&&&&&&&&&&&&&&&&&&&&&&&&&&&&&&&&&&&&&&&&&&"
};
