/* XPM */
static char *result[] = {
/* columns rows colors chars-per-pixel */
"48 48 57 1 ",
"  c #6A3C38",
". c #6C3D38",
"X c #5E3B44",
"o c #5D3C45",
"O c #2D4D67",
"+ c #2E4C67",
"@ c #2F4D68",
"# c #2E4E68",
"$ c #304E69",
"% c #304F69",
"& c #314F6A",
"* c #31506A",
"= c #32516B",
"- c #395773",
"; c #944F48",
": c #B15D55",
"> c #B36E5C",
", c #B56E5C",
"< c #B4705C",
"1 c #B4705D",
"2 c #B5715D",
"3 c #B6705D",
"4 c #C78979",
"5 c #496781",
"6 c #4C6985",
"7 c #4D6A86",
"8 c #4E6A86",
"9 c #7591AF",
"0 c #7692AF",
"q c #7793AF",
"w c #7793B0",
"e c #7793B1",
"r c #7894B1",
"t c #7995B1",
"y c #7894B2",
"u c #7995B2",
"i c #7995B3",
"p c #7A96B3",
"a c #7A96B4",
"s c #7B97B4",
"d c #7B97B5",
"f c #7D97B4",
"g c #7C98B4",
"h c #7C98B5",
"j c #7D99B5",
"k c #7E98B5",
"l c #7C98B6",
"z c #7D99B6",
"x c #7F99B6",
"c c #7E9AB6",
"v c #7F9BB7",
"b c #809AB6",
"n c #809AB7",
"m c #819BB7",
"M c #9DB3C7",
"N c #9DB3C8",
"B c #9EB3C8",
/* pixels */
"dddnshsBhhshs6dddnshsBwsshs6dddBX22222ooo;;;;;oo",
"dddssssBphshd7dddssssBrhshd7dddB,222224o;;;;;;:o",
"dddssssB%#OOO-dddssssB-OOOO-dddB>222224o;;;;;;:o",
"ddssshdBhhsdd6ddssshdBhhsdd6dddB>222224o;;;;;;:o",
"ddsssssBhhshd6ddsssssBhhsdd6dddB>222224o;;;;;;:o",
"dssskssBhhhhd6dssskssBhhhdd6dddB<222244o;;;;;::o",
"dssgsssBhhhhd6dssgsssBhhhdd6dddB 44444.o.:::::.o",
"ddsxtppBhhshd6ddsxtppBhhsdd6dddBX.....ooo.....oo",
"OOO%&&&$hhphd6OOO%&&&$hhpdd6OOOOX22222ooo;;;;;oo",
"OddsssB+hhpid6OddsssB+ppped6OddB1222224o;;;;;;:o",
"OdsssgBO%##OO-OdsssgBOO##OO-OddB3222224o;;;;;;:o",
"6ddshjB6hhsdhd6ddshjB6hhsddd6ddB3222224o;;;;;;:o",
"6dsssgB6hhsddd6dsssgB6hhsddd6ddB3222224o;;;;;;:o",
"6dsssjB6hhsddd6dsssjB6hhsddd6ddB3222244o;;;;;::o",
"6dsshsM6hhsddd6dsshsM6hhsddd6ddB.44444.o.:::::.o",
"6OOOOO#6hhhddd6OOOOO#6hhhddd6OOOo.....ooo.....oo",
"ddsgsshBhhsdd6ddsgsshBhhsdd6dddBo22222ooo;;;;;oo",
"ddsssssBhhsad6ddsssssBhhsad6dddB2222224o;;;;;;:o",
"ddsssssB#OOOO-ddsssssB#OOOO-dddB2222224o;;;;;;:o",
"ddsgssdBhhpdd6ddsgssdBhhhhh6dddB2222224o;;;;;;:o",
"dddssssBhhsdd6dddssssBhhhhh6dddB2222224o;;;;;;:o",
"ddsssssBhhhhd6ddsssssBhhhhh6dddB2222244o;;;;;::o",
"dssssssBhhhhd6dssssssBhhhhh6dddB.44444.o.:::::.o",
"ddssrurNhhshd6ddssrurNhhhhh6dddBo.....ooo.....oo",
"OOO%&&&+hhpdd6OOO%&&&+hhhhh6OOOOo22222ooo;;;;;oo",
"OdshbrB@hhpss6OdshbrB@hhhhh6OddB2222224o;;;;;;:o",
"OdsfxsB#-##OO-OdsfxsB#%##OO-OddB2222224o;;;;;;:o",
"7dssgsN7hhsedd7dssgsN7hhs9id7ddB2222224o;;;;;;:o",
"6ddshsB7hhsddd6ddshsB7hhsddd6ddB2222224o;;;;;;:o",
"6dssshB7hhsddd6dssshB7hhsddd6ddB2222244o;;;;;::o",
"6ddhssM6hssddd6ddhssM6sssddd6ddB.44444.o.:::::.o",
"6OOOOO*8hhsddd6OOOOO*8hhhddd6OOOo.....ooo.....oo",
"ssscxhhBhhsdy6ssscxhhBhhhds6dddBo22222ooo;;;;;oo",
"dddmxssBhhuda6dddmxssBhhrhh6dddB2222224o;;;;;;:o",
"issxjssB%OOOO-issxjssB#OOOO-iddB2222224o;;;;;;:o",
"addhjhdBhhsdd6addhjhdBhhsdd6addB2222224o;;;;;;:o",
"idssgssBhhsdd6idssgssBhhhhh6iddB2222224o;;;;;;:o",
"ddshjssBhhhdd6ddshjssBhhhhh6dddB2222244o;;;;;::o",
"ddsssssBhhhdd6ddsssssBhhhhh6dddB.44444.o.:::::.o",
"ddshwq0Bhhhdd6ddshwq0Bhhhhh6dddBo.....ooo.....oo",
"OOO$&&&&phsdd6OOO$&&&&hhshh6OOOOo22222ooo;;;;;oo",
"OddvjlB@rssad6OddvjlB@shshh6OddB2222224o;;;;;;:o",
"OdssshBOOOOOO-OdssshBO#OOOO-OddB3222224o;;;;;;:o",
"6assszB5pspddd6assszB5pspddd6adB3222224o;;;;;;:o",
"6ddsfgB6hhhhdd6ddsfgB6hhhhdd6ddB3222224o;;;;;;:o",
"6dsssgB6hhshhd6dsssgB6hhshhd6ddB1222244o;;;;;::o",
"6dsjkfM7hhsdhd6dsjkfM7hhsdhd6ddB 44444.o.:::::.o",
"6OOOOO=6hhsdhp6OOOOO=6hhsdhp6OOOX.....ooo.....oo"
};
