/* XPM */
static char *result[] = {
/* columns rows colors chars-per-pixel */
"48 48 71 1 ",
"  c #6A3C38",
". c #6A3D38",
"X c #6C3D38",
"o c #6C3D39",
"O c #5D3C43",
"+ c #5E3B44",
"@ c #5D3C45",
"# c #5F3C45",
"$ c #2D4D67",
"% c #2E4C67",
"& c #2F4D68",
"* c #2E4E68",
"= c #304F69",
"- c #314F6A",
"; c #31506A",
": c #34536D",
"> c #395773",
", c #934F48",
"< c #944F48",
"1 c #944F49",
"2 c #945049",
"3 c #B05C55",
"4 c #B15C55",
"5 c #B15D55",
"6 c #B15D56",
"7 c #B5715D",
"8 c #B6705D",
"9 c #B5715E",
"0 c #B7715E",
"q c #C78979",
"w c #C88A7A",
"e c #486681",
"r c #496783",
"t c #4C6985",
"y c #4D6A86",
"u c #4E6B87",
"i c #4F6C88",
"p c #7591AF",
"a c #7692AF",
"s c #7793B0",
"d c #7793B1",
"f c #7894B1",
"g c #7894B2",
"h c #7995B2",
"j c #7995B3",
"k c #7A96B3",
"l c #7A96B4",
"z c #7B97B4",
"x c #7B97B5",
"c c #7D97B5",
"v c #7C98B5",
"b c #7C98B6",
"n c #7D99B6",
"m c #7E98B6",
"M c #7F99B6",
"N c #7F99B7",
"B c #7E9AB7",
"V c #7F9BB8",
"C c #809AB7",
"Z c #829CB7",
"A c #809AB8",
"S c #819BB8",
"D c #839DB8",
"F c #829CB9",
"G c #849EB9",
"H c #859DBA",
"J c #9DB1C7",
"K c #9EB3C7",
"L c #9EB3C8",
"P c #9FB3C8",
"I c #9FB3C9",
/* pixels */
"@111<,@@@78877O+LvzztzzxjtPxxxvxzztzzxjtPxxxvxzz",
"1<1<,,5+788888w@LzzhtxzjjyPxxxAxzhtxzjjyPxxxAxzh",
"<<1<<<5@877978q@Pzzz>$$$$>Pxxcxxzz>$$$$>Pxxcxxzz",
"1<111<3+777078q+LvxgtxzxxtPxxnbvxgtxzxxtPxxnbvxg",
"1,,<,,5@777778q@PzzjtxzxxtPxxnnzzjtxzxxtPxxnnzzj",
"1<<,164O77887qq+LzzktxvxxtPxxxxzzktxvxxtPxxxxzzk",
".55555o@ qqqqqo@LzzhtxvxxtKxxnHzzhtxvxxtKxxnHzzh",
"@o. oX#@@ oooX#@$$$*txzxxt$=$$$$$*txzxxt$=$$$$$*",
"@1111,@@+78877@@Pvz&evsxxt$Pzlbvz&evsxxt$Pzlbvz&",
"1<1,1<6O897788q#Lxz%>$$**>*Pvbxxz%>$$**>*Pvbxxz%",
",2<,,14+788787q@LzztvxzhkktPvMNzztvxzhkktPvMNzzt",
",,11115+888777w+PvktvvzxxxtPvvcvktvvzxxxtPvvcvkt",
"<2<<<15O788888q+IzktvvzxxxtPvxczktvvzxxxtPvxczkt",
"1,1<166@87878qq@LvktvvzxxxtPvxxxxtvvzxxxtPvxxxxt",
"o35635X#oqwwqq.@LzztvvzxxxtKxFDxztvvzxxxtKxFDxzt",
"@XooXoO+@.ooo.@@$$$txvvxxxi$$$$$$txvvxxxi$$$$$$t",
"@111<,@@@78877O+LvvztvzxxtLxxVCvvztvzxxtLxxVCvvz",
"1<1<,,5+788888w@LzzhtzzlxtPxxxxzzhtzzlxtPxxxxzzh",
"<<1<<<5@877978q@Pzzz>$$$$>Pxxxxxzz>$$$$>Pxxxxxzz",
"1<111<3+777078q+LvxxtvzxxtPxxnVxxxtvzxxtPxxnVxxx",
"1,,<,,5@777778q@PzzxtvzxxtPxxxnzzxtvzxxtPxxxnzzx",
"1<<,164O77887qq+LzzvtvvxxtPxxxxxzvtvvxxtPxxxxxzv",
".55555o@ qqqqqo@LzzztvvxxtLxxBFzzztvvxxtLxxBFzzz",
"@o. oX#@@ oooX#@$$$$tvzxxt$$$$$$$$tvzxxt$$$$$$$$",
"@1111,@@+78877@@Pvz%tvkxxe=KdxFxz%tvkxxe=KdxFxz%",
"1<1,1<6O897788q#Lxz%>$$*$>;Pxxnxz%>$$*$>;Pxxnxz%",
",2<,,14+788787q@LzvtxxhfhhuPxvAxvtxxhfhhuPxvAxvt",
",,11115+888777w+PvktvvxxxxiPxbvxktvvxxxxiPxbvxkt",
"<2<<<15O788888q+IzztvvxxxxuPxVxxztvvxxxxuPxVxxzt",
"1,1<166@87878qq@LvztvvxxxxuPxbvxxyvvxxxxuPxbvxxy",
"o35635X#oqwwqq.@LzvtvzxxxxyKxCCxvyvzxxxxyKxCCxvy",
"@XooXoO+@.ooo.@@$$$tzxzxxxt*$$$$$tzxzxxxt*$$$$$t",
"@111<,@@@78877O+LvvvtxzxgtLxxCGxvvtxzxgtLxxCGxvv",
"1<1<,,5+788888w@LzzztxaxltPxxNZxzztxaxltPxxNZxzz",
"<<1<<<5@877978q@Pzzz>$:$$>PxxVFzzz>$:$$>PxxVFzzz",
"1<111<3+777078q+LvxltzzxxtPxxmmxxltzzxxtPxxmmxxl",
"1,,<,,5@777778q@PzzltvzxxtPxxvcxzltvzxxtPxxvcxzl",
"1<<,164O77887qq+LzzztvvxxtPxxxxxzztvvxxtPxxxxxzz",
".55555o@ qqqqqo@LzzktvzxxtPxxmCzzktvzxxtPxxmCzzk",
"@o. oX#@@ oooX#@$$$$tvvxxt$=$$$$$$tvvxxt$=$$$$$$",
"@1111,@@+78877@@Pvz-rvkgpt=JlgNvz-rvkgpt=JlgNvz-",
"1<1,1<6O897788q#Lxz%>$;*$>;PxbSxz%>$;*$>;PxbSxz%",
",2<,,14+788787q@LzvtvvkfskuPxxnxxtvvkfskuPxxnxxt",
",,11115+888777w+PvztxvzxzxuPxxxxztxvzxzxuPxxxxzt",
"<2<<<15O788888q+IzztxvxxxxuPxvnzztxvxxxxuPxvnzzt",
"1,1<166@87878qq@LvztvvxxxxuPxxxxztvvxxxxuPxxxxzt",
"o35635X#oqwwqq.@LzvyvvxxxxyKxbNzvyvvxxxxyKxbNzvy",
"@XooXoO+@.ooo.@@$$=tvvzxxgt$$$$$=tvvzxxgt$$$$$=t"
};
