/* XPM */
static char *result[] = {
/* columns rows colors chars-per-pixel */
"48 48 48 1 ",
"  c #7B413E",
". c #003650",
"X c #0D4764",
"o c #074C67",
"O c #084A65",
"+ c #074C68",
"@ c #0E4B68",
"# c #0A4D69",
"$ c #0C4C69",
"% c #0C4E6A",
"& c #0E4F6B",
"* c #1D4C67",
"= c #124D6A",
"- c #104E6A",
"; c #144E6B",
": c #1E4D68",
"> c #205675",
", c #6B4049",
"< c #A7524E",
"1 c #C26058",
"2 c #C5735F",
"3 c #D48979",
"4 c #29698F",
"5 c #396987",
"6 c #3A6A88",
"7 c #3B6B89",
"8 c #4582A8",
"9 c #4782A8",
"0 c #4982A8",
"q c #6792B1",
"w c #6995B3",
"e c #6B95B4",
"r c #6C96B4",
"t c #6D97B6",
"y c #6E98B7",
"u c #6F99B7",
"i c #6E98B8",
"p c #6F99B8",
"a c #7398B7",
"s c #7299B8",
"d c #739AB9",
"f c #91B0C5",
"g c #91B1C7",
"h c #92B1C6",
"j c #91B3C8",
"k c #94B3C8",
"l c #96B4CA",
"z c #98B4CA",
/* pixels */
"yyy5yyyyyyyyk5yyyyy5yyiiyyyyl5ytpiq5iiyyyyyyj7we",
"+++>yyyyyyyyl>%++++>yyyiyyyyl>++++&>iiyyyyyyh>++",
"yyy5yyyyyyyyl6yyyyy5yyiyyypil5yyiye5iyyypyyyl5yy",
"yyy5yyyyyyyyl5yyyyy5yyiyyyyyl5yypyy5iyyyyyyyl5yy",
"yyy5yyyyyyyyl5yyyyy5yyyyysyyl5yypyy5yyysyyyyl5yy",
"yyy5yyyyyyyyl5yyyyy5yyyyuyyyl5yypyy5yyuyyyyyl5yy",
"yyy5yyytyyyyl5yyyyy5yyiydrttl5yyyyy5iydrtyyyg5yy",
"yyt5+#######o5yyyyy5++++-;;;=5yypyy5++-;;;=++5yy",
"##%>#yyyyyyy+>++O++>+yyyyyyy+>+++++>+yyyyyyy$>++",
"yyyy@yyyyyyy@yyyyyyy@yyyyyyy@yyyyyyy+yyyyyyy*ass",
"yyyy@yyyyyyy@yyyyyyy@yyyyyyy@yyyyyyy@yyyyyyy:dss",
"llll@lllllll@lllllll@lllllll@llllllz@llllllf@lll",
"0880@8888888@8888888@9888888@8888888@8888888@988",
"8888@8888888@8888888@8888888@8888888@8888888@888",
"8889@8888888@8888888@8888888@8888888@8888888@888",
"@@@@@@@@@@@@@@@@@@@@@@@@@@@@@@@@@@@@@@@@@@@@@@@@",
".......+........+.......+.......+...X...+.......",
"8888888+88888888+8888888+8888888+8888888+8888888",
"8444448+84444448+8444448+8444448+8444448+8444448",
"....+.......+.......+.......+......+.......+....",
"8888+8888888+8888888+8888888+888888+8888888+8888",
"8448+8444448+8444448+8444448+844448+8444448+8448",
"4444+4444444+4444444++444444+444444+4444444+4444",
".......+........+.......+.......+.......+.......",
"8888888+88888888+8888888+8888888+8888888+8888888",
"8444448+84444448+8444448+8444448+8444448+8444448",
"4444444+44444444+44+4444+4444444+4444444+4444444",
"....+.......+.......+.......+......+.......+....",
"8888+8888888+8888888+8888888+888888+8888888+8888",
"8448+8444448+8444448+8444448+844448+8444448+8448",
"4444+4444444+4444444+4444444+444444+4444444+4444",
"++++++++++++++++++++++++++++++++++++++++++++++++",
",22222,,,22222,,,22222,,,22222,,,22222,,,22222,,",
"2222223,2222223,2222223,2222223,2222223,2222223,",
"2222223,2222223,2222223,2222223,2222223,2222223,",
"2222223,2222223,2222223,2222223,2222223,2222223,",
"2222223,2222223,2222223,2222223,2222223,2222223,",
"2222233,2222233,2222233,2222233,2222233,2222233,",
" 33333 , 33333 , 33333 , 33333 , 33333 , 33333 ,",
",     ,,,     ,,,     ,,,     ,,,     ,,,     ,,",
",<<<<<,,,<<<<<,,,<<<<<,,,<<<<<,,,<<<<<,,,<<<<<,,",
"<<<<<<1,<<<<<<1,<<<<<<1,<<<<<<1,<<<<<<1,<<<<<<1,",
"<<<<<<1,<<<<<<1,<<<<<<1,<<<<<<1,<<<<<<1,<<<<<<1,",
"<<<<<<1,<<<<<<1,<<<<<<1,<<<<<<1,<<<<<<1,<<<<<<1,",
"<<<<<<1,<<<<<<1,<<<<<<1,<<<<<<1,<<<<<<1,<<<<<<1,",
"<<<<<11,<<<<<11,<<<<<11,<<<<<11,<<<<<11,<<<<<11,",
" 11111 , 11111 , 11111 , 11111 , 11111 , 11111 ,",
",     ,,,     ,,,     ,,,     ,,,     ,,,     ,,"
};
