/* XPM */
static char *result[] = {
/* columns rows colors chars-per-pixel */
"48 48 121 2 ",
"   c black",
".  c #773B35",
"X  c #783935",
"o  c #7A3B35",
"O  c #7A3B36",
"+  c #00354E",
"@  c #01354E",
"#  c #01354F",
"$  c #00364F",
"%  c #05354F",
"&  c #003650",
"*  c #013751",
"=  c #053550",
"-  c #063650",
";  c #673941",
":  c #673944",
">  c #683842",
",  c #6A3944",
"<  c #054B67",
"1  c #0A4964",
"2  c #0C4A66",
"3  c #0E4B67",
"4  c #074C68",
"5  c #0E4B68",
"6  c #0A4D69",
"7  c #0C4E69",
"8  c #0C4E6A",
"9  c #104C69",
"0  c #124D6A",
"q  c #104E6A",
"w  c #124F6B",
"e  c #144E6B",
"r  c #14506C",
"t  c #17526E",
"y  c #205675",
"u  c #A74E46",
"i  c #A84E46",
"p  c #A84E47",
"a  c #A84F47",
"s  c #C85C54",
"d  c #C95C54",
"f  c #C95D54",
"g  c #C95D55",
"h  c #CA725C",
"j  c #CA725D",
"k  c #CC715C",
"l  c #CD725D",
"z  c #DB8A79",
"x  c #DE8A79",
"c  c #DC8B7A",
"v  c #29698F",
"b  c #356783",
"n  c #356784",
"m  c #386683",
"M  c #396785",
"N  c #386885",
"B  c #386886",
"V  c #396986",
"C  c #396987",
"Z  c #3A6A87",
"A  c #3A6A88",
"S  c #3B6B88",
"D  c #3C6A88",
"F  c #3E6D8B",
"G  c #256A90",
"H  c #296991",
"J  c #2B6A90",
"K  c #42728F",
"L  c #4582A7",
"P  c #4582A8",
"I  c #4982A8",
"U  c #6792B0",
"Y  c #6792B1",
"T  c #6993B1",
"R  c #6993B2",
"E  c #6C93B1",
"W  c #6995B3",
"Q  c #6A94B2",
"!  c #6A94B3",
"~  c #6B95B3",
"^  c #6D94B3",
"/  c #6A94B4",
"(  c #6B95B4",
")  c #6B95B5",
"_  c #6C96B4",
"`  c #6C96B5",
"'  c #6D97B5",
"]  c #6C96B6",
"[  c #6D97B6",
"{  c #6D97B7",
"}  c #6E98B6",
"|  c #6E98B7",
" . c #6F99B7",
".. c #6E98B8",
"X. c #6F99B8",
"o. c #6F99B9",
"O. c #7198B7",
"+. c #7198B8",
"@. c #7199B8",
"#. c #7299B8",
"$. c #709AB8",
"%. c #709AB9",
"&. c #719BB9",
"*. c #739AB9",
"=. c #749BB9",
"-. c #749BBA",
";. c #729CBA",
":. c #759CBA",
">. c #8FAEC3",
",. c #91B0C6",
"<. c #92B1C6",
"1. c #93B1C7",
"2. c #94B3C8",
"3. c #95B3C8",
"4. c #95B3C9",
"5. c #96B3C9",
"6. c #94B4C9",
"7. c #94B4CA",
"8. c #96B4CA",
"9. c #98B4CA",
"0. c #98B4CB",
/* pixels */
"C ......-.| X.| 8.| | | X.| C ......-.| X.| 8.| | | X.| | | | | | | | K #.#.@.X.#.#.#.#.<.}  .-.",
"A ......| | | | 8.| | [ X...A ......| | | | 8.| X.| X.| | | | | | | | F #.#.#.#.#.#.#.#.<.Q Q Y ",
"y ......| | | | 8.4 4 4 4 4 y ......| | | | 8.4 4 4 4 8 6 4 4 4 4 4 4 y #.#.#.#.#.#.#.#.<.q w 8 ",
"C ....| | | X...8.X.| [ ..{ C ....| | | X...8.X.X.| ..| | | | | | | | C #.#.#.#.#.#.#.#.<. . .| ",
"C ....| | | | | 8.X.X.[ X.{ C ....| | | | | 8.X.X.| X.| | | | | | | | C #.#.#.#.#.#.#.#.<. . .| ",
"C ..| | | #.| | 8.X.X.X.X.{ C ..| | | #.| | 8.X.X.X.X.| | ..| | | | | C | | | | | | | | <. . .| ",
"C ..| |  .| | | 8.X.X.X.X...C ..| |  .| | | 8.X.X.X.X.| | ..| | | | | C [ | | | | | [ | <. . . .",
"C ....| *._ [ [ 8.X.X.[ X.{ C ....| *._ [ [ 8.X.X.| X.| | ....| *.' | C 4 4 4 4 4 4 4 4 7 }  .*.",
"C 4 4 4 q e e e 0 X.X.` X...C 4 4 4 q e e e 0 X.X.[ X.| [ W 4 4 q e e y 4  .X.X.[ X.{ 5.4 q w q ",
"C 4 ....|                           | | | 8.5 X.X.| _ [ ( 0 [ X.| | X.5.6 } | X.| [ [ <.4 | X.| ",
"y 4 ..|     @ $ & & & & & & & & #     |  .8.4 6 6 6 3 1 0 X.X.X.| | X.1.4 [ | X.X.{ } ,.6 | | X.",
"{ C ....  + $ 8.8.8.8.8.8.8.8.>.& &   X.$.8.V X.X.[ ^ Q C X...8.9.8.8.2.4 8.8.0.8.8.8.8.4 9.8.8.",
"{ C ..|   & 8.8.8.8.8.8.8.8.8.2.8.&   |  .8.C | | | [ [ C +.X.8.P P L P 5 P L P L P L L 4 L P P ",
"..C ..|   & 8.8.8.8.8.8.8.8.8.8.8.&   | $.8.C X.| [ [ | V | X.9.L P P P 5 P P P P L L L 4 L L P ",
"{ C ..|   & 8.8.8.8.8.8.8.8.8.8.8.&   X.| 6.C X.| | [ [ B ..| 0.P I L L 4 P P L P L P P 4 P L P ",
"{ C 4 4   & 8.8.8.8.8.8.8.8.8.8.8.&   4 4 6 C | | X.[ [ C 5 4 4 4 4 4 4 4 4 4 4 4 4 4 4 4 4 4 4 ",
"C ....|   & 8.8.4.8.8.8.8.8.8.8.8.&   | | X.8.| | | | B | | +.0.- % & & - & & 4 % & - & & - & - ",
"C ....|   & 8.8.8.8.8.8.8.8.8.8.8.&   | | | 8.[ [ | [ C | X.| 8.P P L L P L L 4 P I P P P L P P ",
"y ....|   & 8.8.8.8.8.8.3.8.3.8.8.&   | | | 8.4 4 4 2 y [ X.| 8.P H v J v H L 4 P v v G v G J P ",
"C ....|   & 8.8.2.8.8.8.8.8.8.8.8.&   | | ..8.[ [ ` | C | X.| 0.- & & - 4 & = % & % % % 4 % & % ",
"C ......  & 8.8.8.8.8.8.8.8.8.8.8.&   | | | 8.[ [ | [ C | X.X.9.L P P P 4 P P P P P P P 4 P P L ",
"C ....|   & & <.8.8.8.8.8.8.8.8.* &   | | | 8.[ [ X.[ C | X.X.9.P v v P 4 P H v J v J L 4 P v J ",
"C ..| |     & & & & & & & & & & &     | | | 8.[ [ X.| C X.| | 8.v v v v 4 v v v v v J v 4 v J v ",
"C ....| |                           | ( ` ( 7.[ [ | [ C X.| X.0.- - % % & % % 4 & & = - & % = & ",
"C 4 4 4 q e e e 5 X.X.` ..{ C 4 4 4 q e e e 5 [ [ | [ C 4 5 4 4 P L I L P L P 4 P P P P P P P P ",
"N 4 ..| X.=.( 8.9 [ X.[ | [ N 4 ..| X.=.( 8.9 R [ [ T C 4 X...8.P J J H v v P 4 P v J v v J v L ",
"y 4 ..| O.*.| 8.6 4 6 6 4 3 y 4 ..| O.*.| 8.6 4 6 4 < y 4 X.| 8.v v J v v v v 5 J v v v H v H H ",
"{ A ..| |  .| 7.A ' | | / { { A ..| |  .| 7.A ' | [ ( [ C ( | 9.- % % & 4 - & % & = % & 4 % % % ",
"{ C ....| X.| 8.A X.| [ ..{ { C ....| X.| 8.A X.| [ ^ [ C X.X.0.L L P P 4 L P L P I P P 4 P L P ",
"{ C ..| | | X.8.Z X.| | ..{ { C ..| | | X.8.Z X.| | [ [ S | X.8.L J v L 4 P v J v v J P 4 P G H ",
") C ....X.| | 6.V ~ T | ....) C ....X.| | 6.V [ X.X.| [ N | ..0.v v v v 4 v v v v v v H 4 v v J ",
"] C 4 4 4 4 4 w D ( Q | ..] ] C 4 4 4 4 4 w D X.X.X.[ ( V 4 4 4 4 5 4 4 4 5 4 4 5 4 4 4 4 4 5 4 ",
"C | | | &.*.X.X.8.( | | ../ C | | | &.*.X.X.8.X.X.| ` C [ | +.0.: k k h k h : : : h k h h h : ; ",
"C ......:.*.| | 8.| X.( ..R C ......:.*.| | 8.X.X.( _ C X.X.| 8.k h h h k h z : k h h h k k z : ",
"y ] | | *.$.| | 8.4 6 t 4 4 y ] | | *.$.| | 8.4 4 6 3 y | X.| 8.k k h j k h z : k k h k h h z ; ",
"C { ....X.$.X...8.X.X.[ ..) C { ....X.$.X...8.[ [ | [ C | X.| 0.k h k j h k z : k k k l h h z : ",
"C ] ..| |  .| | 8.X.X.[ ....C ] ..| |  .| | 8.[ [ | [ m | X.X.9.k h h h h k z : k h h k h h z : ",
"C ....| X.$.| | 8.X.X.X.....C ....| X.$.| | 8.[ [ | [ n X.X.X.9.k h h k h z z ; k k h h h x z ; ",
"C ....| | | | | 8.X.X.X...{ C ....| | | | | 8.[ [ X.( m X.| | 8.O z c z c z O : O c z z z c . : ",
"C ....| X.! Q R 8.X.X.X...{ C ....| X.! Q R 8.[ | X.E m X.| X.0.> . O O O O : ; : O . . O O ; ; ",
"C 4 4 4 0 e e e e X.X.[ ..{ C 4 4 4 0 e e e e [ X.[ [ m 4 5 4 4 > k k k k k : > > u i p p p : > ",
"C 4 ....;.$.o.8.9 X.X.| { ..C 4 ....;.$.o.8.9 R | | ! C 4 X...8.k k k h h h z > u p a p p i f : ",
"y 4 ..| | | X.8.4 4 4 4 4 4 y 4 ..| | | X.8.4 4 4 4 4 y 6 X.| 8.k h h h h k z : u u i p p u f > ",
"] C { | | | %.8.b [ | [ ..{ ] C { | | | %.8.b [ | ( ` U C | | 9.k h h h k h z > p i i p p p g , ",
"{ C ....| O. .8.C | X.X.X.{ { C ....| O. .8.C | X.X.[ ` n X.X.0.k h h h k h z : p p p u i i f ; ",
"..C ..| | |  .8.V X.| | X.X...C ..| | |  .8.V X.| | [ [ n | X.8.h h k k k z c > p i p u p d d > ",
") C ..| $.#.O.6.A X.| | { X.` C ..| $.#.O.6.A X.| | | | M | ..0.o z z z z z . ; O f f s f f X , ",
"/ C 4 4 4 4 4 r C X.X.| ..X.` C 4 4 4 4 4 r C X.X.| ` | C 6 4 4 : O . . O O : : : X . o o O > > "
};
