/* XPM */
static char *result[] = {
/* columns rows colors chars-per-pixel */
"48 48 112 2 ",
"   c #5A2E38",
".  c #5B3039",
"X  c #5C313B",
"o  c #5D323B",
"O  c #62343E",
"+  c #63353E",
"@  c #63353F",
"#  c #773B35",
"$  c #783935",
"%  c #7A3B35",
"&  c #7A3B36",
"*  c #05354F",
"=  c #003650",
"-  c #053550",
";  c #063650",
":  c #653840",
">  c #673941",
",  c #673944",
"<  c #683842",
"1  c #6A3944",
"2  c #034A65",
"3  c #054B67",
"4  c #0E4B67",
"5  c #074C68",
"6  c #0E4B68",
"7  c #0A4D69",
"8  c #0E4F6B",
"9  c #124965",
"0  c #104C69",
"q  c #124D6A",
"w  c #104E6A",
"e  c #124F6B",
"r  c #144E6B",
"t  c #17526E",
"y  c #205675",
"u  c #A74E46",
"i  c #A84E46",
"p  c #A84E47",
"a  c #A84F47",
"s  c #C95C54",
"d  c #C95D54",
"f  c #C95D55",
"g  c #CA725C",
"h  c #CC715C",
"j  c #CD725D",
"k  c #DB8A79",
"l  c #DE8A79",
"z  c #DC8B7A",
"x  c #29698F",
"c  c #326582",
"v  c #336684",
"b  c #356785",
"n  c #386885",
"m  c #396986",
"M  c #396987",
"N  c #3A6A87",
"B  c #3A6A88",
"V  c #3B6B89",
"C  c #3D6C8A",
"Z  c #256A90",
"A  c #296991",
"S  c #2B6A90",
"D  c #4582A7",
"F  c #4582A8",
"G  c #4982A8",
"H  c #6590B0",
"J  c #6792B1",
"K  c #6993B1",
"L  c #6B92B1",
"P  c #6993B2",
"I  c #6C93B3",
"U  c #6A94B2",
"Y  c #6A94B3",
"T  c #6B95B3",
"R  c #6D94B2",
"E  c #6A94B4",
"W  c #6B95B4",
"Q  c #6B95B5",
"!  c #6E95B4",
"~  c #6C96B4",
"^  c #6C96B5",
"/  c #6D97B5",
"(  c #6F96B5",
")  c #6C96B6",
"_  c #6D97B6",
"`  c #6D97B7",
"'  c #6E98B7",
"]  c #6E98B8",
"[  c #6F99B8",
"{  c #6F99B9",
"}  c #7198B7",
"|  c #7198B8",
" . c #7299B9",
".. c #709AB8",
"X. c #709AB9",
"o. c #739AB9",
"O. c #719BBA",
"+. c #739ABA",
"@. c #749BBA",
"#. c #749BBB",
"$. c #729CBB",
"%. c #759CBB",
"&. c #769DBA",
"*. c #779EBB",
"=. c #769DBC",
"-. c #799FBC",
";. c #94B3C9",
":. c #96B3C9",
">. c #96B4C9",
",. c #96B4CA",
"<. c #98B4CA",
"1. c #98B4CB",
/* pixels */
"' ' ' ' <.' ' ' ' ' ' ' ' M ' ' ' ' ' ' ' ' ' ' [ <.] ] ] [ [ ' ' M ' ' ] ) ) <.] ] ] [ ] ' ' M ",
"' ' ' ' <.' ' ' ' ' ' ' ' M ^ ' ' ' ' ' ' ' ' ' _ <.] ] [ [ [ ' ^ M ` _ ) I H <.] ] ] #.] ' ^ M ",
"5 5 5 5 <.' ' ' ' ' ' ' ' y 5 5 5 5 5 5 5 5 5 5 w <.] ] [ [ [ ' ' y 5 5 5 5 5 <.] ] | ] ] ' ' y ",
"X.' ' ' <.' ' ' ' ' ' ' ' M ' ' ' ' W [ [ [ ] [ ' <.] ] X.[ [ ] Q M ] ] ] ] ] <.] ] X.{ [ ] Q m ",
"[ [ [ ' <.' ' ' ' ' ' ' ' M ' ' [ ' ' ' [ [ ] [ [ <.] [ [ [ [ ' ) M ] ] ] ] ] <.] ] X.X.' ' ) c ",
"' ' ' ' <.' ' ' ' ' ' ' ' M ' ' ' ' _ [ [ [ ] [ [ <.] [ [ [ [ [ _ m ] ] ] ] ] <.] ] ] ] ' ' _ c ",
"' ' ' ' <.[ ' _ ' ' ^ ' ' M ' ' ' ' ' ' [ [ ] [ [ >.[ [ [ [ [ [ [ M ] ] ] ] ] >...X.X.X.X.X.X.c ",
"[ [ ' ' 5 5 5 5 5 5 5 5 5 M ' ' ' ' ' ' [ [ ] [ [ <.[ [ [ [ [ [ ' m ) _ ] ] ] <.=.X.X.X.X.X.[ c ",
"5 5 5 5 5 :.[ [ [ [ [ [ 3 y 5 5 5 5 ' ' [ [ [ [ [ 5 5 5 5 5 5 5 w m ` ] ] ] ] 5 e 5 5 5 5 7 0 c ",
"' [ [ ^ 9 ,.[ [ [ [ [ _ 2 ;.' [ ' ' q ' [ [ [ [ [ e <.[ { ] ] ' q n T ] ] ] Q 7 <.[ { ] ] _ 6 y ",
"' ' ' | w ,.} ' [ ' ' [ 5 ;.' ' [ ' ( y 5 5 7 8 5 y >.[ o.+.' ' 7 y 5 5 5 5 7 w <.[ o.+.' K 7 y ",
",.,.<.,.5 ,.,.,.<.,.<.,.5 ,.,.,.,.' [ M Y J ] ) ) M <.[ [ | [ _ m [ [ _ ] ^ ) M <.[ [ | [ _ m [ ",
"D F F F 5 D F F D F F D 5 F F D 1.' ' M [ [ ] ] ` M <.[ ] | ' _ M ' [ ' ] ] ` M <.[ ] | ' _ M ' ",
"F F F F 5 G F F D D F D 5 F D F ,.] ] M [ [ ] ] ] M <.[ ] ] ] ] M R _ _ ] ] ] M <.[ ] ] ] ] M R ",
"F D F D 5 D F D D F D F 6 D D D 1.[ ' M [ [ ] ] ` M >.] =.*.] ' M ' ' ' ] ] ` M >.] =.*.] ' M ' ",
"5 6 5 5 5 5 5 5 5 5 4 5 5 3 5 5 5 5 5 M [ [ ] [ [ C 5 5 5 5 5 5 M ` ' [ ] ` ` C 5 5 5 5 5 5 M ' ",
"5 = = = = * - - 5 * - = = * = = 1.[ ' Y M ! ] [ [ ,.] ] $.@.[ [ ' M T ' ] ] ] ,.] ] $.@.[ [ ' M ",
"3 F G D F F F F 5 F D F F F D D ,.[ [ _ v [ ` ^ J <.] ] ] ] ' ' ^ M U ' ` ] ] <.] ] ] ] ' ' ^ M ",
"5 F x x Z A x D 5 F S x x A S F 1.' ' ' y 7 5 5 7 <.] ] ] ] ] ' ' y 5 5 5 5 7 <.] ] ] ] ] ' ' y ",
"; = = 5 = ; * * ; = = 3 = * = ; ,.[ ' ' M [ ] [ [ <.] ] X.$.] ] ] m ] ] ] ] ] <.] ] X.$.] ] ] m ",
"F F F 5 F F D F F F F 5 F F F F <.[ ' [ M [ ] [ [ <.] ] ] X.' ' ] m ] ] ] ] ] <.] ] ] X.' ' ] m ",
"S S F 5 F x x x S x F 5 F x x F ,.' ' [ M ' ] ` P <.] ] ] ] ] ' [ m [ ] ] ] ] <.] ] ] ] ] ' [ m ",
"S x S 5 x S S S x S x 4 S S x x <.] [ [ M [ ] ] ] ,.] ] O.=.' ' ' m [ [ ] ] ] ,.] ] O.=.' ' ' m ",
"5 * ; = * = = = 5 * = = * - = = 5 5 5 5 M [ ] ] ] 5 5 5 5 5 5 5 5 M ' ' ] ] ] 5 5 5 5 5 5 5 5 M ",
"5 F F F D F F F 5 F D D D F F F 1.[ | 5 M ' ] ] ] w >.E ] X.] ' 6 M ' ^ ] ] ` w >.E ] =.] ' 6 M ",
"5 D S S x x x D 4 D x S x x x F ,.] ] 5 y 7 7 5 w e <.] [ [ ] ' 6 y 5 5 7 5 5 e <.] ] X.] ' 6 y ",
"5 x x x x x x S 6 S x x x S S S ,.] ] M [ [ W ^ ^ V <.] [ [ [ [ M ` ` W W ^ ^ V <.] [ #.] [ M _ ",
"; = ; 5 = ; - * ; = ; 5 * * * * 1.] ] M [ [ ] ] ` C <.] [ [ [ _ M ' ' ] ] ] ` C <.] { [ ] _ M / ",
"F F F 5 F D F F D F F 5 F F F F ,.] ] M [ [ ] ` ` V <.] [ [ [ ' M [ ' ] ] ` ` V <.] $.] ] ' M [ ",
"x S F 5 F x A S x S F 5 F x x F ,.] ] M [ [ ] ` ` V <.] { [ ] ] N [ ' ] ] ` ` V <.] { [ ] ] N [ ",
"x x S 5 S S x A x S Z 5 x x x x 1.] ] M [ [ ] ] Q B >.] @.@.] [ N ^ ' ] ] ] Q B >.] @.@.] [ N T ",
"5 5 5 5 5 5 5 6 5 6 5 5 5 5 5 5 5 3 5 M [ [ ` ` ) M 7 5 5 5 5 5 M ~ ) ' ] ] ` M 7 5 5 5 5 5 M W ",
"1 g g g g j , , 1 h j g g g , , 1.[ ' [ M [ ` ` ` ,.] ] @.-.] [ [ M ` ' ] ] ] ,.] ] @.-.] [ [ M ",
"h h h g g h k < g g h g h h k , ,.[ [ ] B [ ` ` ` <.] [ [ [ [ ' ' M ` L ] ] ] <.] ] +.&.] ' ' M ",
"h h g g g g k 1 g g h g g h k @ 1.' ' ' y 7 5 5 7 <.] [ [ [ [ ' ' y 5 t 5 5 5 <.] ] $.=.' ' ' y ",
"g h h h h h k , g g h h h h z X ,.[ ' [ M [ ] ` ] <.] [ [ [ [ ] ` M K _ ] ] ` <.] ]  . .] ] ` M ",
"h g h g h g k , j g h g g g k   <.[ ' [ M ] ] ] ] <.] ] [ | ] ' ` M ' _ ] ] ] <.] ] [ | ] ' ` M ",
"h h h g g l k , g j g h g k k . ,.' ' [ M ] ] ] ] <.] ] ] ] ] ' ' M ] ] ] ] ] <.] ] ] ] ] ' ' M ",
"# z k k k k % , & k k k z z & . <.] [ [ M [ [ ] ] <.] ]  .@.' ' _ m ] ] ] ] ] <.] ]  .@.' ' _ m ",
", & & % # # , , , & % # & % , . 5 5 5 5 M [ ] ` ] 5 w 5 5 5 5 5 5 M ` ] ] ] ] 5 w 5 5 5 5 5 5 M ",
", p i a p i , , > g h g h g > . 1.[ | 5 b [ ` ` ` w :.` Q +.[ ' r b ! ^ Q ] ] w :.` Q +.[ ' r b ",
"i u p p p u s , h g h g h g k o ,.] [ 5 y 5 7 5 7 e <.] { %.] ' 6 y 5 e 7 5 w e <.] { %.] ' 6 y ",
"p i p i i u f < h h h h g h k O ,.| ' M [ [ W Y _ V <.] ] X.] ] M _ ^ ^ W Y _ V <.] ] X.] ] M ^ ",
"u p p i i p d , g h g g g g z + 1.[ ' M [ ' ] ' ` V <.] ] ] ] ' M ] [ _ ] ' ` V <.] ] ] ] ' M ' ",
"p u p u i u s , h h g h g h k : ,.' ' M [ [ ] ` ` V <.] [ X.' ' M ] ' ] ] ` ` V <.] [ X.' ' M ' ",
"i p p p p d d , h h g h h k k < ,.[ [ M [ [ ] ] ] V <.] ] ] ] ' m [ ' ] ] ] ] V <.] ] ] ] ' m [ ",
"# d f d d f & , # k k z k k $ < 1.' ' M [ ` ` ` ` B >.] { +.' [ B ' _ ] ] ] Q B >.] { +.' [ B ' ",
", # % & & & < , < & & % # & < < 5 3 5 M [ ` ` ` ` M 5 5 5 5 5 w M [ [ ' ] ` E M 5 5 5 5 5 w M [ "
};
