/* XPM */
static char *result[] = {
/* columns rows colors chars-per-pixel */
"48 48 41 1 ",
"  c gray7",
". c #3E2826",
"X c #3E2926",
"o c #3F2927",
"O c #38272D",
"+ c #38282D",
"@ c #53312F",
"# c #53322F",
"$ c #54322F",
"% c #543230",
"& c #553430",
"* c #553431",
"= c #603E3B",
"- c #603F3B",
"; c #613F3B",
": c #653C38",
"> c #663C38",
", c #613F3C",
"< c #6D3E3A",
"1 c #6D3F3A",
"2 c #6E3F3A",
"3 c #6E3F3B",
"4 c #563D45",
"5 c #563E45",
"6 c #563E46",
"7 c #573E46",
"8 c #7C4641",
"9 c #7D4642",
"0 c #7D4742",
"q c #83504A",
"w c #84504A",
"e c #84504B",
"r c #84514B",
"t c #9C5C56",
"y c #9D5C56",
"u c #9D5D56",
"i c #9D5D57",
"p c gray54",
"a c #8B8B8B",
"s c #A5A5A5",
"d c gray65",
/* pixels */
"6eeqwe567qqeer566eeqwe567qqeer566eeqwe567qqeer56",
"eeweequ5wwqqqet6eeweequ5wwqqqet6eeweequ5wwqqqet6",
"ewqewqu6eewqqqt6ewqewqu6eewqqqt6ewqewqu6eewqqqt6",
"rewweet6eerwqet6rewweet6eerwqet6rewweet6eerwqet6",
"eeqeewu6eqeeqwu5eeqeewu6eqeeqwu5eeqeewu6eqeeqwu5",
"qewwquu5eeeeeuy4qewwquu5eeeeeuy4qewwquu5eeeeeuy4",
"-yuutu,6-uuuut,4-yuutu,6-uuuut,4-yuutu,6-uuuut,4",
"6=,,,=765,,-,,446=,,,=765,,-,,446=,,,=765,,-,,44",
"4ewewe656qeqw     wewe656qeqwe     ewe656qeqwe66",
"qqrwwqy6eqeq pappd wwqy6eqeqq pappd wqy6eqeqqqy6",
"qqwwqwy6wqe p$3001s qwy6wqee p$3001s wy6wqeeewi7",
"qrwqewu5ee p@239922s wu5eee p@239922s u5eeeqequ6",
"eweqeeu6we p$389902d eu6weq p$389902d u6weqeweu6",
"ereqeyy4qw  p%1223s  yy4qwe  p%1223s  y4qweqqyi6",
",yutuu,7,y %@pppps21 u,7,yu %@pppps21 ,7,yuuut=7",
"6-,,;-465, p%90<901s -465,- p%90<901s 465,---,46",
"6eeqwe567q %p98309d1 ewwqeq %p98309d1 567qqeer56",
"eeweequ5ww $#ppapp<3 rqqeqw $#ppapp<3 u5wwqqqet6",
"ewqewqu6ee $900199<< eqeqqw $900199<< u6eewqqqt6",
"rewweet6ee* %90<001 &eqeeeq* %90<001 *t6eerwqet6",
"eeqeewu6eq** <33<2 &&ewqewr*& <33<2 *&u6eqeeqwu5",
"qewwquu5ee***     **&eqqwwq&&*     &&>u5eeeeeuy4",
"-yuutu,6-u>>>:oO&****wqeewq***>OX>>>:>,6-uuuut,4",
"6=,,,=765,,XooOO&***eewrwqqr&*>++.ooo=765,,-,,44",
"4ewewe656qeqw     eeqeereqeeqq     ewe656qeqwe66",
"qqrwwqy6eqeq pappd eqqqqqqqqe pappd wqy6eqeqqqy6",
"qqwwqwy6wqe p$3001s wweewwee p$3001s wy6wqeeewi7",
"qrwqewu5ee p@239922s eeeqee p@239922s u5eeeqequ6",
"eweqeeu6we p$389902d eqerqe p$389902d u6weqeweu6",
"ereqeyy4qw  p%1223s  weqeqq  p%1223s  y4qweqqyi6",
",yutuu,7,y %@pppps21 uuuyuu %@pppps21 ,7,yuuut=7",
"6-,,;-465, p%90<901s -,---= p%90<901s 465,---,46",
"6eeqwe567q %p98309d1 e567qq %p98309d1 567qqeer56",
"eeweequ5ww $#ppapp<3 qu5wwq $#ppapp<3 u5wwqqqet6",
"ewqewqu6ee $900199<< qu6eew $900199<< u6eewqqqt6",
"rewweet6ee* %90<001 *et6eer& %90<001 *t6eerwqet6",
"eeqeewu6eq** <33<2 **wu6eqe*& <33<2 *&u6eqeeqwu5",
"qewwquu5ee***     &&&uu5eee**>     &&>u5eeeeeuy4",
"-yuutu,6-u>>>:oOX>>>:u,6-uu>>:oOX>>>:>,6-uuuut,4",
"6=,,,=765,,XooOO+.oo,=765,,-ooOO+.ooo=765,,-,,44",
"4ewewe656qeqwe664ewewe656qeqwe664ewewe656qeqwe66",
"qqrwwqy6eqeqqqy6qqrwwqy6eqeqqqy6qqrwwqy6eqeqqqy6",
"qqwwqwy6wqeeewi7qqwwqwy6wqeeewi7qqwwqwy6wqeeewi7",
"qrwqewu5eeeqequ6qrwqewu5eeeqequ6qrwqewu5eeeqequ6",
"eweqeeu6weqeweu6eweqeeu6weqeweu6eweqeeu6weqeweu6",
"ereqeyy4qweqqyi6ereqeyy4qweqqyi6ereqeyy4qweqqyi6",
",yutuu,7,yuuut=7,yutuu,7,yuuut=7,yutuu,7,yuuut=7",
"6-,,;-465,---,466-,,;-465,---,466-,,;-465,---,46"
};
