/* XPM */
static char *result[] = {
/* columns rows colors chars-per-pixel */
"48 48 6 1 ",
"  c #613F3B",
". c #2A304E",
"X c #563E46",
"o c #84504A",
"O c #9D5D56",
"+ c #FCFEFE",
/* pixels */
"XoooooXXXoooooXXXoooooXXXoooooXXXoooooXXXoooooXX",
"ooooooOXooooooOXooooooOXooooooOXooooooOXooooooOX",
"ooooooOXooooooOXooooooOXooooooOXooooooOXooooooOX",
"ooooooOXooooooOXooooooOXooooooOXooooooOXooooooOX",
"ooooooOXooooooOXooooooOXooooooOXooooooOXooooooOX",
"oooooOOXoooooOOXoooooOOXoooooOOXoooooOOXoooooOOX",
" OOOOO X OOOOO X OOOOO X OOOOO X OOOOO X OOOOO X",
"X     XXX     XXX     XXX     XXX     XXX     XX",
"XoooooXXXoooooXXXoooooXXXoooooXXXoooooXXXoooooXX",
"ooooooOXooooooOXooooooOXooooooOXooooooOXooooooOX",
"ooooooOXooooooOXooooooOXooooooOXooooooOXooooooOX",
"ooooooOXooooooOXooooooOXooooooOXooooooOXooooooOX",
"ooooooOXooooooOXooooooOXooooooOXooooooOXooooooOX",
"oooooOOXoooooOOXoooooOOXoooooOOXoooooOOXoooooOOX",
" OOOOO X OOOOO X ..... X OOOOO X OOOOO X OOOOO X",
"X     XXX     X..+++++..X     XXX     XXX     XX",
"XoooooXXXooooo.+++++++++.oooooXXXoooooXXXoooooXX",
"ooooooOXooooo.+++++++++++.ooooOXooooooOXooooooOX",
"ooooooOXoooo.++++++++++++.ooooOXooooooOXooooooOX",
"ooooooOXoooo.+++++++++++++.oooOXooooooOXooooooOX",
"ooooooOXooo.++++++++++++++.oooOXooooooOXooooooOX",
"oooooOOXooo.++++++++++++++.oooOXoooooOOXoooooOOX",
" OOOOO X OO.++++++++++++++.oooOX OOOOO X OOOOO X",
"X     XXX  .+++++++++++++++.ooOXX     XXX     XX",
"XoooooXXXoo.++++++++++++++++..OXXoooooXXXoooooXX",
"ooooooOXoooo.+++++++++++++++++.XooooooOXooooooOX",
"ooooooOXoooo.++.+++++++++++++++...ooooOXooooooOX",
"ooooooOXoooo...X.+++++++++++++++++..ooOXooooooOX",
"ooooooOXooooooO.++++++++++++++++++++.oOXooooooOX",
"oooooOOXoooooOO.+++++.++++++++++++++.OOXoooooOOX",
" OOOOO X OOOOO .++++.O..++++++...+++.O X OOOOO X",
"X     XXX     XX....    ..+++.XXX...  XXX     XX",
"XoooooXXXoooooXXXoooooXXXo...oXXXoooooXXXoooooXX",
"ooooooOXooooooOXooooooOXooooooOXooooooOXooooooOX",
"ooooooOXooooooOXooooooOXooooooOXooooooOXooooooOX",
"ooooooOXooooooOXooooooOXooooooOXooooooOXooooooOX",
"ooooooOXooooooOXooooooOXooooooOXooooooOXooooooOX",
"oooooOOXoooooOOXoooooOOXoooooOOXoooooOOXoooooOOX",
" OOOOO X OOOOO X OOOOO X OOOOO X OOOOO X OOOOO X",
"X     XXX     XXX     XXX     XXX     XXX     XX",
"XoooooXXXoooooXXXoooooXXXoooooXXXoooooXXXoooooXX",
"ooooooOXooooooOXooooooOXooooooOXooooooOXooooooOX",
"ooooooOXooooooOXooooooOXooooooOXooooooOXooooooOX",
"ooooooOXooooooOXooooooOXooooooOXooooooOXooooooOX",
"ooooooOXooooooOXooooooOXooooooOXooooooOXooooooOX",
"oooooOOXoooooOOXoooooOOXoooooOOXoooooOOXoooooOOX",
" OOOOO X OOOOO X OOOOO X OOOOO X OOOOO X OOOOO X",
"X     XXX     XXX     XXX     XXX     XXX     XX"
};
