/* XPM */
static char *result[] = {
/* columns rows colors chars-per-pixel */
"48 48 5 1 ",
"  c #613F3B",
". c #563E46",
"X c #84504A",
"o c #9D5D56",
"O c #FCFEFE",
/* pixels */
".XXXXX...XXXXX...XXXXX...XXXXX...XXXXX...XXXXX..",
"XXXXXXo.XXXXXXo.XXXXXXo.XXXXXXo.XXXXXXo.XXXXXXo.",
"XXXXXXo.XXXXXXo.XXXXXXo.XXXXXXo.XXXXXXo.XXXXXXo.",
"XXXXXXo.XXXXXXo.XXXXXXo.XXXXXXo.XXXXXXo.XXXXXXo.",
"XXXXXXo.XXXXXXo.XXXXXXo.XXXXXXo.XXXXXXo.XXXXXXo.",
"XXXXXoo.XXXXXoo.XXXXXoo.XXXXXoo.XXXXXoo.XXXXXoo.",
" ooooo . ooooo . ooooo . ooooo . ooooo . ooooo .",
".     ...     ...     ...     ...     ...     ..",
".XXXXX...XXXXX...XXXXX...XXXXX...XXXXX...XXXXX..",
"XXXXXXo.XXXXXXo.XXXXXXo.XXXXXXo.XXXXXXo.XXXXXXo.",
"XXXXXXo.XXXXXXo.XXXXXXo.XXXXXXo.XXXXXXo.XXXXXXo.",
"XXXXXXo.XXXXXXo.XXXXXXo.XXXXXXo.XXXXXXo.XXXXXXo.",
"XXXXXXo.XXXXXXo.XXXXXXo.XXXXXXo.XXXXXXo.XXXXXXo.",
"XXXXXoo.XXXXXoo.XXXXXoo.XXXXXoo.XXXXXoo.XXXXXoo.",
" ooooo . ooooo . ooooo . ooooo . ooooo . ooooo .",
".     ...     ...     ...     ...     ...     ..",
".XXXXX...XXXXX...XXXXXXXXXXXXX...XXXXX...XXXXX..",
"XXXXXXo.XXXXXXo.XXOOOOXXXXXXXXo.XXXXXXo.XXXXXXo.",
"XXXXXXo.XXXXXXo.XOOOOOOXXXXXXXo.XXXXXXo.XXXXXXo.",
"XXXXXXo.XXXXXXo.XOOOXOOOXXXXXXo.XXXXXXo.XXXXXXo.",
"XXXXXXo.OOXXXXo.XOOXXXOXXXXXXXo.XXXXOOO.XXXXXXo.",
"XXXXXoo.OOOXXoo.XOOXXXOXXXXXXXo.XXXOOOOOXXXXXoo.",
" ooooo .OOOooo .XXOOXXXXXXXXXXo. oOOooOO ooooo .",
".     ..O O   ..XXXXXXXXXXXXXXo.. OO  .O.     ..",
".XXXXX..OXXXXX..XXXOOXXXXXXXXXo..XXOOX.O.XXXXX..",
"XXXXXXo.OXXXXXo.XXOOOOXXXXXXXXo.XXXXXXoOXXXXXXo.",
"XXXXXXo.XXXXXXo.XXOOOOXXXXXXOOo.XXXXXXo.XXXXXXo.",
"XXXXXXo.XXXXXXo.XXXOOXXXOOOXOOo.XXXXXXo.XXXXXXo.",
"XXXXXXo.XXXXXXo.XXXXOOOOOOOOXXo.XXXXXXo.XXXXXXo.",
"XXXXXoo.XXXXXoo.XXOOOOOOOOOOOOOOXXXXXoo.XXXXXoo.",
" ooooo . ooooo . ooooooooooooo . ooooo . ooooo .",
".     ...     ...             ...     ...     ..",
".XXXXX...XXXXX...XXXXX...XXXXX...XXXXX...XXXXX..",
"XXXXXXo.XXXXXXo.XXXXXXo.XXXXXXo.XXXXXXo.XXXXXXo.",
"XXXXXXo.XXXXXXo.XXXXXXo.XXXXXXo.XXXXXXo.XXXXXXo.",
"XXXXXXo.XXXXXXo.XXXXXXo.XXXXXXo.XXXXXXo.XXXXXXo.",
"XXXXXXo.XXXXXXo.XXXXXXo.XXXXXXo.XXXXXXo.XXXXXXo.",
"XXXXXoo.XXXXXoo.XXXXXoo.XXXXXoo.XXXXXoo.XXXXXoo.",
" ooooo . ooooo . ooooo . ooooo . ooooo . ooooo .",
".     ...     ...     ...     ...     ...     ..",
".XXXXX...XXXXX...XXXXX...XXXXX...XXXXX...XXXXX..",
"XXXXXXo.XXXXXXo.XXXXXXo.XXXXXXo.XXXXXXo.XXXXXXo.",
"XXXXXXo.XXXXXXo.XXXXXXo.XXXXXXo.XXXXXXo.XXXXXXo.",
"XXXXXXo.XXXXXXo.XXXXXXo.XXXXXXo.XXXXXXo.XXXXXXo.",
"XXXXXXo.XXXXXXo.XXXXXXo.XXXXXXo.XXXXXXo.XXXXXXo.",
"XXXXXoo.XXXXXoo.XXXXXoo.XXXXXoo.XXXXXoo.XXXXXoo.",
" ooooo . ooooo . ooooo . ooooo . ooooo . ooooo .",
".     ...     ...     ...     ...     ...     .."
};
