/* XPM */
static char *result[] = {
/* columns rows colors chars-per-pixel */
"48 48 13 1 ",
"  c #1C121B",
". c #1C1A30",
"X c #5E2C29",
"o c #613F3B",
"O c #2A304E",
"+ c #563E46",
"@ c #FC5003",
"# c #84504A",
"$ c #9D5D56",
"% c #FDA216",
"& c #667291",
"* c #94A0BA",
"= c #FCFEFE",
/* pixels */
"+#####+++#####+++#####+++#####+++#####+++#####++",
"######$+######$+######$+######$+######$+######$+",
"######$+######$+######$+######$+######$+######$+",
"######$+######$+######$+######$+######$+######$+",
"######$+######$+######$+######$+######$+######$+",
"#####$$+#####$$+#####$$+#####$$+#####$$+#####$$+",
"o$$$$$o+o$$$$$o+o$$$$$o+o$$$$$o+o$$$$$o+o$$$$$o+",
"+ooooo+++ooooo+++ooooo+++ooooo+++ooooo+++ooooo++",
"+#####+++#####+++#####+++#####+++#####+++#####++",
"######$+######$+####OOOO######$+######$+######$+",
"######$+######$+##OO===*OOO###$+######$+######$+",
"######$+######$+OO======***O##$+######$+######$+",
"######$+######$O====&&&&&&&&O#$+######$+######$+",
"#####$$+#####$O====&&&&&&&&&OO$+#####$$+#####$$+",
"o$$$$$o+o$$$$O=====&&&OO&&&&=Oo+o$$$$$o+o$$$$$o+",
"+ooooo+++oooO======&&O==&&&&=&O++ooooo+++ooooo++",
"+#####+++###O=====&&&.==&&&&.&O++#####+++#####++",
"######$+###O======&&&...&   &&&O######$+######$+",
"######$+###O==&===&&&&&&&    &&O######$+######$+",
"######$+###O==&===&&&&&&& OO&&&O######$+######$+",
"######$+###OOOO*===&&&&&&&&&&&O+######$+######$+",
"#####$$+#####$O=====&&&&&&&*&&O+#####$$+#####$$+",
"o$$$$$o+o$$$$$oO====&&&&&==**O$+o$$$$$o+o$$$$$o+",
"+ooooo+++ooooo+O==========**O#$++ooooo+++ooooo++",
"+#####+++#####++O========***XO$++#####+++#####++",
"######$+######$+#OXXXX*****X&&OO######$+######$+",
"######$+######$+#O===*XXXXX%%&&&OO####$+######$+",
"######$+######$+O=========@%%%&&&&O###$+######$+",
"######$+######$O======&===*@%%%&&&O###$+######$+",
"#####$$+#####$O======&====**@%*O&&O##$$+#####$$+",
"o$$$$$o+o$$$$$O=====OO====*****&OO$$$$o+o$$$$$o+",
"+ooooo+++oooooO====OoO=====****&&Ooooo+++ooooo++",
"+#####+++#####+OOOO##O=====***&&&&O###+++#####++",
"######$+######$+######O=====**&&&&&O##$+######$+",
"######$+######$+######O=====*OO&&&&O##$+######$+",
"######$+######$+######$O====O#$O&&&O##$+######$+",
"######$+######$+######$+O===O#$+OOO###$+######$+",
"#####$$+#####$$+#####$$+#OOO#$$+#####$$+#####$$+",
"o$$$$$o+o$$$$$o+o$$$$$o+o$$$$$o+o$$$$$o+o$$$$$o+",
"+ooooo+++ooooo+++ooooo+++ooooo+++ooooo+++ooooo++",
"+#####+++#####+++#####+++#####+++#####+++#####++",
"######$+######$+######$+######$+######$+######$+",
"######$+######$+######$+######$+######$+######$+",
"######$+######$+######$+######$+######$+######$+",
"######$+######$+######$+######$+######$+######$+",
"#####$$+#####$$+#####$$+#####$$+#####$$+#####$$+",
"o$$$$$o+o$$$$$o+o$$$$$o+o$$$$$o+o$$$$$o+o$$$$$o+",
"+ooooo+++ooooo+++ooooo+++ooooo+++ooooo+++ooooo++"
};
