/* XPM */
static char *result[] = {
/* columns rows colors chars-per-pixel */
"48 48 5 1 ",
"  c #613F3B",
". c #563E46",
"X c #84504A",
"o c #9D5D56",
"O c #FCFEFE",
/* pixels */
".XXXXX...XXXXX...XXXXX...XXXXX...XXXXX...XXXXX..",
"XXXXXXo.XXXXXXo.XXXXXXo.XXXXXXo.XXXXXXo.XXXXXXo.",
"XXXXXXo.XXXXXXo.XXXXXXo.XXXXXXo.XXXXXXo.XXXXXXo.",
"XXXXXXo.XXXXXXo.XXXXXXo.XXXXXXo.XXXXXXo.XXXXXXo.",
"XXXXXXo.XXXXXXo.XXXXXXo.XXXXXXo.XXXXXXo.XXXXXXo.",
"XXXXXoo.XXXXXoo.XXXXXoo.XXXXXoo.XXXXXoo.XXXXXoo.",
" ooooo . ooooo . ooooo . ooooo . ooooo . ooooo .",
".     ...     ...     ...     ...     ...     ..",
".XXXXX...XXXXX...XXXXX...XXXXX...XXXXX...XXXXX..",
"XXXXXXo.XXXXXXo.XXXXXXo.XXXXXXo.XXXXXXo.XXXXXXo.",
"XXXXXXo.XXXXXXo.XXXXXXo.XXXXXXo.XXXXXXo.XXXXXXo.",
"XXXXXXo.XXXXXXo.XXXXXXo.XXXXXXo.XXXXXXo.XXXXXXo.",
"XXXXXXo.XXXXXXo.XXXXXXo.XXXXXXo.XXXXXXo.XXXXXXo.",
"XXXXXoo.XXXXXoo.XXXXXoo.XXXXXoo.XXXXXoo.XXXXXoo.",
" ooooo . ooooo . ooooo . ooooo . ooooo . ooooo .",
".     ...     ...     ...     ...     ...     ..",
".XXXXX...XXXXX...XXXXXXXXXXXXX...XXXXX...XXXXX..",
"XXXXXXo.XXXXXXo.XXXXXXXXXXXXXXo.XXXXXXo.XXXXXXo.",
"XXXXXXo.XXXXXXo.XXOOOXXXXXXXXXo.XXXXXXo.XXXXXXo.",
"XXXXXXo.XXXXXXoOOOOOOOOXXXXXXXo.XXXXXXo.XXXXXXo.",
"XXXXXXo.XXXXXXOOOOOOOOOOXXXXXXo.XXXXXXo.XXXXXXo.",
"XXXXXoo.XXXXXoO.XOOOOOOOXXXXXXo.XXXXXoo.XXXXXoo.",
" ooooo . ooooo .XOOOOOOOOXXXXXo. oOOOo . ooooo .",
".     ...     ..OOOOOOOOOOXXXXo..  OO ...     ..",
".XXXXX...XOOXX.OOOOOOOOOOOOOXXo..XXOOO...XXXXX..",
"XXXXXXo.XOOXXOOOOOOOOOOOOOOOOOO.XOOOOOo.XXXXXXo.",
"XXXXXXo.XOOOOOOOOOOOOOOOOOOOOOOOOOOOOOo.XXXXXXo.",
"XXXXXXo.XOOOOOOOOOOOOOOOOOOOOOOOOOOOOOo.XXXXXXo.",
"XXXXXXo.XXOOOOOOOOOOOOOOOOOOOOOOOOOOOXo.XXXXXXo.",
"XXXXXoo.XXXXXoo.XXXXXXXXXXXXXoo.XXXXXoo.XXXXXoo.",
" ooooo . ooooo . ooooooooooooo . ooooo . ooooo .",
".     ...     ...             ...     ...     ..",
".XXXXX...XXXXX...XXXXX...XXXXX...XXXXX...XXXXX..",
"XXXXXXo.XXXXXXo.XXXXXXo.XXXXXXo.XXXXXXo.XXXXXXo.",
"XXXXXXo.XXXXXXo.XXXXXXo.XXXXXXo.XXXXXXo.XXXXXXo.",
"XXXXXXo.XXXXXXo.XXXXXXo.XXXXXXo.XXXXXXo.XXXXXXo.",
"XXXXXXo.XXXXXXo.XXXXXXo.XXXXXXo.XXXXXXo.XXXXXXo.",
"XXXXXoo.XXXXXoo.XXXXXoo.XXXXXoo.XXXXXoo.XXXXXoo.",
" ooooo . ooooo . ooooo . ooooo . ooooo . ooooo .",
".     ...     ...     ...     ...     ...     ..",
".XXXXX...XXXXX...XXXXX...XXXXX...XXXXX...XXXXX..",
"XXXXXXo.XXXXXXo.XXXXXXo.XXXXXXo.XXXXXXo.XXXXXXo.",
"XXXXXXo.XXXXXXo.XXXXXXo.XXXXXXo.XXXXXXo.XXXXXXo.",
"XXXXXXo.XXXXXXo.XXXXXXo.XXXXXXo.XXXXXXo.XXXXXXo.",
"XXXXXXo.XXXXXXo.XXXXXXo.XXXXXXo.XXXXXXo.XXXXXXo.",
"XXXXXoo.XXXXXoo.XXXXXoo.XXXXXoo.XXXXXoo.XXXXXoo.",
" ooooo . ooooo . ooooo . ooooo . ooooo . ooooo .",
".     ...     ...     ...     ...     ...     .."
};
