/* XPM */
static char *result[] = {
/* columns rows colors chars-per-pixel */
"48 48 5 1 ",
"  c #613F3B",
". c #563E46",
"X c #84504A",
"o c #9D5D56",
"O c #FCFEFE",
/* pixels */
".XXXXX...XXXXX...XXXXX...XXXXX...XXXXX...XXXXX..",
"XXXXXXo.XXXXXXo.XXXXXXo.XXXXXXo.XXXXXXo.XXXXXXo.",
"XXXXXXo.XXXXXXo.XXXXXXo.XXXXXXo.XXXXXXo.XXXXXXo.",
"XXXXXXo.XXXXXXo.XXXXXXo.XXXXXXo.XXXXXXo.XXXXXXo.",
"XXXXXXo.XXXXXXo.XXXXXXo.XXXXXXo.XXXXXXo.XXXXXXo.",
"XXXXXoo.XXXXXoo.XXXXXoo.XXXXXoo.XXXXXoo.XXXXXoo.",
" ooooo . ooooo . ooooo . ooooo . ooooo . ooooo .",
".     ...     ...     ...     ...     ...     ..",
".XXXXX...XXXXX...XXXXX...XXXXX...XXXXX...XXXXX..",
"XXXXXXo.XXXXXXo.XXXXXXo.XXXXXXo.XXXXXXo.XXXXXXo.",
"XXXXXXo.XXXXXXo.XXXXXXo.XXXXXXo.XXXXXXo.XXXXXXo.",
"XXXXXXo.XXXXXXo.XXXXXXo.XXXXXXo.XXXXXXo.XXXXXXo.",
"XXXXXXo.XXXXXXo.XXXXXXo.XXXXXXo.XXXXXXo.XXXXXXo.",
"XXXXXoo.XXXXXoo.XXXXXoo.XXXXXoo.XXXXXoo.XXXXXoo.",
" ooooo . ooooo . ooooo . ooooo . ooooo . ooooo .",
".     ...     ...     ...     ...     ...     ..",
".XXXXX...XXXXX...XOOXXXXXXXXXX...XXXXX...XXXXX..",
"XXXXXXo.XXXXXXo.XOOXOXXXXXXXXXo.XXXXXXo.XXXXXXo.",
"XXXXXXo.XXXXXXo.XOOXXXXXXXXXXXo.XXXXXXo.XXXXXXo.",
"XXXXXXo.XXXXXXo.XOOXXXXXXXXXXXo.XXXXXXo.XXXXXXo.",
"XXXXXXo.OOXXXXo.XXOOXXXXXXXXXXo.XXXXXXo.XXXXXXo.",
"XXXXXoo.OOXXXoo.XXXXXXXXXXXXXXo.XXXXOOo.XXXXXoo.",
" ooooo . Ooooo .XXXXXXXXXXXXXXo. oooOO . ooooo .",
".     ..O     ..XXXXXXXXXXXXXXo..    OO..     ..",
".XXXXX...XXXXX..XXXXXXXXXXXXXXo..XXXXX...XXXXX..",
"XXXXXXo.XXXXXXo.XOOXXXXXXXXXXXo.XXXXXXo.XXXXXXo.",
"XXXXXXo.XXXXXXo.XOOXXXXXXXXXXXoOXXXXXXo.XXXXXXo.",
"XXXXXXo.XXXXXXo.XXXXXXXXXXXXXXOOXXXXXXo.XXXXXXo.",
"XXXXXXo.XXXXXXo.XXXXXXXXXXXXXXo.XXXXXXo.XXXXXXo.",
"XXXXXoo.XXXXXoo.XXXXXXXXXXXXXoo.XXXXXoo.XXXXXoo.",
" ooooo . ooooo . ooooOOOOOOOOo . ooooo . ooooo .",
".     ...     ...             ...     ...     ..",
".XXXXX...XXXXX...XXXXX...XXXXX...XXXXX...XXXXX..",
"XXXXXXo.XXXXXXo.XXXXXXo.XXXXXXo.XXXXXXo.XXXXXXo.",
"XXXXXXo.XXXXXXo.XXXXXXo.XXXXXXo.XXXXXXo.XXXXXXo.",
"XXXXXXo.XXXXXXo.XXXXXXo.XXXXXXo.XXXXXXo.XXXXXXo.",
"XXXXXXo.XXXXXXo.XXXXXXo.XXXXXXo.XXXXXXo.XXXXXXo.",
"XXXXXoo.XXXXXoo.XXXXXoo.XXXXXoo.XXXXXoo.XXXXXoo.",
" ooooo . ooooo . ooooo . ooooo . ooooo . ooooo .",
".     ...     ...     ...     ...     ...     ..",
".XXXXX...XXXXX...XXXXX...XXXXX...XXXXX...XXXXX..",
"XXXXXXo.XXXXXXo.XXXXXXo.XXXXXXo.XXXXXXo.XXXXXXo.",
"XXXXXXo.XXXXXXo.XXXXXXo.XXXXXXo.XXXXXXo.XXXXXXo.",
"XXXXXXo.XXXXXXo.XXXXXXo.XXXXXXo.XXXXXXo.XXXXXXo.",
"XXXXXXo.XXXXXXo.XXXXXXo.XXXXXXo.XXXXXXo.XXXXXXo.",
"XXXXXoo.XXXXXoo.XXXXXoo.XXXXXoo.XXXXXoo.XXXXXoo.",
" ooooo . ooooo . ooooo . ooooo . ooooo . ooooo .",
".     ...     ...     ...     ...     ...     .."
};
