/* XPM */
static char *result[] = {
/* columns rows colors chars-per-pixel */
"48 48 5 1 ",
"  c #613F3B",
". c #563E46",
"X c #84504A",
"o c #9D5D56",
"O c #FCFEFE",
/* pixels */
".XXXXX...XXXXX...XXXXX...XXXXX...XXXXX...XXXXX..",
"XXXXXXo.XXXXXXo.XXXXXXo.XXXXXXo.XXXXXXo.XXXXXXo.",
"XXXXXXo.XXXXXXo.XXXXXXo.XXXXXXo.XXXXXXo.XXXXXXo.",
"XXXXXXo.XXXXXXo.XXXXXXo.XXXXXXo.XXXXXXo.XXXXXXo.",
"XXXXXXo.XXXXXXo.XXXXXXo.XXXXXXo.XXXXXXo.XXXXXXo.",
"XXXXXoo.XXXXXoo.XXXXXoo.XXXXXoo.XXXXXoo.XXXXXoo.",
" ooooo . ooooo . ooooo . ooooo . ooooo . ooooo .",
".     ...     ...     ...     ...     ...     ..",
".XXXXX...XXXXX...XXXXX...XXXXX...XXXXX...XXXXX..",
"XXXXXXo.XXXXXXo.XXXXXXo.XXXXXXo.XXXXXXo.XXXXXXo.",
"XXXXXXo.XXXXXXo.XXXXXXo.XXXXXXo.XXXXXXo.XXXXXXo.",
"XXXXXXo.XXXXXXo.XXXXXXo.XXXXXXo.XXXXXXo.XXXXXXo.",
"XXXXXXo.XXXXXXo.XXXXXXo.XXXXXXo.XXXXXXo.XXXXXXo.",
"XXXXXoo.XXXXXoo.XXXXXoo.XXXXXoo.XXXXXoo.XXXXXoo.",
" ooooo . ooooo . ooooo . ooooo . ooooo . ooooo .",
".     ...     ...     ...     ...     ...     ..",
".XXXXX...XXXXX...XXXXXXXXXXXXX...XXXXX...XXXXX..",
"XXXXXXo.XXXXXXo.XXXXXXXXXXXXXXo.XXXXXXo.XXXXXXo.",
"XXXXXXo.XXXXXXo.XOOOOXXXXXXXXXo.XXXXXXo.XXXXXXo.",
"XXXXXXo.XXXXXXo.OOOOOOOXXXXXXXo.XXXXXXo.XXXXXXo.",
"XXXXXXo.XXXXXXo.OOOOOOOOXXXXXXo.XXXXXXo.XXXXXXo.",
"XXXXXoo.XXXXXoo.OOXXOOOOXXXXXXo.XXOOOoo.XXXXXoo.",
" ooooo . ooooo .OOXXXOOXXXXXXXo. oOOOOO. ooooo .",
".     ...OO   ..OXXXOOXXXXXXXXo..O  OOO..     ..",
".XXXXX..OOOOXX..XXXOOOOXXXXXXXo..XXXXOOO.XXXXX..",
"XXXXXXo.OOXXXXo.XXXOOOOXXXXXXXo.XXXXXOOOXXXXXXo.",
"XXXXXXo.OOOXXXo.XXXXOOOOOOOXXXo.XXXXXOOOXXXXXXo.",
"XXXXXXo.XOOOXXo.XXXOOOOOOOOOOXo.XXXXOOOOXXXXXXo.",
"XXXXXXo.XXOOOOo.XOOOOOOOOOOOOOO.XXOOOOO.XXXXXXo.",
"XXXXXoo.XXXXXoo.OOOOOOOOOOOOOOOOOXXXXoo.XXXXXoo.",
" ooooo . ooooo . ooooooooooooo . ooooo . ooooo .",
".     ...     ...             ...     ...     ..",
".XXXXX...XXXXX...XXXXX...XXXXX...XXXXX...XXXXX..",
"XXXXXXo.XXXXXXo.XXXXXXo.XXXXXXo.XXXXXXo.XXXXXXo.",
"XXXXXXo.XXXXXXo.XXXXXXo.XXXXXXo.XXXXXXo.XXXXXXo.",
"XXXXXXo.XXXXXXo.XXXXXXo.XXXXXXo.XXXXXXo.XXXXXXo.",
"XXXXXXo.XXXXXXo.XXXXXXo.XXXXXXo.XXXXXXo.XXXXXXo.",
"XXXXXoo.XXXXXoo.XXXXXoo.XXXXXoo.XXXXXoo.XXXXXoo.",
" ooooo . ooooo . ooooo . ooooo . ooooo . ooooo .",
".     ...     ...     ...     ...     ...     ..",
".XXXXX...XXXXX...XXXXX...XXXXX...XXXXX...XXXXX..",
"XXXXXXo.XXXXXXo.XXXXXXo.XXXXXXo.XXXXXXo.XXXXXXo.",
"XXXXXXo.XXXXXXo.XXXXXXo.XXXXXXo.XXXXXXo.XXXXXXo.",
"XXXXXXo.XXXXXXo.XXXXXXo.XXXXXXo.XXXXXXo.XXXXXXo.",
"XXXXXXo.XXXXXXo.XXXXXXo.XXXXXXo.XXXXXXo.XXXXXXo.",
"XXXXXoo.XXXXXoo.XXXXXoo.XXXXXoo.XXXXXoo.XXXXXoo.",
" ooooo . ooooo . ooooo . ooooo . ooooo . ooooo .",
".     ...     ...     ...     ...     ...     .."
};
