/* XPM */
static char *result[] = {
/* columns rows colors chars-per-pixel */
"48 48 17 1 ",
"  c #0B031A",
". c #0B041A",
"X c #0C041A",
"o c #0C041B",
"O c #1C121B",
"+ c #1C1A30",
"@ c #5E2C29",
"# c #2A304E",
"$ c #5D3B44",
"% c #5D3B45",
"& c #5D3C45",
"* c #5E3C45",
"= c #FC5003",
"- c #FDA216",
"; c #667291",
": c #94A0BA",
"> c #FCFEFE",
/* pixels */
"$**$*&$$*$$*$&$**$$$**$$*&$&*&&*$$*$$$$***&**$&$",
"&$$$&&&&*&*$**&$$&$&$&*$**$*$&$$***$*&&$**$$$*&&",
"$&*&&*&*$**&&*$$&*$*$*&$$*$$*&$&$&&&*&&*$&*$*$$&",
"**&%*&&*$&*&&$*$$*$&$$***&$*$*&**$&$***&&$&$&&$&",
"*&ooo$**$&$.oo&*$&oXo&$*$$$ooX&$**.o.$*&$&*oXX*&",
"&ooXoX$$$$oXooo**o.Xoo*&&$. ooo&*oo.oo&**$ooo.o&",
"&..Xoo$*&*..ooo**ooooo*$$*.XXoo&$ooooo$*$&o.oo.$",
"$$.oo&$*$$&oo.$&$$o.o**$$$*ooo$*&*ooo*&&&** oo*$",
"&$&&&$$$&**$*$*$&&*&*$**$&***$$&*&&*$&***$***$$$",
"&&*$&$$&$&$$*&&*$&$*$$$$$&*&*$$$*$$&*$$**&**&$*$",
"***$$&*$&*$$&*$*&&**&$&*&$&$$$**&*&$$****$$*$&&*",
"$$&*&&*$**$$*$$$$$&$****&&$$$$&&*&**&$*&$*&&**$$",
"*$ooo$*****.oo&$$&o. $*$*$*oo.$*$&o..$*$$%$XXo&&",
"*ooo.o$$$*Xoo..&$oo.oo$*$&ooooo**o.ooo**&$o.ooo*",
"&oo..o&$*$oX.oo*$ooo######oo.oo$$ooo o$$$*oXooo&",
"*&o.X$**$&$o.o$$%&##>>>>>:##oo&&**ooo$$**&*ooo*&",
"$&*&&&$&**&&$&&*##>>>>>>>>::#&&*$$&*$*&$*$$$$$*$",
"&*$*$*$$***$$&*#>>>>>;;;;;;;:#*$&$&***$&*&$$$$$&",
"**&$*&&*$$$$$*#>>>>>;;;;;;;;;#&$$*$&&&*&&&*&*&&&",
"&**$$&$*%$$&$#>>>>>>;;;##;;;;##$**$$$$*$&&$$$$**",
"**ooo*%$$$&o#>>>>>>;;;#>>;;;;>#$&&ooX*$*&$$Xoo**",
"*ooo..$*$*.#>>>>>>>;;;+>>;;;;>#*&o.. o**$&oooXo$",
"$ooXoo&$&*o#>>>;>>>;;;+++;OO;+;#$ooooo$&*&o.ooo&",
"&$oo.*&**$*####;>>>;;;;;;;OOO;;#&&ooo**$*$*oXo$*",
"$*&&$*$&$$$*&&#:>>>;;;;;;;OOO;;#***$$**$$**$*&$*",
"*$*$&&$**&*$*$#>>>>>;;;;;;##O;;#&&$%**$*$$**&$$$",
"$**$$$$$&*&$$*&#>>>>;;;;;;;;;;#$$*&&$*$*&&$&&*$*",
"*$$*$$&$*$***&$#>>>>>;;;;>::;;#**$*&*$$&$$$&$*$%",
"&$ooo*$*&** oo&&#>>>>>>>>>:::#$*$&ooo&$&$$$ooo$&",
"$ooo o&&*&ooooo##@@>>>>>>:::#oo$$o.ooX*&$$o.ooo*",
"$oXoXo**$$ooXo#>>>:@@@@::::@;#.*$ooXoo&$&&ooooo$",
"$$oXX$$$&**oo#>>>>>>>>:@@@@;;#%$**ooo&$*$&&...&&",
"&&*$$$$&$$*&#>>>>>>>>>>>=--:;;#&$**&&*$**$$&**$$",
"%&&**&*$$$*$#>>>>;>>>>>>=--:;;#$*$$*$$$&$$$$*&$*",
"*$&&$*$$*&&*#>>>#;>>>>>>=--:;;#*$&$$&*&$&&&&**&$",
"$$*$*&**&&**$####:>>>>>>>::;##*$**&$**&*&&$$**&$",
"$$ooX$$&**$ooo**#>>>>>>>::;;;#&*$*Xoo**$*&$ooo**",
"$ooooX$$&&oXoXo$#>>>>>>#;;;;;#.&&Xoooo*$**oo oo$",
"$ooooo&$*&Xoooo*#>>>>>#*#;;;;#o*$oXoo.&&*&.Xooo$",
"%$ooo$**$*$o.o*$#>>>>#**#;;;;#$$$*ooo*$$$*&XX.**",
"&**$&*$&$$**$&$$&$&$$$**$***$$$$*&&*$*$$*$&*$$&$",
"**&$**&&$$&*$$$$$&$**&&&&&$$$$$*$$*$*&$&*$&$&**&",
"$**&*$$*$&*$*$%**$$&*$&$$$*$$$**&*$$&$***&&*$&&&",
"*$$*$$$$*$*&**$*&$*$&$$$$*&*$*$&&$$*$*$$*$$***$*",
"*&ooo$**$$$ooo&$$*Xoo$&&$$&.oo&$&*ooX*$&*$&ooX$&",
"*.Xooo%***oXoo.*&ooooo&**&oo.o &$ooooo*$$*.oooX$",
"*o.ooo$*$&o..oo$*ooooo*$$&oXooo&$ oooo&$*&ooooo&",
"$$ooo**$$$&oXo$*&$ooo&**$&$oo $&$$ooo*$***$ooo$$"
};
