/* XPM */
static char *result[] = {
/* columns rows colors chars-per-pixel */
"48 48 14 1 ",
"  c #0B031A",
". c #0B041A",
"X c #0C041A",
"o c #0C041B",
"O c #5D3B44",
"+ c #5D3B45",
"@ c #5D3C45",
"# c #5E3C45",
"$ c #797979",
"% c gray48",
"& c gray65",
"* c #A7A7A7",
"= c #FCFEFE",
"- c white",
/* pixels */
"O##O#@OO#OO#O@O##OOO##OO#@O@#@@#OO#OOOO###@##O@O",
"@OOO@@@@#@#O##@OO@O@O@#O##O#O@OO###O#@@O##OOO#@@",
"O@#-@#@#O##@-#OO@#O-O#@OO#OO-@O@O@@-#@@#O@#O-OO@",
"##@-#@@%O@#@-O#OO#O-OO#%#@O#-#@##O@-###%@O@O-@O@",
"#@-&%O##O@O-*%@#O@-&%@O#OOO-*$@O##-*$O#@O@#-&%#@",
"@o&&%XOOOOo&*%o##o&&%o#@@O.&*%o@#o*&%o@##Oo**$o@",
"@..$ooO#@#..%oo##oo%oo#OO#.X%oo@Ooo%ooO#O@o.%o.O",
"OO.oo@O#OO@oo.O@OOo.o##OOO#oooO#@#ooo#@@@## oo#O",
"@O@@@OOO@##O#O#O@@#@#O##O@###OO@#@@#O@###O###OOO",
"@@#O@OO@O@OO#@@#O@O#OOOOO@#@#OOO#OO@#OO##@##@O#O",
"###-O@#O@#OO-#O#@@#-@O@#@O@O-O##@#@-O####OO#-@@#",
"OO@-@@#O%#OO-OOOOO@-####%@OO-O@@#@#-@O#@%#@@-#OO",
"#O-*%O#####-*%@OO@-&$O#O#O#-*$O#O@-&$O#OO+O-&%@@",
"#o**$oOOO#X*&$.@Oo&&%oO#O@o**%o##o&*%o##@Oo&*%o#",
"@oo$.o@O#OoX$oo#Ooo%oo+@@Ooo$ooOOoo% oOOO#oX%oo@",
"#@o.XO##O@Oo.oOO+@ooo@#O#+#ooo@@##oooOO##@#ooo#@",
"O@#@@@O@##@@O@@#OO#OOO@#O#O#@@@#OO@#O#@O#OOOOO#O",
"@#O#O#OO###OO@#O#@@O#O####OOO@#O@O@###O@#@OOOOO@",
"##@-#@@#OOOO-##OOO===OOO#O#O-@@OO#O-@@#@@@#@-@@@",
"@##-O@O%+OO@-O@========%O@@@-OOO##O-OO#%@@OO-O##",
"##-*%#+OOO@-&%==========O#@-&%@O@@-*%#O#@OO-*%##",
"#o&*$.O#O#.*&%=O@=======#Oo*&$X#@o&&$o##O@o*&%oO",
"Ooo%oo@O@#oX%o.O#========OXo%oo#Oo===oO@#@o.%oo@",
"@Ooo.#@##O#oo.@#==========Oooo##@@o==##O#O#oXoO#",
"O#@@O#O@OO==@@O=============@#@O###===#OO##O#@O#",
"#O#O@@O##==O#==================#@=====O#OO##@OOO",
"O##-OOOO@=============================O#@@O@-#O#",
"#OO-OO@O%=============================O@%OO@-#O+",
"@O-&%#O#@#===========================@O@OOO-*%O@",
"Oo**$o@@#@o**%o@#o&&%o##@@o&&%oOOo&*%X#@OOo&*%o#",
"OoX%Xo##OOoo%oX#O.o%oo#OO#Xo%o.#Ooo$oo@O@@oo%ooO",
"OOoXXOOO@##oo.@@O#oooO#O###Xoo+O##ooo@O#O@@...@@",
"@@#OOOO@OO#@O##O@@OO@O#@#@@#O##@O##@@#O##OO@##OO",
"+@@##@#OOO#OO#OOO@O@#OO@@##@#OOO#OO#OOO@OOOO#@O#",
"#O@-O#OO#@@#-@O@#O#-@@OOOOO@-O@#O@O-@#@O@@@@-#@O",
"OO#-#@#%@@##-O@O+@O-@#@$O@##-O#O##@-##@%@@OO-#@O",
"OO-&%OO@##O-*%##OO-&%O#O@##-*%@#O#-*%##O#@O-*%##",
"Oo*&%XOO@@o&*%oO+o&*%oO@@@o*&%.@@X**%o#O##o*&%oO",
"Ooo%oo@O#@Xo%oo##oX%oo####o.%oo#OoX%o.@@#@.X%ooO",
"+OoooO##O#Oo.o#OO#ooo###O#OoooOOO#ooo#OOO#@XX.##",
"@##O@#O@OO##O@OO@O@OOO##O###OOOO#@@#O#OO#O@#OO@O",
"##@O##@@OO@#OOOOO@O##@@@@@OOOOO#OO#O#@O@#O@O@##@",
"O##-#OO#O@#O-O+##OO-#O@OOO#O-O##@#O-@O###@@#-@@@",
"#OO-OOOO%O#@-#O#@O#-@OOO$#@#-#O@@OO-O#OO%OO#-#O#",
"#@-*%O##OOO-*%@OO#-*%O@@OO@-*%@O@#-*%#O@#O@-*%O@",
"#.&&%o+###o&*%.#@o**%o@##@o*&% @Oo**%o#OO#.*&%XO",
"#o.%ooO#O@o.$ooO#oo%oo#OO@oX%oo@O o%oo@O#@oo%oo@",
"OOooo##OOO@oXoO#@Oooo@##O@Ooo O@OOooo#O###OoooOO"
};
