/* XPM */
static char *result[] = {
/* columns rows colors chars-per-pixel */
"48 48 20 1 ",
"  c #0B031A",
". c #0B041A",
"X c #0C041A",
"o c #0C041B",
"O c #1C121B",
"+ c #1C1A30",
"@ c #5E2C29",
"# c #2A304E",
"$ c #5D3B44",
"% c #5D3B45",
"& c #5D3C45",
"* c #5E3C45",
"= c #FC5003",
"- c #FDA216",
"; c #667291",
": c #94A0BA",
"> c gray65",
", c #A7A7A7",
"< c #FCFEFE",
"1 c white",
/* pixels */
"$**$*&$$*$$*$&$**$$$**$$*&$&*&&*$$*$$$$***&**$&$",
"&$$$&&&&*&*$**&$$&$&$&*$**$*$&$$***$*&&$**$$$*&&",
"$&*&&*&*$**&&*$$&*$*$*&$$*$$*&$&$&&&*&&*$&*$*$$&",
"**&%*&&*$&*&&$*$$*$&$$***&$*$*&**$&$***&&$&$&&$&",
"*&o>o$**$&$.,o&*$&o>o&$*$$$o,X&$**.,.$*&$&*o>X*&",
"&o11,X$$$$o11>o**o11,o*&&$.11,o&*o11>o&**$o11>o&",
"&..>oo$*&*..,oo**oo,oo*$$*.X>oo&$oo,oo$*$&o.>o.$",
"$$.oo&$*$$&oo.$&$$o.o**$$$*ooo$*&*ooo*&&&** oo*$",
"&$&&&$$$&**$*$*$&&*&*$**$&***$$&*&&*$&***$***$$$",
"&&*$&$$&$&$$*&&*$&$*$$$$$&*&*$$$*$$&*$$**&**&$*$",
"***$$&*$&*$$&*$*&&**&$&*&$&$$$**&*&$$****$$*$&&*",
"$$&*&&*$**$$*$$$$$&$**######$$&&*&**&$*&$*&&**$$",
"*$o,o$*****.,o&$$&o>##<<<<<:##$*$&o>.$*$$%$X>o&&",
"*o11>o$$$*X11>.&$o##<<<<<<<<::#**o11>o**&$o11,o*",
"&oo>.o&$*$oX>oo*$#<<<<<;;;;;;;:#$oo, o$$$*oX>oo&",
"*&o.X$**$&$o.o$$#<<<<<;;;;;;;;;#**ooo$$**&*ooo*&",
"$&*&&&$&**&&$&&#<<<<<<;;;##;;;;##$&*$*&$*$$$$$*$",
"&*$*$*$$***$$&#<<<<<<;;;#<<;;;;<#$&***$&*&$$$$$&",
"**&$*&&*$$$$$#<<<<<<<;;;+<<;;;;<#*$&&&*&&&*&*&&&",
"&**$$&$*%$$&$#<<<;<<<;;;+++;OO;+;#$$$$*$&&$$$$**",
"**o,o*%$$$&o>####;<<<;;;;;;;OOO;;#o,X*$*&$$X,o**",
"*o11>.$*$*.11>o$#:<<<;;;;;;;OOO;;#11>o**$&o11>o$",
"$oo>oo&$&*oX,o.$#<<<<<;;;;;;##O;;#o,oo$&*&o.,oo&",
"&$oo.*&**$*oo.&*&#<<<<;;;;;;;;;;#&ooo**$*$*oXo$*",
"$*&&$*$&$$$*&&$$*#<<<<<;;;;<::;;#**$$**$$**$*&$*",
"*$*$&&$**&*$*$*$&&#<<<<<<<<<:::#&&$%**$*$$**&$$$",
"$**$$$$$&*&$$*&$*##@@<<<<<<:::#$$*&&$*$*&&$&&*$*",
"*$$*$$&$*$***&$*#<<<:@@@@::::@;#*$*&*$$&$$$&$*$%",
"&$o>o*$*&** ,o&#<<<<<<<<:@@@@;;#$&o,o&$&$$$o,o$&",
"$o11>o&&*&o11,#<<<<<<<<<<<=--:;;#o11>X*&$$o11>o*",
"$oX,Xo**$$oo>o#<<<<;<<<<<<=--:;;#oo>oo&$&&oo,oo$",
"$$oXX$$$&**oo.#<<<#;<<<<<<=--:;;#*ooo&$*$&&...&&",
"&&*$$$$&$$*&$**####:<<<<<<<::;##$**&&*$**$$&**$$",
"%&&**&*$$$*$$*$$$&#<<<<<<<::;;;#*$$*$$$&$$$$*&$*",
"*$&&$*$$*&&**&$&*$#<<<<<<#;;;;;#$&$$&*&$&&&&**&$",
"$$*$*&**&&**$$&$%&#<<<<<#&#;;;;#**&$**&*&&$$**&$",
"$$o>X$$&**$o,o**$$#<<<<#&*#;;;;#$*X,o**$*&$o,o**",
"$o11,X$$&&o11>o$%o11>o$&&&o11,.&&X11>o*$**o11,o$",
"$oo,oo&$*&Xo>oo**oX,oo****o.,oo*$oX>o.&&*&.X,oo$",
"%$ooo$**$*$o.o*$$*ooo***$*$ooo$$$*ooo*$$$*&XX.**",
"&**$&*$&$$**$&$$&$&$$$**$***$$$$*&&*$*$$*$&*$$&$",
"**&$**&&$$&*$$$$$&$**&&&&&$$$$$*$$*$*&$&*$&$&**&",
"$**&*$$*$&*$*$%**$$&*$&$$$*$$$**&*$$&$***&&*$&&&",
"*$$*$$$$*$*&**$*&$*$&$$$$*&*$*$&&$$*$*$$*$$***$*",
"*&o,o$**$$$o,o&$$*X,o$&&$$&.,o&$&*o,X*$&*$&o,X$&",
"*.11,o%***o11>.*&o11,o&**&o11> &$o11>o*$$*.11>X$",
"*o.,oo$*$&o.>oo$*oo,oo*$$&oX>oo&$ o,oo&$*&oo>oo&",
"$$ooo**$$$&oXo$*&$ooo&**$&$oo $&$$ooo*$***$ooo$$"
};
