/* XPM */
static char *result[] = {
/* columns rows colors chars-per-pixel */
"48 48 11 1 ",
"  c #0B031A",
". c #0B041A",
"X c #0C041A",
"o c #0C041B",
"O c #5D3B44",
"+ c #5D3B45",
"@ c #5D3C45",
"# c #5E3C45",
"$ c gray65",
"% c #A7A7A7",
"& c #FCFEFE",
/* pixels */
"O##O#@OO#OO#O@O##OOO##OO#@O@#@@#OO#OOOO###@##O@O",
"@OOO@@@@#@#O##@OO@O@O@#O##O#O@OO###O#@@O##OOO#@@",
"O@#@@#@#O##@@#OO@#O#O#@OO#OO#@O@O@@@#@@#O@#O#OO@",
"##@+#@@#O@#@@O#OO#O@OO###@O#O#@##O@O###@@O@O@@O@",
"#@oooO##O@O.oo@#O@oXo@O#OOOooX@O##.o.O#@O@#oXX#@",
"@ooXoXOOOOoXooo##o.Xoo#@@O. ooo@#oo.oo@##Oooo.o@",
"@..$ooO#@#..%oo##oo%oo#OO#.X$oo@Ooo%ooO#O@o.$o.O",
"OO.oo@O#OO@oo.O@OOo.o##OOO#oooO#@#ooo#@@@## oo#O",
"@O@@@OOO@##O#O#O@@#@#O##O@###OO@#@@#O@###O###OOO",
"@@#O@OO@O@OO#@@#O@O#OOOOO@#@#OOO#OO@#OO##@##@O#O",
"###OO@#O@#OO@#O#@@##@O@#@O@OOO##@#@OO####OO#O@@#",
"OO@#@@#O##OO#OOOOO@O####@@OOOO@@#@##@O#@O#@@##OO",
"#OoooO#####.oo@OO@o. O#O#O#oo.O#O@o..O#OO+OXXo@@",
"#ooo.oOOO#Xoo..@Ooo.ooO#O@ooooo##o.ooo##@Oo.ooo#",
"@oo$.o@O#OoX$oo#Ooo%oo+@@Ooo$ooOOoo% oOOO#oX$oo@",
"#@o.XO##O@Oo.oOO+@ooo@#O#+#ooo@@##oooOO##@#ooo#@",
"O@#@@@O@##@@O@@#OO#OOO@#O#O#@@@#OO@#O#@O#OOOOO#O",
"@#O#O#OO###OO@#O#@@O#O####OOO@#O@O@###O@#@OOOOO@",
"##@O#@@#OOOOO##OOOO@OOOO#O#O#@@OO#O@@@#@@@#@#@@@",
"@##OO@O#+OO@OO@##O#O#O#@O@@@@OOO##OOOO#O@@OOOO##",
"##ooo#+OOO@o.o@@OOoXo@@#O#@ooo@O@@ooX#O#@OOXoo##",
"#ooo..O#O#.oXooO@.X&&o@@#Oooo X#@o.. o##O@oooXoO",
"Ooo$oo@O@#oX%o.O#. &&o@#@OXo$oo#Ooo%ooO@#@o.%oo@",
"@Ooo.#@##O#oo.@#@#oXoOO#O#Oooo##@@ooo##O#O#oXoO#",
"O#@@O#O@OOO#@@OO##OO@#@O@O@O@#@O###OO##OO##O#@O#",
"#O#O@@O##&#O#O#O@@O#@#O@#O@OO#O#@@O+#&O#OO##@OOO",
"O##OOOOO&&@OO#@O#@#OO####@##OOOOO#@@O&&#@@O@@#O#",
"#OO#OO@O#O###@O####@O#O@@O#@OOO##O#@#OO@OOO@O#O+",
"@Oooo#O#@## oo@@@Oooo#O####oooO#O@ooo@O@OOOoooO@",
"Oooo o@@#@ooooo@#ooooo##@@ooXooOOo.ooX#@OOo.ooo#",
"OoX%Xo##OOoo$oX#O.o%oo#OO#Xo$o.#Ooo$oo@O@@oo%ooO",
"OOoXXOOO@##oo.@@O#oooO#O###Xoo+O##ooo@O#O@@...@@",
"@@#OOOO@OO#@O##O@@OO@O#@#@@#O##@O##@@#O##OO@##OO",
"+@@##@#OOO#OO#OOO@O@#OO@@##@#OOO#OO#OOO@OOOO#@O#",
"#O@@O#OO#@@##@O@#O##@@OOOOO@OO@#O@OO@#@O@@@@##@O",
"OO#O#@##@@##OO@O+@O@@#@OO@###O#O##@O##@#@@OO##@O",
"OOooXOO@##Oooo##OO.oXO#O@##ooo@#O#Xoo##O#@Oooo##",
"OooooXOO@@oXoXoO+o.oooO@@@oooo.@@Xoooo#O##oo ooO",
"Ooo%oo@O#@Xo$oo##oX%oo####o.%oo#OoX$o.@@#@.X%ooO",
"+OoooO##O#Oo.o#OO#ooo###O#OoooOOO#ooo#OOO#@XX.##",
"@##O@#O@OO##O@OO@O@OOO##O###OOOO#@@#O#OO#O@#OO@O",
"##@O##@@OO@#OOOOO@O##@@@@@OOOOO#OO#O#@O@#O@O@##@",
"O##@#OO#O@#O#O+##OO@#O@OOO#OOO##@#OO@O###@@#O@@@",
"#OO#OOOO#O#@##O#@O#O@OOOO#@#O#O@@OO#O#OO#OO###O#",
"#@oooO##OOOooo@OO#XooO@@OO@.oo@O@#ooX#O@#O@ooXO@",
"#.Xooo+###oXoo.#@ooooo@##@oo.o @Oooooo#OO#.oooXO",
"#o.%ooO#O@o.$ooO#oo%oo#OO@oX$oo@O o%oo@O#@oo$oo@",
"OOooo##OOO@oXoO#@Oooo@##O@Ooo O@OOooo#O###OoooOO"
};
