/* XPM */
static char *result[] = {
/* columns rows colors chars-per-pixel */
"48 48 22 1 ",
"  c #0B031A",
". c #0B041A",
"X c #0C041A",
"o c #0C041B",
"O c #1C121B",
"+ c #1C1A30",
"@ c #5E2C29",
"# c #2A304E",
"$ c #5D3B44",
"% c #5D3B45",
"& c #5D3C45",
"* c #5E3C45",
"= c #797979",
"- c gray48",
"; c #FC5003",
": c #FDA216",
"> c #667291",
", c #94A0BA",
"< c gray65",
"1 c #A7A7A7",
"2 c #FCFEFE",
"3 c white",
/* pixels */
"$**3*&$$*$$*3&$**$$3**$$*&$&3&&*$$*3$$$***&*3$&$",
"&$$3&&&&*&*$3*&$$&$3$&*$**$*3&$$***3*&&$**$$3*&&",
"$&31-*&*$**3<-$$&*31=*&$$*$31-$&$&31-&&*$&*31-$&",
"**1<1&&*$&*1<<*$$*<<<$***&$1<1&**$<<1**&&$&<<1$&",
"*&1<1$**$&$<1<&*$&<<1&$*$$$<1<&$**<1<$*&$&*1<<*&",
"&-<<--$$$$-<1--**-<<--*&&$=<1--&*-1<--&**$-11=-&",
"&..=oo$*&*..-oo**oo-oo*$$*.X-oo&$oo-oo$*$&o.-o.$",
"$$.oo&$*$$&oo.$&$$o.o**$$$*ooo$*&*ooo*&&&** oo*$",
"&$&3&$$$&**$3$*$&&*3*$**$&**3$$&*&&3$&***$**3$$$",
"&&*3&$$&$&$$3&&*$&$3####$&*&3$$$*$$3*$$**&**3$*$",
"**3<-&*$&*$31-$*&&##222,###3<-**&*3<-****$$3<-&*",
"$$<11&*$**$<1<$$##222222,,,#<<&&*&111$*&$*&<11$$",
"*$<11$*****<1<&#2222>>>>>>>>#<$*$&1<<$*$$%$<<<&&",
"*-11=-$$$*-1<=#2222>>>>>>>>>##-**-<1--**&$-<1--*",
"&oo=.o&$*$oX=#22222>>>##>>>>2#o$$oo- o$$$*oX-oo&",
"*&o.X$**$&$o#222222>>#22>>>>2>#&**ooo$$**&*ooo*&",
"$&*3&&$&**&&#22222>>>+22>>>>+>#*$$&3$*&$*$$$3$*$",
"&*$3$*$$***#222222>>>+++>OOO>>>#&$&3**$&*&$$3$$&",
"**3<-&&*$$$#22>222>>>>>>>OOOO>>#$*3<-&*&&&*31-&&",
"&*1<<&$*%$$#22>222>>>>>>>O##>>>#**<<<$*$&&$<<<**",
"**111*%$$$&####,222>>>>>>>>>>>#$&&<1<*$*&$$<11**",
"*-<1==$*$*=1<-#22222>>>>>>>,>>#*&-<<=-**$&-1<--$",
"$oo-oo&$&*oX-o.#2222>>>>>22,,#o*$oo-oo$&*&o.-oo&",
"&$oo.*&**$*oo.&#2222222222,,#o**&&ooo**$*$*oXo$*",
"$*&3$*$&$$$*3&$$#22222222,,,@#&$***3$**$$**$3&$*",
"*$*3&&$**&*$3$*$&#@@@@,,,,,@>>##&&$3**$*$$**3$$$",
"$*3<=$$$&*&3<-&$*#222,@@@@@::>>>##3<-*$*&&$31-$*",
"*$<1<$&$*$*11<$*#222222222;:::>>>>#11$$&$$$1<1$%",
"&$1<1*$*&**<1<&#222222>222,;:::>>>#1<&$&$$$111$&",
"$-11=-&&*&-11-#222222>2222,,;:,#>>#1--*&$$-<1--*",
"$oX-Xo**$$oo-o#22222##2222,,,,,>##o=oo&$&&oo-oo$",
"$$oXX$$$&**oo.#2222#o#22222,,,,>>#ooo&$*$&&...&&",
"&&*3$$$&$$*&3**####3&#22222,,,>>>>#3&*$**$$&3*$$",
"%&&3*&*$$$*$3*$$$&$3*$#22222,,>>>>>#$$$&$$$$3&$*",
"*$31=*$$*&&31-$&*$31-&#22222,##>>>>#-*&$&&&31-&$",
"$$1<1&**&&*1<<&$%&<11*&#2222#<*#>>>#1*&*&&$<11&$",
"$$<<<$$&**$111**$$<<<$*$#222#<&*###11**$*&$<1<**",
"$-1<--$$&&-<1--$%-<1--$&&###<-=&&-11--*$**-1<--$",
"$oo-oo&$*&Xo-oo**oX-oo****o.-oo*$oX-o.&&*&.X-oo$",
"%$ooo$**$*$o.o*$$*ooo***$*$ooo$$$*ooo*$$$*&XX.**",
"&**3&*$&$$**3&$$&$&3$$**$***3$$$*&&3$*$$*$&*3$&$",
"**&3**&&$$&*3$$$$&$3*&&&&&$$3$$*$$*3*&$&*$&$3**&",
"$*31-$$*$&*31-%**$3<-$&$$$*3<=**&*3<-$***&&3<-&&",
"*$<1<$$$*$*<11$*&$1<1$$$$*&1<1$&&$<1<*$$*$$111$*",
"*&<11$**$$$<1<&$$*<1<$&&$$&<1<&$&*11<*$&*$&11<$&",
"*=<<--%***-<1-=*&-11--&**&-1<-=&$-11--*$$*=1<--$",
"*o.-oo$*$&o.=oo$*oo-oo*$$&oX-oo&$ o-oo&$*&oo-oo&",
"$$ooo**$$$&oXo$*&$ooo&**$&$oo $&$$ooo*$***$ooo$$"
};
