/* XPM */
static char *result[] = {
/* columns rows colors chars-per-pixel */
"48 48 13 1 ",
"  c #1C121B",
". c #1C1A30",
"X c #5E2C29",
"o c #613F3B",
"O c #2A304E",
"+ c #563E46",
"@ c #FC5003",
"# c #84504A",
"$ c #9D5D56",
"% c #FDA216",
"& c #667291",
"* c #94A0BA",
"= c #FCFEFE",
/* pixels */
"+#####+++#####+++#####+++#####+++#####+++#####++",
"######$+######$+######$+######$+######$+######$+",
"######$+######$+######$+######$+######$+######$+",
"######$+######$+######$+######$+######$+######$+",
"######$+######$+######$+######$+######$+######$+",
"#####$$+#####$$+#####$$+#####$$+#####$$+#####$$+",
"o$$$$$o+o$$$$$o+o$$$$$o+o$$$$$o+o$$$$$o+o$$$$$o+",
"+ooooo+++ooooo+++ooooo+++ooooo+++ooooo+++ooooo++",
"+#####+++#####+++#####+++#####+++#####+++#####++",
"######$+######$+######$+######$+######$+######$+",
"######$+######$+######$+######$+######$+######$+",
"######$+######$+######OOOOOO##$+######$+######$+",
"######$+######$+####OO=====*OO$+######$+######$+",
"#####$$+#####$$+##OO========**O+#####$$+#####$$+",
"o$$$$$o+o$$$$$o+oO=====&&&&&&&*Oo$$$$$o+o$$$$$o+",
"+ooooo+++ooooo++O=====&&&&&&&&&O+ooooo+++ooooo++",
"+#####+++#####+O======&&&OO&&&&OO#####+++#####++",
"######$+######O======&&&O==&&&&=O#####$+######$+",
"######$+#####O=======&&&.==&&&&=O#####$+######$+",
"######$+#####O===&===&&&...&  &.&O####$+######$+",
"######$+#####OOOO&===&&&&&&&   &&O####$+######$+",
"#####$$+#####$$+O*===&&&&&&&   &&O###$$+#####$$+",
"o$$$$$o+o$$$$$o+O=====&&&&&&OO &&O$$$$o+o$$$$$o+",
"+ooooo+++ooooo++#O====&&&&&&&&&&Oooooo+++ooooo++",
"+#####+++#####++#O=====&&&&=**&&O#####+++#####++",
"######$+######$+##O=========***O######$+######$+",
"######$+######$+###OX======***O+######$+######$+",
"######$+######$+##O=*XXXX****X&O######$+######$+",
"######$+######$+##O====&*XXXX&&O######$+######$+",
"#####$$+#####$$+#O====&===@%%*&&O####$$+#####$$+",
"o$$$$$o+o$$$$$o+oO====&===@%%*&&O$$$$$o+o$$$$$o+",
"+ooooo+++ooooo+++O===&====@%%*&&Oooooo+++ooooo++",
"+#####+++#####+++#O&&=====***&OO+#####+++#####++",
"######$+######$+###O=====***&&O+######$+######$+",
"######$+######$+###O====OO&&&&O+######$+######$+",
"######$+######$+###O====OO&&&O$+######$+######$+",
"######$+######$+###O===O#O&&&O$+######$+######$+",
"#####$$+#####$$+#####$$+#####$$+#####$$+#####$$+",
"o$$$$$o+o$$$$$o+o$$$$$o+o$$$$$o+o$$$$$o+o$$$$$o+",
"+ooooo+++ooooo+++ooooo+++ooooo+++ooooo+++ooooo++",
"+#####+++#####+++#####+++#####+++#####+++#####++",
"######$+######$+######$+######$+######$+######$+",
"######$+######$+######$+######$+######$+######$+",
"######$+######$+######$+######$+######$+######$+",
"######$+######$+######$+######$+######$+######$+",
"#####$$+#####$$+#####$$+#####$$+#####$$+#####$$+",
"o$$$$$o+o$$$$$o+o$$$$$o+o$$$$$o+o$$$$$o+o$$$$$o+",
"+ooooo+++ooooo+++ooooo+++ooooo+++ooooo+++ooooo++"
};
