/* XPM */
static char *result[] = {
/* columns rows colors chars-per-pixel */
"48 48 20 1 ",
"  c #0B031A",
". c #0B041A",
"X c #0C041A",
"o c #0C041B",
"O c #1C121B",
"+ c #1C1A30",
"@ c #5E2C29",
"# c #2A304E",
"$ c #5D3B44",
"% c #5D3B45",
"& c #5D3C45",
"* c #5E3C45",
"= c #FC5003",
"- c #FDA216",
"; c #667291",
": c #94A0BA",
"> c gray65",
", c #A7A7A7",
"< c #FCFEFE",
"1 c white",
/* pixels */
"$**$*&$$*$$*$&$**$$$**$$*&$&*&&*$$*$$$$***&**$&$",
"&$$$&&&&*&*$**&$$&$&$&*$**$*$&$$***$*&&$**$$$*&&",
"$&*&&*&*$**&&*$$&*$*$*&$$*$$*&$&$&&&*&&*$&*$*$$&",
"**&%*&&*$&*&&$*$$*$&$$***&$*$*&**$&$***&&$&$&&$&",
"*&o>o$**$&$.,o&*$&o>o&$*$$$o,X&$**.,.$*&$&*o>X*&",
"&o>11X$$$$o>11o**o>11o*&&$.>11o&*o,11o&**$o,11o&",
"&..1oo$*&*..1oo**oo1oo*$$*.X1oo&$oo1oo$*$&o.1o.$",
"$$.oo&$*$$&oo.$&$$o.o**$$$*ooo$*&*ooo*&&&** oo*$",
"&$&&&$$$&**$*$*$&&*&*$**$&***$$&*&&*$&***$***$$$",
"&&*$&$$&$&$$*&&*$&$*$$$$$&*&*$$$*$$&*$$**&**&$*$",
"***$$&*$&*$$&*$*&&**&$######$$**&*&$$****$$*$&&*",
"$$&*&&*$**$$*$$$$$&$##<<<<<:##&&*&**&$*&$*&&**$$",
"*$o,o$*****.,o&$$&##<<<<<<<<::#*$&o>.$*$$%$X>o&&",
"*o,11o$$$*X,11.&$#<<<<<;;;;;;;:#*o>11o**&$o>11o*",
"&oo1.o&$*$oX1oo*#<<<<<;;;;;;;;;#$oo1 o$$$*oX1oo&",
"*&o.X$**$&$o.o$#<<<<<<;;;##;;;;##*ooo$$**&*ooo*&",
"$&*&&&$&**&&$&#<<<<<<;;;#<<;;;;<#$&*$*&$*$$$$$*$",
"&*$*$*$$***$$#<<<<<<<;;;+<<;;;;<#$&***$&*&$$$$$&",
"**&$*&&*$$$$$#<<<;<<<;;;+++;OO;+;#$&&&*&&&*&*&&&",
"&**$$&$*%$$&$####;<<<;;;;;;;OOO;;#$$$$*$&&$$$$**",
"**o,o*%$$$&o>o&&#:<<<;;;;;;;OOO;;#o,X*$*&$$X,o**",
"*o>11.$*$*.,11o$#<<<<<;;;;;;##O;;#>11o**$&o,11o$",
"$oo1oo&$&*oX1o.$*#<<<<;;;;;;;;;;#oo1oo$&*&o.1oo&",
"&$oo.*&**$*oo.&*&#<<<<<;;;;<::;;#&ooo**$*$*oXo$*",
"$*&&$*$&$$$*&&$$**#<<<<<<<<<:::#***$$**$$**$*&$*",
"*$*$&&$**&*$*$*$&&#@@<<<<<<:::#*&&$%**$*$$**&$$$",
"$**$$$$$&*&$$*&$*#<<:@@@@::::@;#$*&&$*$*&&$&&*$*",
"*$$*$$&$*$***&$*#<<<<<<<:@@@@:;;#$*&*$$&$$$&$*$%",
"&$o>o*$*&** ,o&#<<<<<<;<<<=--:;;;#o,o&$&$$$o,o$&",
"$o,11o&&*&o,11#<<<<<<;<<<<=--:;;;;#11X*&$$o>11o*",
"$oX1Xo**$$oo1o#<<<<<;<<<<<=--:;;;;#1oo&$&&oo1oo$",
"$$oXX$$$&**oo.#<<<<;<<<<<<::::#;;;#oo&$*$&&...&&",
"&&*$$$$&$$*&$**#####<<<<<<:::;####*&&*$**$$&**$$",
"%&&**&*$$$*$$*$$$&$#<<<<<<::;;#$*$$*$$$&$$$$*&$*",
"*$&&$*$$*&&**&$&*$*#<<<<<::;;;#*$&$$&*&$&&&&**&$",
"$$*$*&**&&**$$&$%&#<<<<<###;;;#$**&$**&*&&$$**&$",
"$$o>X$$&**$o,o**$$#<<<<#&*#;;;#*$*X,o**$*&$o,o**",
"$o,11X$$&&o>11o$%o#<<<#&&&#;;;#&&X,11o*$**o,11o$",
"$oo1oo&$*&Xo1oo**oX1oo****o.1oo*$oX1o.&&*&.X1oo$",
"%$ooo$**$*$o.o*$$*ooo***$*$ooo$$$*ooo*$$$*&XX.**",
"&**$&*$&$$**$&$$&$&$$$**$***$$$$*&&*$*$$*$&*$$&$",
"**&$**&&$$&*$$$$$&$**&&&&&$$$$$*$$*$*&$&*$&$&**&",
"$**&*$$*$&*$*$%**$$&*$&$$$*$$$**&*$$&$***&&*$&&&",
"*$$*$$$$*$*&**$*&$*$&$$$$*&*$*$&&$$*$*$$*$$***$*",
"*&o,o$**$$$o,o&$$*X,o$&&$$&.,o&$&*o,X*$&*$&o,X$&",
"*.>11o%***o>11.*&o,11o&**&o,11 &$o,11o*$$*.,11X$",
"*o.1oo$*$&o.1oo$*oo1oo*$$&oX1oo&$ o1oo&$*&oo1oo&",
"$$ooo**$$$&oXo$*&$ooo&**$&$oo $&$$ooo*$***$ooo$$"
};
