/* XPM */
static char *result[] = {
/* columns rows colors chars-per-pixel */
"48 48 19 1 ",
"  c #0B031A",
". c #0B041A",
"X c #0C041A",
"o c #0C041B",
"O c #1C121B",
"+ c #1C1A30",
"@ c #5E2C29",
"# c #2A304E",
"$ c #5D3B44",
"% c #5D3B45",
"& c #5D3C45",
"* c #5E3C45",
"= c #FC5003",
"- c #FDA216",
"; c #667291",
": c #94A0BA",
"> c gray65",
", c #A7A7A7",
"< c #FCFEFE",
/* pixels */
"$**$*&$$*$$*$&$**$$$**$$*&$&*&&*$$*$$$$***&**$&$",
"&$$$&&&&*&*$**&$$&$&$&*$**$*$&$$***$*&&$**$$$*&&",
"$&*&&*&*$**&&*$$&*$*$*&$$*$$*&$&$&&&*&&*$&*$*$$&",
"**&%*&&*$&*&&$*$$*$&$$***&$*$*&**$&$***&&$&$&&$&",
"*&ooo$**$&$.oo&*$&oXo&$*$$$ooX&$**.o.$*&$&*oXX*&",
"&ooXoX$$$$oXooo**o.Xoo*&&$. ooo&*oo.oo&**$ooo.o&",
"&..>oo$*&*..,oo**oo,oo*$$*.X>oo&$oo,oo$*$&o.>o.$",
"$$.oo&$*$$&oo.$&$$o.o**$$$*ooo$*&*ooo*&&&** oo*$",
"&$&&&$$$&**$*$*$&&*&*$**$&***$$&*&&*$&***$***$$$",
"&&*$&$$&$&$$*&&*$&$*$$$$$&*&*$$$*$$&*$$**&**&$*$",
"***$$&*$&*$$&*$*&&**&$&*&$&$$$**&*&$$****$$*$&&*",
"$$&*&&*$**$$*$$$$$&$**######$$&&*&**&$*&$*&&**$$",
"*$ooo$*****.oo&$$&o.##<<<<<:##$*$&o..$*$$%$XXo&&",
"*ooo.o$$$*Xoo..&$o##<<<<<<<<::#**o.ooo**&$o.ooo*",
"&oo>.o&$*$oX>oo*##<<<<<;;;;;;;:#$oo, o$$$*oX>oo&",
"*&o.X$**$&$o.o$#<<<<<<;;;;;;;;;#**ooo$$**&*ooo*&",
"$&*&&&$&**&&$&#<<<<<<<;;;##;;;;##$&*$*&$*$$$$$*$",
"&*$*$*$$***$$#<<<<<<<;;;#<<;;;;<#$&***$&*&$$$$$&",
"**&$*&&*$$$$$#<<<;<<<;;;+++;;;;+#*$&&&*&&&*&*&&&",
"&**$$&$*%$$&$####;<<<;;;+++;OO;+;#$$$$*$&&$$$$**",
"**ooo*%$$$&o.o&&#:<<<;;;;;;;OOO;;#ooX*$*&$$Xoo**",
"*ooo..$*$*.oXoo$#<<<<;;;;;;;OOO;;#.. o**$&oooXo$",
"$oo>oo&$&*oX,o.$#<<<<<;;;;;;##O;;#o,oo$&*&o.,oo&",
"&$oo.*&**$*oo.&*&#<<<<;;;;;;;;;;#&ooo**$*$*oXo$*",
"$*&&$*$&$$$*&&$$*#<<<<<;;;;<::;;#**$$**$$**$*&$*",
"*$*$&&$**&*$*$*$&&#<<<<<<<<<:::#&&$%**$*$$**&$$$",
"$**$$$$$&*&$$*&$*&#@@<<<<<<:::#$$*&&$*$*&&$&&*$*",
"*$$*$$&$*$***&$*##<<:@@@@::::@;#*$*&*$$&$$$&$*$%",
"&$ooo*$*&** oo&#<<<<<<;<:@@@@;;;##ooo&$&$$$ooo$&",
"$ooo o&&*&ooooo#<<<<<;<<<<=--:;;;;#ooX*&$$o.ooo*",
"$oX,Xo**$$oo>oX#<<<<;<<<<<=--:;;;;#>oo&$&&oo,oo$",
"$$oXX$$$&**oo.&&###;<<<<<<=--:#;;;#oo&$*$&&...&&",
"&&*$$$$&$$*&$**$&&$#<<<<<<:::;####*&&*$**$$&**$$",
"%&&**&*$$$*$$*$$$&$#<<<<<:::;;#$*$$*$$$&$$$$*&$*",
"*$&&$*$$*&&**&$&*$*#<<<<##;;;;#*$&$$&*&$&&&&**&$",
"$$*$*&**&&**$$&$%&$#<<<<##;;;#*$**&$**&*&&$$**&$",
"$$ooX$$&**$ooo**$$.#<<<#&#;;;#&*$*Xoo**$*&$ooo**",
"$ooooX$$&&oXoXo$%o.ooo$&&&oooo.&&Xoooo*$**oo oo$",
"$oo,oo&$*&Xo>oo**oX,oo****o.,oo*$oX>o.&&*&.X,oo$",
"%$ooo$**$*$o.o*$$*ooo***$*$ooo$$$*ooo*$$$*&XX.**",
"&**$&*$&$$**$&$$&$&$$$**$***$$$$*&&*$*$$*$&*$$&$",
"**&$**&&$$&*$$$$$&$**&&&&&$$$$$*$$*$*&$&*$&$&**&",
"$**&*$$*$&*$*$%**$$&*$&$$$*$$$**&*$$&$***&&*$&&&",
"*$$*$$$$*$*&**$*&$*$&$$$$*&*$*$&&$$*$*$$*$$***$*",
"*&ooo$**$$$ooo&$$*Xoo$&&$$&.oo&$&*ooX*$&*$&ooX$&",
"*.Xooo%***oXoo.*&ooooo&**&oo.o &$ooooo*$$*.oooX$",
"*o.,oo$*$&o.>oo$*oo,oo*$$&oX>oo&$ o,oo&$*&oo>oo&",
"$$ooo**$$$&oXo$*&$ooo&**$&$oo $&$$ooo*$***$ooo$$"
};
