/* XPM */
static char *result[] = {
/* columns rows colors chars-per-pixel */
"48 48 15 1 ",
"  c #0B031A",
". c #0B041A",
"X c #0C041A",
"o c #0C041B",
"O c #2A304E",
"+ c #5D3B44",
"@ c #5D3B45",
"# c #5D3C45",
"$ c #5E3C45",
"% c #797979",
"& c gray48",
"* c gray65",
"= c #A7A7A7",
"- c #FCFEFE",
"; c white",
/* pixels */
"+$$+$#++$++$+#+$$+++$$++$#+#$##$++$++++$$$#$$+#+",
"#++;####$#$+;$#++#+;+#$+$$+$;#++$$$;$##+$$++;$##",
"+#$;#$#$+$$#;$++#$+;+$#++$++;#+#+##;$##$+#$+;++#",
"$$;*&##$%#$;*%$++$;*&+$$&#+;*&#$$+;*&$$#&+#;*&+#",
"&#=*=+&$+&+*=*#&&#**=#%$+%+*=*#%&$*=*+&#+&$=**$&",
"#o**&X++++o*=&o$$o**&o$##+.*=&o#$o=*&o#$$+o==%o#",
"#..%oo+$#$..&oo$$oo&oo$++$.X&oo#+oo&oo+$+#o.&o.+",
"++.oo#+$++#oo.+#++o.o$$+++$ooo+$#$ooo$###$$ oo$+",
"#+###+++#$$+$+$+##$#$+$$+#$$$++#$##$+#$$$+$$$+++",
"##$;#++#+#++;##$+#+;+++++#$#;+++$++;$++$$#$$;+$+",
"$$$;+#$+#$++;$+$##$;#+#$#+#+;+$$#$#;+$$$$++$;##$",
"++;=&#$&$$+;=%++++;*&$$&##+;*%##$#;=&+$&+$#;=&++",
"&+*==+&$$&$*=*#%&#=**+&+$&$==*+&%#=**+&++&+***#&",
"$o==%o+++$X=*%.#+o**&o+$+#o==&o$$o*=&o$$#+o*=&o$",
"#oo%.o#+$+oX%oo$+OOOOO@##+oo%oo++oo& o+++$oX&oo#",
"$#o.X+$$+#+o.o+OO-----OO$@$ooo##$$ooo++$$#$ooo$#",
"+#$###+#$$##+#O---------O$+$###$++#$+$#+$+++++$+",
"#$+;+$++$$$+;O-----------O++;#$+#+#;$$+#$#++;++#",
"$$#;$##$++++O------------O$+;##++$+;##$###$#;###",
"#$;*&#+$&++;O-------------O;*&++$$;*&+$+&#+;*%$$",
"&$===$&++%#O--------------O=*=#&&#*=*$&$#&+*==$&",
"$o*=%.+$+$.O--------------O=*%X$#o**%o$$+#o=*&o+",
"+oo&oo#+#$oO--------------Oo&oo$+oo&oo+#$#o.&oo#",
"#+oo.$#$$+$O---------------Ooo$$##ooo$$+$+$oXo+$",
"+$##+$+#+++O----------------OO#+$$$++$$++$$+$#+$",
"$+$;##+$$#$+O-----------------O$##+;$$+$++$$;+++",
"+$$;++++#$#+O--O---------------OOO#;+$+$##+#;$+$",
"$+;=&+#%$+$;OOO$O-----------------OO&++&+++;*&+@",
"&+=*=$&$#&$*=*#O--------------------O#&#+&+===+&",
"+o==%o##$#o==&oO-----O--------------OX$#++o*=&o$",
"+oX&Xo$$++oo&oXO----OoOO------OOO---Oo#+##oo&oo+",
"++oXX+++#$$oo.##OOOOo+$+OO---O@+$OOOo#+$+##...##",
"##$++++#++$#+$$+##++#+$#$#OOO$$#+$$##$+$$++#$$++",
"@##;$#$+++$+;$+++#+;$++##$$#;+++$++;+++#++++;#+$",
"$+#;+$++$##$;#+#$+$;##+++++#;+#$+#+;#$#+####;$#+",
"++;*&#$$&#$;*&#+@#;=&$#+%#$;=%$+$$;*&$#$&#+;=&#+",
"&+***+&#$&+===$&%+***+&+#&$==*#&&$*==$&+$&+*=*$&",
"+o=*&X++##o*=&o+@o*=&o+###o=*&.##X==&o$+$$o=*&o+",
"+oo&oo#+$#Xo&oo$$oX&oo$$$$o.&oo$+oX&o.##$#.X&oo+",
"@+ooo+$$+$+o.o$++$ooo$$$+$+ooo+++$ooo$+++$#XX.$$",
"#$$+#$+#++$$+#++#+#+++$$+$$$++++$##$+$++$+#$++#+",
"$$#;$$##++#$;++++#+;$#####++;++$++$;$#+#$+#+;$$#",
"+$$;$++$+#$+;+@$$++;$+#+++$+;+$$#$+;#+$$$##$;###",
"$+;=&++&$+$;=&+$#+;*&++&+$#;*&+##+;=%$+&$++;=&+$",
"&#*==+&$+&+*=*#&&$*=*+&#+&#*=*#&&$==*$&#$%#==*+&",
"$.**&o@$$$o*=&.$#o==&o#$$#o=*& #+o==&o$++$.=*&X+",
"$o.&oo+$+#o.%oo+$oo&oo$++#oX&oo#+ o&oo#+$#oo&oo#",
"++ooo$$+++#oXo+$#+ooo#$$+#+oo +#++ooo$+$$$+ooo++"
};
