/* XPM */
static char *result[] = {
/* columns rows colors chars-per-pixel */
"48 48 130 2 ",
"   c #020101",
".  c #080700",
"X  c #0C0B01",
"o  c #02020B",
"O  c #0C0C0C",
"+  c #110F01",
"@  c #131102",
"#  c #181605",
"$  c #1E1B04",
"%  c #131209",
"&  c #19170A",
"*  c #1B190B",
"=  c #1B1B14",
"-  c #1E1E1A",
";  c #221F0F",
":  c #242102",
">  c #2D2B0E",
",  c #322F04",
"<  c #39360D",
"1  c #232116",
"2  c #343213",
"3  c #282723",
"4  c #613F3B",
"5  c #534F18",
"6  c #5F5A11",
"7  c #635E0B",
"8  c #6D681C",
"9  c #716C1F",
"0  c #78731E",
"q  c #4B492E",
"w  c #63413B",
"e  c #6C4F3A",
"r  c #6E523A",
"t  c #72573A",
"y  c #745A3B",
"u  c #6D6924",
"i  c #767121",
"p  c #7F7A24",
"a  c #74702A",
"s  c #563E46",
"d  c #5B4445",
"f  c #695642",
"g  c #6D5A43",
"h  c #807A19",
"j  c #827424",
"k  c #847D25",
"l  c #867B2C",
"z  c #897C2B",
"x  c #826D39",
"c  c #8C7E32",
"v  c #99793F",
"b  c #895D47",
"n  c #84504A",
"m  c #8B5E48",
"M  c #9D5D56",
"N  c #8D6546",
"B  c #8F6846",
"V  c #8E6448",
"C  c #936B4A",
"Z  c #807042",
"A  c #887942",
"S  c #977843",
"D  c #9B7C44",
"F  c #9E6751",
"G  c #9E6851",
"H  c #A16A53",
"J  c #A17052",
"K  c #88821D",
"L  c #858024",
"P  c #8A8422",
"I  c #86812B",
"U  c #8D8429",
"Y  c #8F8A2D",
"T  c #908A25",
"R  c #93842C",
"E  c #938E2E",
"W  c #99922D",
"Q  c #8E8332",
"!  c #958733",
"~  c #948B33",
"^  c #9B8D36",
"/  c #90813D",
"(  c #97893A",
")  c #9B8E3C",
"_  c #989237",
"`  c #9B903D",
"'  c #9E993C",
"]  c #A2942E",
"[  c #A0833E",
"{  c #AC893A",
"}  c #A2943F",
"|  c #A8953D",
" . c #AA9C38",
".. c #B2A139",
"X. c #C1B93C",
"o. c #9C8144",
"O. c #9E9343",
"+. c #A28343",
"@. c #A88747",
"#. c #A48D43",
"$. c #B08F48",
"%. c #AB9643",
"&. c #AD9B44",
"*. c #AB974A",
"=. c #AD9848",
"-. c #B29C43",
";. c #AEA245",
":. c #B6A146",
">. c #B9A447",
",. c #B3A44A",
"<. c #BBA54B",
"1. c #BEAB4B",
"2. c #BEB441",
"3. c #BEB651",
"4. c #BFB559",
"5. c #C4AE4E",
"6. c #C2B245",
"7. c #C6B348",
"8. c #D3BE46",
"9. c #CFBB5C",
"0. c #CCC445",
"q. c #CCC451",
"w. c #D2CA51",
"e. c #DAD356",
"r. c #E2E3E6",
"t. c #EAEAED",
"y. c #F0F0EF",
"u. c #F5F5F6",
"i. c #F7F7F8",
"p. c #FEFEFE",
/* pixels */
"s n n n n n s s s n n n n n s s s n n n n n s s s n n n n n s s s n n n n n s s s n n n n n s s ",
"n n n n n n M s n n n n n n M s n n n n n n M s n n n n n n M s n n n n n n M s n n n n n n M s ",
"n n n n n n M s n n n n n n M s n n n n n n M s n n n n n n M s n n n n n n M s n n n n n n M s ",
"n n n n n n M s n n n n n n M s n n n n n n M s n n n n n n M s n n n n n n M s n n n n n n M s ",
"n n n n n n M s n n n n n n M s n n n n n n M s n n n n n n M s n n n n n n M s n n n n n n M s ",
"n n n n n M M s n n n n n M M s n n n n n M M s n n n n n M M s n n n n n M M s n n n n n M M s ",
"4 M M M M M 4 s 4 M M M M M 4 s 4 M M M M M 4 s 4 M M M M M 4 s 4 M M M M M 4 s 4 M M M M M 4 s ",
"s 4 4 4 4 4 s s s 4 4 4 4 4 s s s 4 4 4 4 4 s s s 4 4 4 4 4 s s s 4 4 4 4 4 s s s 4 4 4 4 4 s s ",
"s n n n n n s s s n n n n n s s s n n n n n s s s n n n n n s s s n n n n n s s s n n n n n s s ",
"n n n n n n M s n n n n n n M s n n n n n n M s n n n n n n M s n n n n n n M s n n n n n n M s ",
"n n n n n n M s n n n n n n M s n n n n n n M s n n n n n n M s n n n n n n M s n n n n n n M s ",
"n n n n n n M s n n n n n n M s n n n n n n M s n n n n n n M s n n n n n n M s n n n n n n M s ",
"n n n n n n M s n n n n n n M s n n n n n n M s n n n n n n M s n n n n n n M s n n n n n n M s ",
"n n n n n M M s n n n n n M M s n n n n n M M s n n n n n M M s n n n n n M M s n n n n n M M s ",
"4 M M M M M 4 s 4 M M M M M 4 s w M M M M M 4 s 4 M M M M M 4 s 4 M M M M M 4 s 4 M M M M M 4 s ",
"s 4 4 4 4 4 s s s 4 4 4 4 w g O.q.6.( y 4 4 s s s 4 4 4 4 4 s s s 4 4 4 4 4 s s s 4 4 4 4 4 s s ",
"s n n n n n s s s n n n n V A k 6 u l v b n n n n n n n n n s s d n n n n n s s s n n n n n s s ",
"n n n n n n M s n n n n m +.R $ X . 2 / [ b n n n n n n n n M s n n n n n n M s n n n n n n M s ",
"n n n n n n M s n n n V v j , # O & @ 2 c v C C B V V N V V J f V V V N b n M s n n n n n n M s ",
"n n n n n n M s n n m #.k # @ & p.p.# X + z 9.>.1.,.<.<.1.:.1.;.1.&.%.&.o.b M s n n n n n n M s ",
"n n n n n n M s n B +.c ; + # p.p.p.p.3 @ : 7 I l E k k k Y L K p E Y E ^ S G s n n n n n n M s ",
"n n n n n M M s n #.j < @ * p.& + X + p.1 X                         . = ; Q -.s n n n g n M M s ",
"4 M M M M M 4 s 4 w.0 + o p.p.+ + X @ p.p.* . . X     +   . .     O     O 9 X.s w M M M M M 4 s ",
"s 4 4 4 4 4 s s s e.p     i.p.=   . % p.p.p.p.p.p.p.p.p.p.p.p.p.p.p.p.X O W 0.s s 4 4 4 4 4 s s ",
"s n n n n n s s s w.z o   p.p.-   . % p.p.p.p.p.p.p.p.p.p.p.p.p.p.p.p.@ X P w.s s n n n n n s s ",
"n n n n n n M s n q.T # o t.p.@ X + + p.i.* @ . % @ @ + * p.p.* @ p.p.@ . P 4.s n n n n n n M s ",
"n n n n n n M s n *.! < O @ p.* + X & p.* @ X   o   X + X p.i.+ @ u.y.X . h 3.s n n n n n n M s ",
"n n n n n n M s n B D ] > @ # p.p.p.p.% @ + 8 i I L 2   . X X X X X % X . a 2.s n n n n n n M s ",
"n n n n n n M s n n m <.R $ + @ r.p.% X $ ! 6.7.6.8...q * + @ @ @ + # X # c %.s n n n n n n M s ",
"n n n n n M M s n n n V D l $ + o & + >  .D N V N N S ,.' ~ E _ ~ _ U I c @.H s n n n n n M M s ",
"4 M M M M M 4 s 4 M M M H $.U 5 . . @ j { F M M M M F [ -.=.} ` ) -.>.5.@.F 4 s 4 M M M M M 4 s ",
"s 4 4 4 4 4 s s s 4 4 4 4 r Z Q 8 u z x e w 4 4 4 4 w r r y f f f t y t e w s s s 4 4 4 4 4 s s ",
"s n n n n n s s s n n n n n g ( 2.6.| N n n s s s n n n n n d d d n b n n n s s s n n n n n s s ",
"n n n n n n M s n n n n n n M s n n n n n n M s n n n n n n F s n n n n n n M s n n n n n n M s ",
"n n n n n n M s n n n n n n M s n n n n n n M s n n n n n n M s n n n n n n M s n n n n n n M s ",
"n n n n n n M s n n n n n n M s n n n n n n M s n n n n n n M s n n n n n n M s n n n n n n M s ",
"n n n n n n M s n n n n n n M s n n n n n n M s n n n n n n M s n n n n n n M s n n n n n n M s ",
"n n n n n M M s n n n n n M M s n n n n n M M s n n n n n M M s n n n n n M M s n n n n n M M s ",
"4 M M M M M 4 s 4 M M M M M 4 s 4 M M M M M 4 s w M M M M M 4 s 4 M M M M M 4 s 4 M M M M M w s ",
"s 4 4 4 4 4 s s s 4 4 4 4 4 s s s 4 4 4 4 4 s s s w 4 4 4 4 s s s 4 4 4 4 4 s s s 4 4 4 4 4 s s ",
"s n n n n n s s s n n n n n s s s n n n n n s s s n n n n n s s s n n n n n s s s n n n n n s s ",
"n n n n n n M s n n n n n n M s n n n n n n M s n n n n n n M s n n n n n n M s n n n n n n M s ",
"n n n n n n M s n n n n n n M s n n n n n n M s n n n n n n M s n n n n n n M s n n n n n n M s ",
"n n n n n n M s n n n n n n M s n n n n n n M s n n n n n n M s n n n n n n M s n n n n n n M s ",
"n n n n n n M s n n n n n n M s n n n n n n M s n n n n n n M s n n n n n n M s n n n n n n M s ",
"n n n n n M M s n n n n n M M s n n n n n M M s n n n n n M M s n n n n n M M s n n n n n M M s ",
"4 M M M M M 4 s 4 M M M M M 4 s 4 M M M M M 4 s 4 M M M M M 4 s 4 M M M M M 4 s 4 M M M M M 4 s ",
"s 4 4 4 4 4 s s s 4 4 4 4 4 s s s 4 4 4 4 4 s s s 4 4 4 4 4 s s s 4 4 4 4 4 s s s 4 4 4 4 4 s s "
};
